<?xml version="1.0" encoding="utf-8" standalone="no"?>
<!DOCTYPE svg PUBLIC "-//W3C//DTD SVG 1.1//EN"
  "http://www.w3.org/Graphics/SVG/1.1/DTD/svg11.dtd">
<svg xmlns:xlink="http://www.w3.org/1999/xlink" width="315.238202pt" height="313.776pt" viewBox="0 0 315.238202 313.776" xmlns="http://www.w3.org/2000/svg" version="1.1">
 <metadata>
  <rdf:RDF xmlns:dc="http://purl.org/dc/elements/1.1/" xmlns:cc="http://creativecommons.org/ns#" xmlns:rdf="http://www.w3.org/1999/02/22-rdf-syntax-ns#">
   <cc:Work>
    <dc:type rdf:resource="http://purl.org/dc/dcmitype/StillImage"/>
    <dc:date>2026-04-13T15:02:24.397836</dc:date>
    <dc:format>image/svg+xml</dc:format>
    <dc:creator>
     <cc:Agent>
      <dc:title>Matplotlib v3.10.8, https://matplotlib.org/</dc:title>
     </cc:Agent>
    </dc:creator>
   </cc:Work>
  </rdf:RDF>
 </metadata>
 <defs>
  <style type="text/css">*{stroke-linejoin: round; stroke-linecap: butt}</style>
 </defs>
 <g id="figure_1">
  <g id="patch_1">
   <path d="M 0 313.776 
L 315.238202 313.776 
L 315.238202 0 
L 0 0 
z
" style="fill: #ffffff"/>
  </g>
  <g id="axes_1">
   <g id="patch_2">
    <path d="M 23.631002 185.32872 
L 125.418842 185.32872 
Q 132.903242 185.32872 132.903242 177.84432 
L 132.903242 76.05648 
Q 132.903242 68.57208 125.418842 68.57208 
L 23.631002 68.57208 
Q 16.146602 68.57208 16.146602 76.05648 
L 16.146602 177.84432 
Q 16.146602 185.32872 23.631002 185.32872 
z
" clip-path="url(#p9a44731051)" style="fill: #e7f0fa; stroke: #1f4e79; stroke-width: 1.5; stroke-linejoin: miter"/>
   </g>
   <g id="line2d_1">
    <path d="M 67.814156 139.043314 
L 69.311036 127.667026 
" clip-path="url(#p9a44731051)" style="fill: none; stroke: #3b528b; stroke-opacity: 0.55; stroke-width: 0.5; stroke-linecap: square"/>
   </g>
   <g id="line2d_2">
    <path d="M 65.825608 136.098126 
L 67.322488 124.721838 
" clip-path="url(#p9a44731051)" style="fill: none; stroke: #3b528b; stroke-opacity: 0.55; stroke-width: 0.5; stroke-linecap: square"/>
   </g>
   <g id="line2d_3">
    <path d="M 61.750688 134.526294 
L 63.247568 123.150006 
" clip-path="url(#p9a44731051)" style="fill: none; stroke: #3b528b; stroke-opacity: 0.55; stroke-width: 0.5; stroke-linecap: square"/>
   </g>
   <g id="line2d_4">
    <path d="M 57.099161 135.803114 
L 58.596041 124.426826 
" clip-path="url(#p9a44731051)" style="fill: none; stroke: #3b528b; stroke-opacity: 0.55; stroke-width: 0.5; stroke-linecap: square"/>
   </g>
   <g id="line2d_5">
    <path d="M 53.821695 139.943517 
L 55.318575 128.567229 
" clip-path="url(#p9a44731051)" style="fill: none; stroke: #3b528b; stroke-opacity: 0.55; stroke-width: 0.5; stroke-linecap: square"/>
   </g>
   <g id="line2d_6">
    <path d="M 53.601651 145.677666 
L 55.098531 134.301378 
" clip-path="url(#p9a44731051)" style="fill: none; stroke: #3b528b; stroke-opacity: 0.55; stroke-width: 0.5; stroke-linecap: square"/>
   </g>
   <g id="line2d_7">
    <path d="M 57.055717 150.822458 
L 58.552597 139.44617 
" clip-path="url(#p9a44731051)" style="fill: none; stroke: #3b528b; stroke-opacity: 0.55; stroke-width: 0.5; stroke-linecap: square"/>
   </g>
   <g id="line2d_8">
    <path d="M 63.304967 153.11229 
L 64.801847 141.736002 
" clip-path="url(#p9a44731051)" style="fill: none; stroke: #3b528b; stroke-opacity: 0.55; stroke-width: 0.5; stroke-linecap: square"/>
   </g>
   <g id="line2d_9">
    <path d="M 70.150354 151.173086 
L 71.647234 139.796798 
" clip-path="url(#p9a44731051)" style="fill: none; stroke: #3b528b; stroke-opacity: 0.55; stroke-width: 0.5; stroke-linecap: square"/>
   </g>
   <g id="line2d_10">
    <path d="M 70.150354 151.173086 
L 71.647234 139.796798 
" clip-path="url(#p9a44731051)" style="fill: none; stroke: #5dc863; stroke-opacity: 0.55; stroke-width: 0.5; stroke-linecap: square"/>
   </g>
   <g id="line2d_11">
    <path d="M 75.25192 147.785977 
L 76.7488 136.409689 
" clip-path="url(#p9a44731051)" style="fill: none; stroke: #5dc863; stroke-opacity: 0.55; stroke-width: 0.5; stroke-linecap: square"/>
   </g>
   <g id="line2d_12">
    <path d="M 81.373798 143.721446 
L 82.870678 132.345158 
" clip-path="url(#p9a44731051)" style="fill: none; stroke: #5dc863; stroke-opacity: 0.55; stroke-width: 0.5; stroke-linecap: square"/>
   </g>
   <g id="line2d_13">
    <path d="M 70.150354 151.173086 
L 71.647234 139.796798 
" clip-path="url(#p9a44731051)" style="fill: none; stroke: #fde725; stroke-opacity: 0.55; stroke-width: 0.5; stroke-linecap: square"/>
   </g>
   <g id="line2d_14">
    <path d="M 71.82486 147.802537 
L 73.32174 136.426249 
" clip-path="url(#p9a44731051)" style="fill: none; stroke: #fde725; stroke-opacity: 0.55; stroke-width: 0.5; stroke-linecap: square"/>
   </g>
   <g id="line2d_15">
    <path d="M 73.080739 145.274626 
L 74.577619 133.898338 
" clip-path="url(#p9a44731051)" style="fill: none; stroke: #fde725; stroke-opacity: 0.55; stroke-width: 0.5; stroke-linecap: square"/>
   </g>
   <g id="patch_3">
    <path d="M 191.281562 185.32872 
L 293.069402 185.32872 
Q 300.553802 185.32872 300.553802 177.84432 
L 300.553802 76.05648 
Q 300.553802 68.57208 293.069402 68.57208 
L 191.281562 68.57208 
Q 183.797162 68.57208 183.797162 76.05648 
L 183.797162 177.84432 
Q 183.797162 185.32872 191.281562 185.32872 
z
" clip-path="url(#p9a44731051)" style="fill: #fff3e0; stroke: #a85d00; stroke-width: 1.5; stroke-linejoin: miter"/>
   </g>
   <g id="PathCollection_1">
    <defs>
     <path id="mc4617ef4e6" d="M 0 3.708099 
C 0.983399 3.708099 1.926654 3.317391 2.622022 2.622022 
C 3.317391 1.926654 3.708099 0.983399 3.708099 0 
C 3.708099 -0.983399 3.317391 -1.926654 2.622022 -2.622022 
C 1.926654 -3.317391 0.983399 -3.708099 0 -3.708099 
C -0.983399 -3.708099 -1.926654 -3.317391 -2.622022 -2.622022 
C -3.317391 -1.926654 -3.708099 -0.983399 -3.708099 0 
C -3.708099 0.983399 -3.317391 1.926654 -2.622022 2.622022 
C -1.926654 3.317391 -0.983399 3.708099 0 3.708099 
z
" style="stroke: #000000; stroke-width: 0.6"/>
    </defs>
    <g clip-path="url(#p9a44731051)">
     <use xlink:href="#mc4617ef4e6" x="38.599802" y="225.74448" style="fill: #3b528b; stroke: #000000; stroke-width: 0.6"/>
    </g>
   </g>
   <g id="PathCollection_2">
    <defs>
     <path id="mf6a10873c0" d="M 0 -4.1833 
L -4.1833 4.1833 
L 4.1833 4.1833 
z
" style="stroke: #000000; stroke-width: 0.6"/>
    </defs>
    <g clip-path="url(#p9a44731051)">
     <use xlink:href="#mf6a10873c0" x="38.599802" y="246.7008" style="fill: #5dc863; stroke: #000000; stroke-width: 0.6"/>
    </g>
   </g>
   <g id="PathCollection_3">
    <defs>
     <path id="m205d1ddc3d" d="M -4.031129 4.031129 
L 4.031129 4.031129 
L 4.031129 -4.031129 
L -4.031129 -4.031129 
z
" style="stroke: #000000; stroke-width: 0.6"/>
    </defs>
    <g clip-path="url(#p9a44731051)">
     <use xlink:href="#m205d1ddc3d" x="38.599802" y="267.65712" style="fill: #fde725; stroke: #000000; stroke-width: 0.6"/>
    </g>
   </g>
   <g id="line2d_16">
    <path d="M 67.814156 139.043314 
L 67.689784 138.682221 
L 67.540646 138.325641 
L 67.366834 137.97527 
L 67.168556 137.632811 
L 66.946134 137.299963 
L 66.700012 136.978415 
L 66.430747 136.669836 
L 66.139016 136.37587 
L 65.825608 136.098126 
L 65.491429 135.83817 
L 65.137494 135.597517 
L 64.764929 135.377624 
L 64.374961 135.179882 
L 63.968921 135.005607 
L 63.548238 134.856035 
L 63.114428 134.732314 
L 62.669097 134.6355 
L 62.213931 134.566544 
L 61.750688 134.526294 
L 61.281194 134.515485 
L 60.807336 134.534733 
L 60.331051 134.584536 
L 59.854323 134.665262 
L 59.379171 134.777153 
L 58.907641 134.920318 
L 58.4418 135.094728 
L 57.983723 135.300222 
L 57.535487 135.536498 
L 57.099161 135.803114 
L 56.676797 136.099493 
L 56.270418 136.424915 
L 55.882014 136.778526 
L 55.513528 137.159335 
L 55.166848 137.566218 
L 54.8438 137.997921 
L 54.546135 138.453063 
L 54.275524 138.930142 
L 54.03355 139.427538 
L 53.821695 139.943517 
L 53.641337 140.476242 
L 53.493741 141.023774 
L 53.380052 141.584083 
L 53.301286 142.155053 
L 53.258329 142.734491 
L 53.251925 143.320137 
L 53.282679 143.909668 
L 53.351042 144.500714 
L 53.457318 145.090861 
L 53.601651 145.677666 
L 53.78403 146.258663 
L 54.004283 146.831375 
L 54.262075 147.393327 
L 54.556911 147.942051 
L 54.88813 148.475102 
L 55.254913 148.990066 
L 55.65628 149.48457 
L 56.09109 149.956295 
L 56.558052 150.402985 
L 57.055717 150.822458 
L 57.582494 151.212615 
L 58.136647 151.571451 
L 58.716301 151.897065 
L 59.319454 152.187669 
L 59.943977 152.441596 
L 60.587625 152.657309 
L 61.248046 152.83341 
L 61.922786 152.968647 
L 62.609301 153.06192 
L 63.304967 153.11229 
L 64.007085 153.11898 
L 64.7129 153.081387 
L 65.419603 152.999082 
L 66.124348 152.871812 
L 66.824262 152.699511 
L 67.516455 152.482292 
L 68.198035 152.220458 
L 68.866115 151.914498 
L 69.517833 151.565086 
L 70.150354 151.173086 
" clip-path="url(#p9a44731051)" style="fill: none; stroke: #3b528b; stroke-width: 1.2; stroke-linecap: square"/>
   </g>
   <g id="line2d_17">
    <path d="M 70.150354 151.173086 
L 71.170668 150.495664 
L 72.190981 149.818242 
L 73.211294 149.14082 
L 74.231607 148.463399 
L 75.25192 147.785977 
L 76.272233 147.108555 
L 77.292546 146.431133 
L 78.312859 145.753712 
L 79.333172 145.07629 
L 80.353485 144.398868 
L 81.373798 143.721446 
" clip-path="url(#p9a44731051)" style="fill: none; stroke: #5dc863; stroke-width: 1.6; stroke-linecap: square"/>
   </g>
   <g id="line2d_18">
    <path d="M 70.150354 151.173086 
L 70.568981 150.330449 
L 70.987607 149.487812 
L 71.406233 148.645174 
L 71.82486 147.802537 
L 72.243486 146.9599 
L 72.662112 146.117263 
L 73.080739 145.274626 
" clip-path="url(#p9a44731051)" style="fill: none; stroke: #fde725; stroke-width: 1.6; stroke-linecap: square"/>
   </g>
   <g id="line2d_19">
    <path d="M 69.311036 127.667026 
L 69.186664 127.305933 
L 69.037526 126.949353 
L 68.863714 126.598982 
L 68.665436 126.256523 
L 68.443014 125.923675 
L 68.196892 125.602127 
L 67.927627 125.293548 
L 67.635896 124.999582 
L 67.322488 124.721838 
L 66.988309 124.461882 
L 66.634374 124.221229 
L 66.261809 124.001336 
L 65.871841 123.803594 
L 65.465801 123.629319 
L 65.045118 123.479747 
L 64.611308 123.356026 
L 64.165977 123.259212 
L 63.710811 123.190256 
L 63.247568 123.150006 
L 62.778074 123.139197 
L 62.304216 123.158445 
L 61.827931 123.208248 
L 61.351203 123.288974 
L 60.876051 123.400865 
L 60.404521 123.54403 
L 59.93868 123.71844 
L 59.480603 123.923934 
L 59.032367 124.16021 
L 58.596041 124.426826 
L 58.173677 124.723205 
L 57.767298 125.048627 
L 57.378894 125.402238 
L 57.010408 125.783047 
L 56.663728 126.18993 
L 56.34068 126.621633 
L 56.043015 127.076775 
L 55.772404 127.553854 
L 55.53043 128.05125 
L 55.318575 128.567229 
L 55.138217 129.099954 
L 54.990621 129.647486 
L 54.876932 130.207795 
L 54.798166 130.778765 
L 54.755209 131.358203 
L 54.748805 131.943849 
L 54.779559 132.53338 
L 54.847922 133.124426 
L 54.954198 133.714573 
L 55.098531 134.301378 
L 55.28091 134.882375 
L 55.501163 135.455087 
L 55.758955 136.017039 
L 56.053791 136.565763 
L 56.38501 137.098814 
L 56.751793 137.613778 
L 57.15316 138.108282 
L 57.58797 138.580007 
L 58.054932 139.026697 
L 58.552597 139.44617 
L 59.079374 139.836327 
L 59.633527 140.195163 
L 60.213181 140.520777 
L 60.816334 140.811381 
L 61.440857 141.065308 
L 62.084505 141.281021 
L 62.744926 141.457122 
L 63.419666 141.592359 
L 64.106181 141.685632 
L 64.801847 141.736002 
L 65.503965 141.742692 
L 66.20978 141.705099 
L 66.916483 141.622794 
L 67.621228 141.495524 
L 68.321142 141.323223 
L 69.013335 141.106004 
L 69.694915 140.84417 
L 70.362995 140.53821 
L 71.014713 140.188798 
L 71.647234 139.796798 
" clip-path="url(#p9a44731051)" style="fill: none; stroke: #3b528b; stroke-opacity: 0.65; stroke-linecap: square"/>
   </g>
   <g id="line2d_20">
    <path d="M 71.647234 139.796798 
L 72.667548 139.119376 
L 73.687861 138.441954 
L 74.708174 137.764532 
L 75.728487 137.087111 
L 76.7488 136.409689 
L 77.769113 135.732267 
L 78.789426 135.054845 
L 79.809739 134.377424 
L 80.830052 133.700002 
L 81.850365 133.02258 
L 82.870678 132.345158 
" clip-path="url(#p9a44731051)" style="fill: none; stroke: #5dc863; stroke-opacity: 0.65; stroke-width: 1.3; stroke-linecap: square"/>
   </g>
   <g id="line2d_21">
    <path d="M 71.647234 139.796798 
L 72.065861 138.954161 
L 72.484487 138.111524 
L 72.903113 137.268886 
L 73.32174 136.426249 
L 73.740366 135.583612 
L 74.158992 134.740975 
L 74.577619 133.898338 
" clip-path="url(#p9a44731051)" style="fill: none; stroke: #fde725; stroke-opacity: 0.65; stroke-width: 1.3; stroke-linecap: square"/>
   </g>
   <g id="line2d_22">
    <path d="M 235.464716 139.043314 
L 235.340344 138.682221 
L 235.191206 138.325641 
L 235.017394 137.97527 
L 234.819116 137.632811 
L 234.596694 137.299963 
L 234.350572 136.978415 
L 234.081307 136.669836 
L 233.789576 136.37587 
L 233.476168 136.098126 
L 233.141989 135.83817 
L 232.788054 135.597517 
L 232.415489 135.377624 
L 232.025521 135.179882 
L 231.619481 135.005607 
L 231.198798 134.856035 
L 230.764988 134.732314 
L 230.319657 134.6355 
L 229.864491 134.566544 
L 229.401248 134.526294 
L 228.931754 134.515485 
L 228.457896 134.534733 
L 227.981611 134.584536 
L 227.504883 134.665262 
L 227.029731 134.777153 
L 226.558201 134.920318 
L 226.09236 135.094728 
L 225.634283 135.300222 
L 225.186047 135.536498 
L 224.749721 135.803114 
L 224.327357 136.099493 
L 223.920978 136.424915 
L 223.532574 136.778526 
L 223.164088 137.159335 
L 222.817408 137.566218 
L 222.49436 137.997921 
L 222.196695 138.453063 
L 221.926084 138.930142 
L 221.68411 139.427538 
L 221.472255 139.943517 
L 221.291897 140.476242 
L 221.144301 141.023774 
L 221.030612 141.584083 
L 220.951846 142.155053 
L 220.908889 142.734491 
L 220.902485 143.320137 
L 220.933239 143.909668 
L 221.001602 144.500714 
L 221.107878 145.090861 
L 221.252211 145.677666 
L 221.43459 146.258663 
L 221.654843 146.831375 
L 221.912635 147.393327 
L 222.207471 147.942051 
L 222.53869 148.475102 
L 222.905473 148.990066 
L 223.30684 149.48457 
L 223.74165 149.956295 
L 224.208612 150.402985 
L 224.706277 150.822458 
L 225.233054 151.212615 
L 225.787207 151.571451 
L 226.366861 151.897065 
L 226.970014 152.187669 
L 227.594537 152.441596 
L 228.238185 152.657309 
L 228.898606 152.83341 
L 229.573346 152.968647 
L 230.259861 153.06192 
L 230.955527 153.11229 
L 231.657645 153.11898 
L 232.36346 153.081387 
L 233.070163 152.999082 
L 233.774908 152.871812 
L 234.474822 152.699511 
L 235.167015 152.482292 
L 235.848595 152.220458 
L 236.516675 151.914498 
L 237.168393 151.565086 
L 237.800914 151.173086 
" clip-path="url(#p9a44731051)" style="fill: none; stroke: #3b528b; stroke-width: 1.5; stroke-linecap: square"/>
   </g>
   <g id="line2d_23">
    <path d="M 237.800914 151.173086 
L 238.821228 150.495664 
L 239.841541 149.818242 
L 240.861854 149.14082 
L 241.882167 148.463399 
L 242.90248 147.785977 
L 243.922793 147.108555 
L 244.943106 146.431133 
L 245.963419 145.753712 
L 246.983732 145.07629 
L 248.004045 144.398868 
L 249.024358 143.721446 
" clip-path="url(#p9a44731051)" style="fill: none; stroke: #5dc863; stroke-width: 1.8; stroke-linecap: square"/>
   </g>
   <g id="line2d_24">
    <path d="M 237.800914 151.173086 
L 238.219541 150.330449 
L 238.638167 149.487812 
L 239.056793 148.645174 
L 239.47542 147.802537 
L 239.894046 146.9599 
L 240.312672 146.117263 
L 240.731299 145.274626 
" clip-path="url(#p9a44731051)" style="fill: none; stroke: #fde725; stroke-width: 1.8; stroke-linecap: square"/>
   </g>
   <g id="text_1">
    <!-- Experiment design -->
    <g transform="translate(84.317546 26.819092) scale(0.14 -0.14)">
     <defs>
      <path id="DejaVuSans-Bold-45" d="M 588 4666 
L 3834 4666 
L 3834 3756 
L 1791 3756 
L 1791 2888 
L 3713 2888 
L 3713 1978 
L 1791 1978 
L 1791 909 
L 3903 909 
L 3903 0 
L 588 0 
L 588 4666 
z
" transform="scale(0.015625)"/>
      <path id="DejaVuSans-Bold-78" d="M 1422 1791 
L 159 3500 
L 1344 3500 
L 2059 2463 
L 2784 3500 
L 3969 3500 
L 2706 1797 
L 4031 0 
L 2847 0 
L 2059 1106 
L 1281 0 
L 97 0 
L 1422 1791 
z
" transform="scale(0.015625)"/>
      <path id="DejaVuSans-Bold-70" d="M 1656 506 
L 1656 -1331 
L 538 -1331 
L 538 3500 
L 1656 3500 
L 1656 2988 
Q 1888 3294 2169 3439 
Q 2450 3584 2816 3584 
Q 3463 3584 3878 3070 
Q 4294 2556 4294 1747 
Q 4294 938 3878 423 
Q 3463 -91 2816 -91 
Q 2450 -91 2169 54 
Q 1888 200 1656 506 
z
M 2400 2772 
Q 2041 2772 1848 2508 
Q 1656 2244 1656 1747 
Q 1656 1250 1848 986 
Q 2041 722 2400 722 
Q 2759 722 2948 984 
Q 3138 1247 3138 1747 
Q 3138 2247 2948 2509 
Q 2759 2772 2400 2772 
z
" transform="scale(0.015625)"/>
      <path id="DejaVuSans-Bold-65" d="M 4031 1759 
L 4031 1441 
L 1416 1441 
Q 1456 1047 1700 850 
Q 1944 653 2381 653 
Q 2734 653 3104 758 
Q 3475 863 3866 1075 
L 3866 213 
Q 3469 63 3072 -14 
Q 2675 -91 2278 -91 
Q 1328 -91 801 392 
Q 275 875 275 1747 
Q 275 2603 792 3093 
Q 1309 3584 2216 3584 
Q 3041 3584 3536 3087 
Q 4031 2591 4031 1759 
z
M 2881 2131 
Q 2881 2450 2695 2645 
Q 2509 2841 2209 2841 
Q 1884 2841 1681 2658 
Q 1478 2475 1428 2131 
L 2881 2131 
z
" transform="scale(0.015625)"/>
      <path id="DejaVuSans-Bold-72" d="M 3138 2547 
Q 2991 2616 2845 2648 
Q 2700 2681 2553 2681 
Q 2122 2681 1889 2404 
Q 1656 2128 1656 1613 
L 1656 0 
L 538 0 
L 538 3500 
L 1656 3500 
L 1656 2925 
Q 1872 3269 2151 3426 
Q 2431 3584 2822 3584 
Q 2878 3584 2943 3579 
Q 3009 3575 3134 3559 
L 3138 2547 
z
" transform="scale(0.015625)"/>
      <path id="DejaVuSans-Bold-69" d="M 538 3500 
L 1656 3500 
L 1656 0 
L 538 0 
L 538 3500 
z
M 538 4863 
L 1656 4863 
L 1656 3950 
L 538 3950 
L 538 4863 
z
" transform="scale(0.015625)"/>
      <path id="DejaVuSans-Bold-6d" d="M 3781 2919 
Q 3994 3244 4286 3414 
Q 4578 3584 4928 3584 
Q 5531 3584 5847 3212 
Q 6163 2841 6163 2131 
L 6163 0 
L 5038 0 
L 5038 1825 
Q 5041 1866 5042 1909 
Q 5044 1953 5044 2034 
Q 5044 2406 4934 2573 
Q 4825 2741 4581 2741 
Q 4263 2741 4089 2478 
Q 3916 2216 3909 1719 
L 3909 0 
L 2784 0 
L 2784 1825 
Q 2784 2406 2684 2573 
Q 2584 2741 2328 2741 
Q 2006 2741 1831 2477 
Q 1656 2213 1656 1722 
L 1656 0 
L 531 0 
L 531 3500 
L 1656 3500 
L 1656 2988 
Q 1863 3284 2130 3434 
Q 2397 3584 2719 3584 
Q 3081 3584 3359 3409 
Q 3638 3234 3781 2919 
z
" transform="scale(0.015625)"/>
      <path id="DejaVuSans-Bold-6e" d="M 4056 2131 
L 4056 0 
L 2931 0 
L 2931 347 
L 2931 1631 
Q 2931 2084 2911 2256 
Q 2891 2428 2841 2509 
Q 2775 2619 2662 2680 
Q 2550 2741 2406 2741 
Q 2056 2741 1856 2470 
Q 1656 2200 1656 1722 
L 1656 0 
L 538 0 
L 538 3500 
L 1656 3500 
L 1656 2988 
Q 1909 3294 2193 3439 
Q 2478 3584 2822 3584 
Q 3428 3584 3742 3212 
Q 4056 2841 4056 2131 
z
" transform="scale(0.015625)"/>
      <path id="DejaVuSans-Bold-74" d="M 1759 4494 
L 1759 3500 
L 2913 3500 
L 2913 2700 
L 1759 2700 
L 1759 1216 
Q 1759 972 1856 886 
Q 1953 800 2241 800 
L 2816 800 
L 2816 0 
L 1856 0 
Q 1194 0 917 276 
Q 641 553 641 1216 
L 641 2700 
L 84 2700 
L 84 3500 
L 641 3500 
L 641 4494 
L 1759 4494 
z
" transform="scale(0.015625)"/>
      <path id="DejaVuSans-Bold-20" transform="scale(0.015625)"/>
      <path id="DejaVuSans-Bold-64" d="M 2919 2988 
L 2919 4863 
L 4044 4863 
L 4044 0 
L 2919 0 
L 2919 506 
Q 2688 197 2409 53 
Q 2131 -91 1766 -91 
Q 1119 -91 703 423 
Q 288 938 288 1747 
Q 288 2556 703 3070 
Q 1119 3584 1766 3584 
Q 2128 3584 2408 3439 
Q 2688 3294 2919 2988 
z
M 2181 722 
Q 2541 722 2730 984 
Q 2919 1247 2919 1747 
Q 2919 2247 2730 2509 
Q 2541 2772 2181 2772 
Q 1825 2772 1636 2509 
Q 1447 2247 1447 1747 
Q 1447 1247 1636 984 
Q 1825 722 2181 722 
z
" transform="scale(0.015625)"/>
      <path id="DejaVuSans-Bold-73" d="M 3272 3391 
L 3272 2541 
Q 2913 2691 2578 2766 
Q 2244 2841 1947 2841 
Q 1628 2841 1473 2761 
Q 1319 2681 1319 2516 
Q 1319 2381 1436 2309 
Q 1553 2238 1856 2203 
L 2053 2175 
Q 2913 2066 3209 1816 
Q 3506 1566 3506 1031 
Q 3506 472 3093 190 
Q 2681 -91 1863 -91 
Q 1516 -91 1145 -36 
Q 775 19 384 128 
L 384 978 
Q 719 816 1070 734 
Q 1422 653 1784 653 
Q 2113 653 2278 743 
Q 2444 834 2444 1013 
Q 2444 1163 2330 1236 
Q 2216 1309 1875 1350 
L 1678 1375 
Q 931 1469 631 1722 
Q 331 1975 331 2491 
Q 331 3047 712 3315 
Q 1094 3584 1881 3584 
Q 2191 3584 2531 3537 
Q 2872 3491 3272 3391 
z
" transform="scale(0.015625)"/>
      <path id="DejaVuSans-Bold-67" d="M 2919 594 
Q 2688 288 2409 144 
Q 2131 0 1766 0 
Q 1125 0 706 504 
Q 288 1009 288 1791 
Q 288 2575 706 3076 
Q 1125 3578 1766 3578 
Q 2131 3578 2409 3434 
Q 2688 3291 2919 2981 
L 2919 3500 
L 4044 3500 
L 4044 353 
Q 4044 -491 3511 -936 
Q 2978 -1381 1966 -1381 
Q 1638 -1381 1331 -1331 
Q 1025 -1281 716 -1178 
L 716 -306 
Q 1009 -475 1290 -558 
Q 1572 -641 1856 -641 
Q 2406 -641 2662 -400 
Q 2919 -159 2919 353 
L 2919 594 
z
M 2181 2772 
Q 1834 2772 1640 2515 
Q 1447 2259 1447 1791 
Q 1447 1309 1634 1061 
Q 1822 813 2181 813 
Q 2531 813 2725 1069 
Q 2919 1325 2919 1791 
Q 2919 2259 2725 2515 
Q 2531 2772 2181 2772 
z
" transform="scale(0.015625)"/>
     </defs>
     <use xlink:href="#DejaVuSans-Bold-45"/>
     <use xlink:href="#DejaVuSans-Bold-78" transform="translate(68.310547 0)"/>
     <use xlink:href="#DejaVuSans-Bold-70" transform="translate(132.8125 0)"/>
     <use xlink:href="#DejaVuSans-Bold-65" transform="translate(204.394531 0)"/>
     <use xlink:href="#DejaVuSans-Bold-72" transform="translate(272.216797 0)"/>
     <use xlink:href="#DejaVuSans-Bold-69" transform="translate(321.533203 0)"/>
     <use xlink:href="#DejaVuSans-Bold-6d" transform="translate(355.810547 0)"/>
     <use xlink:href="#DejaVuSans-Bold-65" transform="translate(460.009766 0)"/>
     <use xlink:href="#DejaVuSans-Bold-6e" transform="translate(527.832031 0)"/>
     <use xlink:href="#DejaVuSans-Bold-74" transform="translate(599.023438 0)"/>
     <use xlink:href="#DejaVuSans-Bold-20" transform="translate(646.826172 0)"/>
     <use xlink:href="#DejaVuSans-Bold-64" transform="translate(681.640625 0)"/>
     <use xlink:href="#DejaVuSans-Bold-65" transform="translate(753.222656 0)"/>
     <use xlink:href="#DejaVuSans-Bold-73" transform="translate(821.044922 0)"/>
     <use xlink:href="#DejaVuSans-Bold-69" transform="translate(880.566406 0)"/>
     <use xlink:href="#DejaVuSans-Bold-67" transform="translate(914.84375 0)"/>
     <use xlink:href="#DejaVuSans-Bold-6e" transform="translate(986.425781 0)"/>
    </g>
   </g>
   <g id="text_2">
    <!-- Asymmetric Y-fork alignment   (3D → 2D) -->
    <g style="fill: #444444" transform="translate(55.915827 44.736037) scale(0.1 -0.1)">
     <defs>
      <path id="DejaVuSans-Oblique-41" d="M 2356 4666 
L 3072 4666 
L 3938 0 
L 3278 0 
L 3084 1197 
L 984 1197 
L 325 0 
L -341 0 
L 2356 4666 
z
M 2584 4044 
L 1275 1722 
L 2988 1722 
L 2584 4044 
z
" transform="scale(0.015625)"/>
      <path id="DejaVuSans-Oblique-73" d="M 3200 3397 
L 3091 2853 
Q 2863 2978 2609 3040 
Q 2356 3103 2088 3103 
Q 1634 3103 1373 2948 
Q 1113 2794 1113 2528 
Q 1113 2219 1719 2053 
Q 1766 2041 1788 2034 
L 1972 1978 
Q 2547 1819 2739 1644 
Q 2931 1469 2931 1166 
Q 2931 609 2489 259 
Q 2047 -91 1331 -91 
Q 1053 -91 747 -37 
Q 441 16 72 128 
L 184 722 
Q 500 559 806 475 
Q 1113 391 1394 391 
Q 1816 391 2080 572 
Q 2344 753 2344 1031 
Q 2344 1331 1650 1516 
L 1591 1531 
L 1394 1581 
Q 956 1697 753 1886 
Q 550 2075 550 2369 
Q 550 2928 970 3256 
Q 1391 3584 2113 3584 
Q 2397 3584 2667 3537 
Q 2938 3491 3200 3397 
z
" transform="scale(0.015625)"/>
      <path id="DejaVuSans-Oblique-79" d="M 1588 -325 
Q 1188 -997 936 -1164 
Q 684 -1331 294 -1331 
L -159 -1331 
L -63 -850 
L 269 -850 
Q 509 -850 678 -719 
Q 847 -588 1056 -206 
L 1234 128 
L 459 3500 
L 1069 3500 
L 1650 819 
L 3256 3500 
L 3859 3500 
L 1588 -325 
z
" transform="scale(0.015625)"/>
      <path id="DejaVuSans-Oblique-6d" d="M 5747 2113 
L 5338 0 
L 4763 0 
L 5166 2094 
Q 5191 2228 5203 2325 
Q 5216 2422 5216 2491 
Q 5216 2772 5059 2928 
Q 4903 3084 4622 3084 
Q 4203 3084 3875 2770 
Q 3547 2456 3450 1953 
L 3066 0 
L 2491 0 
L 2900 2094 
Q 2925 2209 2937 2307 
Q 2950 2406 2950 2484 
Q 2950 2769 2794 2926 
Q 2638 3084 2363 3084 
Q 1938 3084 1609 2770 
Q 1281 2456 1184 1953 
L 800 0 
L 225 0 
L 909 3500 
L 1484 3500 
L 1375 2956 
Q 1609 3263 1923 3423 
Q 2238 3584 2597 3584 
Q 2978 3584 3223 3384 
Q 3469 3184 3519 2828 
Q 3781 3197 4126 3390 
Q 4472 3584 4856 3584 
Q 5306 3584 5551 3325 
Q 5797 3066 5797 2591 
Q 5797 2488 5784 2364 
Q 5772 2241 5747 2113 
z
" transform="scale(0.015625)"/>
      <path id="DejaVuSans-Oblique-65" d="M 3078 2063 
Q 3088 2113 3092 2166 
Q 3097 2219 3097 2272 
Q 3097 2653 2873 2875 
Q 2650 3097 2266 3097 
Q 1838 3097 1509 2826 
Q 1181 2556 1013 2059 
L 3078 2063 
z
M 3578 1613 
L 903 1613 
Q 884 1494 878 1425 
Q 872 1356 872 1306 
Q 872 872 1139 634 
Q 1406 397 1894 397 
Q 2269 397 2603 481 
Q 2938 566 3225 728 
L 3116 159 
Q 2806 34 2476 -28 
Q 2147 -91 1806 -91 
Q 1078 -91 686 257 
Q 294 606 294 1247 
Q 294 1794 489 2264 
Q 684 2734 1063 3103 
Q 1306 3334 1642 3459 
Q 1978 3584 2356 3584 
Q 2950 3584 3301 3228 
Q 3653 2872 3653 2272 
Q 3653 2128 3634 1964 
Q 3616 1800 3578 1613 
z
" transform="scale(0.015625)"/>
      <path id="DejaVuSans-Oblique-74" d="M 2706 3500 
L 2619 3053 
L 1472 3053 
L 1100 1153 
Q 1081 1047 1072 975 
Q 1063 903 1063 863 
Q 1063 663 1183 572 
Q 1303 481 1569 481 
L 2150 481 
L 2053 0 
L 1503 0 
Q 991 0 739 200 
Q 488 400 488 806 
Q 488 878 497 964 
Q 506 1050 525 1153 
L 897 3053 
L 409 3053 
L 500 3500 
L 978 3500 
L 1172 4494 
L 1747 4494 
L 1556 3500 
L 2706 3500 
z
" transform="scale(0.015625)"/>
      <path id="DejaVuSans-Oblique-72" d="M 2853 2969 
Q 2766 3016 2653 3041 
Q 2541 3066 2413 3066 
Q 1953 3066 1609 2717 
Q 1266 2369 1153 1784 
L 800 0 
L 225 0 
L 909 3500 
L 1484 3500 
L 1375 2956 
Q 1603 3259 1920 3421 
Q 2238 3584 2597 3584 
Q 2691 3584 2781 3573 
Q 2872 3563 2963 3538 
L 2853 2969 
z
" transform="scale(0.015625)"/>
      <path id="DejaVuSans-Oblique-69" d="M 1172 4863 
L 1747 4863 
L 1606 4134 
L 1031 4134 
L 1172 4863 
z
M 909 3500 
L 1484 3500 
L 800 0 
L 225 0 
L 909 3500 
z
" transform="scale(0.015625)"/>
      <path id="DejaVuSans-Oblique-63" d="M 3431 3366 
L 3316 2797 
Q 3109 2947 2876 3022 
Q 2644 3097 2394 3097 
Q 2119 3097 1870 3000 
Q 1622 2903 1453 2725 
Q 1184 2453 1037 2087 
Q 891 1722 891 1331 
Q 891 859 1127 628 
Q 1363 397 1844 397 
Q 2081 397 2348 469 
Q 2616 541 2906 684 
L 2797 116 
Q 2547 13 2283 -39 
Q 2019 -91 1741 -91 
Q 1044 -91 669 257 
Q 294 606 294 1253 
Q 294 1797 489 2255 
Q 684 2713 1069 3078 
Q 1331 3328 1684 3456 
Q 2038 3584 2456 3584 
Q 2700 3584 2940 3529 
Q 3181 3475 3431 3366 
z
" transform="scale(0.015625)"/>
      <path id="DejaVuSans-Oblique-20" transform="scale(0.015625)"/>
      <path id="DejaVuSans-Oblique-59" d="M 403 4666 
L 1081 4666 
L 1953 2747 
L 3616 4666 
L 4325 4666 
L 2209 2222 
L 1778 0 
L 1147 0 
L 1575 2222 
L 403 4666 
z
" transform="scale(0.015625)"/>
      <path id="DejaVuSans-Oblique-2d" d="M 391 2009 
L 2075 2009 
L 1978 1497 
L 288 1497 
L 391 2009 
z
" transform="scale(0.015625)"/>
      <path id="DejaVuSans-Oblique-66" d="M 3059 4863 
L 2969 4384 
L 2419 4384 
Q 2106 4384 1964 4261 
Q 1822 4138 1753 3809 
L 1691 3500 
L 2638 3500 
L 2553 3053 
L 1606 3053 
L 1013 0 
L 434 0 
L 1031 3053 
L 481 3053 
L 563 3500 
L 1113 3500 
L 1159 3744 
Q 1278 4363 1576 4613 
Q 1875 4863 2516 4863 
L 3059 4863 
z
" transform="scale(0.015625)"/>
      <path id="DejaVuSans-Oblique-6f" d="M 1625 -91 
Q 1009 -91 651 289 
Q 294 669 294 1325 
Q 294 1706 417 2101 
Q 541 2497 738 2766 
Q 1047 3184 1428 3384 
Q 1809 3584 2291 3584 
Q 2888 3584 3255 3212 
Q 3622 2841 3622 2241 
Q 3622 1825 3500 1412 
Q 3378 1000 3181 728 
Q 2875 309 2494 109 
Q 2113 -91 1625 -91 
z
M 891 1344 
Q 891 869 1089 633 
Q 1288 397 1691 397 
Q 2269 397 2648 901 
Q 3028 1406 3028 2181 
Q 3028 2634 2825 2865 
Q 2622 3097 2228 3097 
Q 1903 3097 1650 2945 
Q 1397 2794 1197 2484 
Q 1050 2253 970 1956 
Q 891 1659 891 1344 
z
" transform="scale(0.015625)"/>
      <path id="DejaVuSans-Oblique-6b" d="M 1172 4863 
L 1747 4863 
L 1197 2028 
L 3169 3500 
L 3916 3500 
L 1716 1825 
L 3322 0 
L 2625 0 
L 1131 1709 
L 800 0 
L 225 0 
L 1172 4863 
z
" transform="scale(0.015625)"/>
      <path id="DejaVuSans-Oblique-61" d="M 3438 1997 
L 3047 0 
L 2472 0 
L 2578 531 
Q 2325 219 2001 64 
Q 1678 -91 1281 -91 
Q 834 -91 548 182 
Q 263 456 263 884 
Q 263 1497 752 1853 
Q 1241 2209 2100 2209 
L 2900 2209 
L 2931 2363 
Q 2938 2388 2941 2417 
Q 2944 2447 2944 2509 
Q 2944 2788 2717 2942 
Q 2491 3097 2081 3097 
Q 1800 3097 1504 3025 
Q 1209 2953 897 2809 
L 997 3341 
Q 1322 3463 1633 3523 
Q 1944 3584 2234 3584 
Q 2853 3584 3176 3315 
Q 3500 3047 3500 2534 
Q 3500 2431 3484 2292 
Q 3469 2153 3438 1997 
z
M 2816 1759 
L 2241 1759 
Q 1534 1759 1195 1570 
Q 856 1381 856 984 
Q 856 709 1029 553 
Q 1203 397 1509 397 
Q 1978 397 2328 733 
Q 2678 1069 2791 1631 
L 2816 1759 
z
" transform="scale(0.015625)"/>
      <path id="DejaVuSans-Oblique-6c" d="M 1172 4863 
L 1747 4863 
L 800 0 
L 225 0 
L 1172 4863 
z
" transform="scale(0.015625)"/>
      <path id="DejaVuSans-Oblique-67" d="M 3816 3500 
L 3219 434 
Q 3047 -456 2561 -893 
Q 2075 -1331 1253 -1331 
Q 950 -1331 690 -1286 
Q 431 -1241 206 -1147 
L 313 -588 
Q 525 -725 762 -790 
Q 1000 -856 1269 -856 
Q 1816 -856 2167 -557 
Q 2519 -259 2631 300 
L 2681 563 
Q 2441 288 2122 144 
Q 1803 0 1434 0 
Q 903 0 598 351 
Q 294 703 294 1319 
Q 294 1803 478 2267 
Q 663 2731 997 3091 
Q 1219 3328 1514 3456 
Q 1809 3584 2131 3584 
Q 2484 3584 2746 3420 
Q 3009 3256 3138 2956 
L 3238 3500 
L 3816 3500 
z
M 2950 2216 
Q 2950 2641 2750 2872 
Q 2550 3103 2181 3103 
Q 1953 3103 1747 3012 
Q 1541 2922 1394 2759 
Q 1156 2491 1023 2127 
Q 891 1763 891 1375 
Q 891 944 1092 712 
Q 1294 481 1672 481 
Q 2219 481 2584 976 
Q 2950 1472 2950 2216 
z
" transform="scale(0.015625)"/>
      <path id="DejaVuSans-Oblique-6e" d="M 3566 2113 
L 3156 0 
L 2578 0 
L 2988 2091 
Q 3016 2238 3031 2350 
Q 3047 2463 3047 2528 
Q 3047 2791 2881 2937 
Q 2716 3084 2419 3084 
Q 1956 3084 1622 2776 
Q 1288 2469 1184 1941 
L 800 0 
L 225 0 
L 903 3500 
L 1478 3500 
L 1363 2950 
Q 1603 3253 1940 3418 
Q 2278 3584 2650 3584 
Q 3113 3584 3367 3334 
Q 3622 3084 3622 2631 
Q 3622 2519 3608 2391 
Q 3594 2263 3566 2113 
z
" transform="scale(0.015625)"/>
      <path id="DejaVuSans-Oblique-28" d="M 2731 4856 
Q 1903 3822 1495 2892 
Q 1088 1963 1088 1100 
Q 1088 606 1206 120 
Q 1325 -366 1563 -844 
L 1063 -844 
Q 775 -306 634 201 
Q 494 709 494 1197 
Q 494 2125 923 3036 
Q 1353 3947 2222 4856 
L 2731 4856 
z
" transform="scale(0.015625)"/>
      <path id="DejaVuSans-Oblique-33" d="M 1013 4550 
Q 1356 4650 1679 4700 
Q 2003 4750 2316 4750 
Q 2934 4750 3296 4475 
Q 3659 4200 3659 3738 
Q 3659 3284 3373 2959 
Q 3088 2634 2584 2516 
Q 2978 2403 3162 2165 
Q 3347 1928 3347 1538 
Q 3347 1163 3167 834 
Q 2988 506 2650 269 
Q 2394 88 2037 -1 
Q 1681 -91 1216 -91 
Q 922 -91 622 -33 
Q 322 25 13 141 
L 128 738 
Q 422 575 720 495 
Q 1019 416 1331 416 
Q 1947 416 2330 733 
Q 2713 1050 2713 1556 
Q 2713 1881 2469 2057 
Q 2225 2234 1772 2234 
L 1228 2234 
L 1325 2747 
L 1900 2747 
Q 2419 2747 2717 2984 
Q 3016 3222 3016 3628 
Q 3016 3922 2797 4083 
Q 2578 4244 2181 4244 
Q 1881 4244 1567 4180 
Q 1253 4116 916 3988 
L 1013 4550 
z
" transform="scale(0.015625)"/>
      <path id="DejaVuSans-Oblique-44" d="M 1081 4666 
L 2438 4666 
Q 3519 4666 4070 4208 
Q 4622 3750 4622 2847 
Q 4622 2250 4412 1698 
Q 4203 1147 3834 769 
Q 3463 381 2891 190 
Q 2319 0 1538 0 
L 172 0 
L 1081 4666 
z
M 1613 4147 
L 909 519 
L 1734 519 
Q 2794 519 3375 1128 
Q 3956 1738 3956 2847 
Q 3956 3519 3581 3833 
Q 3206 4147 2406 4147 
L 1613 4147 
z
" transform="scale(0.015625)"/>
      <path id="DejaVuSans-Oblique-2192" d="M 5050 2147 
L 5050 1866 
L 3822 638 
L 3447 1013 
L 4175 1741 
L 366 1741 
L 366 2272 
L 4175 2272 
L 3447 3000 
L 3822 3375 
L 5050 2147 
z
" transform="scale(0.015625)"/>
      <path id="DejaVuSans-Oblique-32" d="M 2950 2253 
L 934 525 
L 3163 525 
L 3053 0 
L 25 0 
L 128 531 
L 2234 2338 
Q 2656 2703 2832 2979 
Q 3009 3256 3009 3547 
Q 3009 3850 2796 4040 
Q 2584 4231 2241 4231 
Q 1944 4231 1581 4125 
Q 1219 4019 806 3816 
L 922 4441 
Q 1309 4594 1662 4672 
Q 2016 4750 2316 4750 
Q 2928 4750 3301 4425 
Q 3675 4100 3675 3572 
Q 3675 3216 3497 2892 
Q 3319 2569 2950 2253 
z
" transform="scale(0.015625)"/>
      <path id="DejaVuSans-Oblique-29" d="M -397 -844 
Q 434 191 840 1120 
Q 1247 2050 1247 2913 
Q 1247 3406 1130 3892 
Q 1013 4378 775 4856 
L 1275 4856 
Q 1563 4316 1703 3812 
Q 1844 3309 1844 2822 
Q 1844 1891 1411 973 
Q 978 56 116 -844 
L -397 -844 
z
" transform="scale(0.015625)"/>
     </defs>
     <use xlink:href="#DejaVuSans-Oblique-41"/>
     <use xlink:href="#DejaVuSans-Oblique-73" transform="translate(68.408203 0)"/>
     <use xlink:href="#DejaVuSans-Oblique-79" transform="translate(120.507812 0)"/>
     <use xlink:href="#DejaVuSans-Oblique-6d" transform="translate(179.6875 0)"/>
     <use xlink:href="#DejaVuSans-Oblique-6d" transform="translate(277.099609 0)"/>
     <use xlink:href="#DejaVuSans-Oblique-65" transform="translate(374.511719 0)"/>
     <use xlink:href="#DejaVuSans-Oblique-74" transform="translate(436.035156 0)"/>
     <use xlink:href="#DejaVuSans-Oblique-72" transform="translate(475.244141 0)"/>
     <use xlink:href="#DejaVuSans-Oblique-69" transform="translate(516.357422 0)"/>
     <use xlink:href="#DejaVuSans-Oblique-63" transform="translate(544.140625 0)"/>
     <use xlink:href="#DejaVuSans-Oblique-20" transform="translate(599.121094 0)"/>
     <use xlink:href="#DejaVuSans-Oblique-59" transform="translate(630.908203 0)"/>
     <use xlink:href="#DejaVuSans-Oblique-2d" transform="translate(678.242188 0)"/>
     <use xlink:href="#DejaVuSans-Oblique-66" transform="translate(714.326172 0)"/>
     <use xlink:href="#DejaVuSans-Oblique-6f" transform="translate(749.53125 0)"/>
     <use xlink:href="#DejaVuSans-Oblique-72" transform="translate(810.712891 0)"/>
     <use xlink:href="#DejaVuSans-Oblique-6b" transform="translate(851.826172 0)"/>
     <use xlink:href="#DejaVuSans-Oblique-20" transform="translate(909.736328 0)"/>
     <use xlink:href="#DejaVuSans-Oblique-61" transform="translate(941.523438 0)"/>
     <use xlink:href="#DejaVuSans-Oblique-6c" transform="translate(1002.802734 0)"/>
     <use xlink:href="#DejaVuSans-Oblique-69" transform="translate(1030.585938 0)"/>
     <use xlink:href="#DejaVuSans-Oblique-67" transform="translate(1058.369141 0)"/>
     <use xlink:href="#DejaVuSans-Oblique-6e" transform="translate(1121.845703 0)"/>
     <use xlink:href="#DejaVuSans-Oblique-6d" transform="translate(1185.224609 0)"/>
     <use xlink:href="#DejaVuSans-Oblique-65" transform="translate(1282.636719 0)"/>
     <use xlink:href="#DejaVuSans-Oblique-6e" transform="translate(1344.160156 0)"/>
     <use xlink:href="#DejaVuSans-Oblique-74" transform="translate(1407.539062 0)"/>
     <use xlink:href="#DejaVuSans-Oblique-20" transform="translate(1446.748047 0)"/>
     <use xlink:href="#DejaVuSans-Oblique-20" transform="translate(1478.535156 0)"/>
     <use xlink:href="#DejaVuSans-Oblique-20" transform="translate(1510.322266 0)"/>
     <use xlink:href="#DejaVuSans-Oblique-28" transform="translate(1542.109375 0)"/>
     <use xlink:href="#DejaVuSans-Oblique-33" transform="translate(1581.123047 0)"/>
     <use xlink:href="#DejaVuSans-Oblique-44" transform="translate(1644.746094 0)"/>
     <use xlink:href="#DejaVuSans-Oblique-20" transform="translate(1721.748047 0)"/>
     <use xlink:href="#DejaVuSans-Oblique-2192" transform="translate(1753.535156 0)"/>
     <use xlink:href="#DejaVuSans-Oblique-20" transform="translate(1837.324219 0)"/>
     <use xlink:href="#DejaVuSans-Oblique-32" transform="translate(1869.111328 0)"/>
     <use xlink:href="#DejaVuSans-Oblique-44" transform="translate(1932.734375 0)"/>
     <use xlink:href="#DejaVuSans-Oblique-29" transform="translate(2009.736328 0)"/>
    </g>
   </g>
   <g id="text_3">
    <!-- 3D source -->
    <g style="fill: #1f4e79" transform="translate(43.547031 93.396041) scale(0.11 -0.11)">
     <defs>
      <path id="DejaVuSans-Bold-33" d="M 2981 2516 
Q 3453 2394 3698 2092 
Q 3944 1791 3944 1325 
Q 3944 631 3412 270 
Q 2881 -91 1863 -91 
Q 1503 -91 1142 -33 
Q 781 25 428 141 
L 428 1069 
Q 766 900 1098 814 
Q 1431 728 1753 728 
Q 2231 728 2486 893 
Q 2741 1059 2741 1369 
Q 2741 1688 2480 1852 
Q 2219 2016 1709 2016 
L 1228 2016 
L 1228 2791 
L 1734 2791 
Q 2188 2791 2409 2933 
Q 2631 3075 2631 3366 
Q 2631 3634 2415 3781 
Q 2200 3928 1806 3928 
Q 1516 3928 1219 3862 
Q 922 3797 628 3669 
L 628 4550 
Q 984 4650 1334 4700 
Q 1684 4750 2022 4750 
Q 2931 4750 3382 4451 
Q 3834 4153 3834 3553 
Q 3834 3144 3618 2883 
Q 3403 2622 2981 2516 
z
" transform="scale(0.015625)"/>
      <path id="DejaVuSans-Bold-44" d="M 1791 3756 
L 1791 909 
L 2222 909 
Q 2959 909 3348 1275 
Q 3738 1641 3738 2338 
Q 3738 3031 3350 3393 
Q 2963 3756 2222 3756 
L 1791 3756 
z
M 588 4666 
L 1856 4666 
Q 2919 4666 3439 4514 
Q 3959 4363 4331 4000 
Q 4659 3684 4818 3271 
Q 4978 2859 4978 2338 
Q 4978 1809 4818 1395 
Q 4659 981 4331 666 
Q 3956 303 3431 151 
Q 2906 0 1856 0 
L 588 0 
L 588 4666 
z
" transform="scale(0.015625)"/>
      <path id="DejaVuSans-Bold-6f" d="M 2203 2784 
Q 1831 2784 1636 2517 
Q 1441 2250 1441 1747 
Q 1441 1244 1636 976 
Q 1831 709 2203 709 
Q 2569 709 2762 976 
Q 2956 1244 2956 1747 
Q 2956 2250 2762 2517 
Q 2569 2784 2203 2784 
z
M 2203 3584 
Q 3106 3584 3614 3096 
Q 4122 2609 4122 1747 
Q 4122 884 3614 396 
Q 3106 -91 2203 -91 
Q 1297 -91 786 396 
Q 275 884 275 1747 
Q 275 2609 786 3096 
Q 1297 3584 2203 3584 
z
" transform="scale(0.015625)"/>
      <path id="DejaVuSans-Bold-75" d="M 500 1363 
L 500 3500 
L 1625 3500 
L 1625 3150 
Q 1625 2866 1622 2436 
Q 1619 2006 1619 1863 
Q 1619 1441 1641 1255 
Q 1663 1069 1716 984 
Q 1784 875 1895 815 
Q 2006 756 2150 756 
Q 2500 756 2700 1025 
Q 2900 1294 2900 1772 
L 2900 3500 
L 4019 3500 
L 4019 0 
L 2900 0 
L 2900 506 
Q 2647 200 2364 54 
Q 2081 -91 1741 -91 
Q 1134 -91 817 281 
Q 500 653 500 1363 
z
" transform="scale(0.015625)"/>
      <path id="DejaVuSans-Bold-63" d="M 3366 3391 
L 3366 2478 
Q 3138 2634 2908 2709 
Q 2678 2784 2431 2784 
Q 1963 2784 1702 2511 
Q 1441 2238 1441 1747 
Q 1441 1256 1702 982 
Q 1963 709 2431 709 
Q 2694 709 2930 787 
Q 3166 866 3366 1019 
L 3366 103 
Q 3103 6 2833 -42 
Q 2563 -91 2291 -91 
Q 1344 -91 809 395 
Q 275 881 275 1747 
Q 275 2613 809 3098 
Q 1344 3584 2291 3584 
Q 2566 3584 2833 3536 
Q 3100 3488 3366 3391 
z
" transform="scale(0.015625)"/>
     </defs>
     <use xlink:href="#DejaVuSans-Bold-33"/>
     <use xlink:href="#DejaVuSans-Bold-44" transform="translate(69.580078 0)"/>
     <use xlink:href="#DejaVuSans-Bold-20" transform="translate(152.587891 0)"/>
     <use xlink:href="#DejaVuSans-Bold-73" transform="translate(187.402344 0)"/>
     <use xlink:href="#DejaVuSans-Bold-6f" transform="translate(246.923828 0)"/>
     <use xlink:href="#DejaVuSans-Bold-75" transform="translate(315.625 0)"/>
     <use xlink:href="#DejaVuSans-Bold-72" transform="translate(386.816406 0)"/>
     <use xlink:href="#DejaVuSans-Bold-63" transform="translate(436.132812 0)"/>
     <use xlink:href="#DejaVuSans-Bold-65" transform="translate(495.410156 0)"/>
    </g>
   </g>
   <g id="text_4">
    <!-- Y-fork Swiss roll -->
    <g style="fill: #1f4e79" transform="translate(39.555703 106.845154) scale(0.09 -0.09)">
     <defs>
      <path id="DejaVuSans-59" d="M -13 4666 
L 666 4666 
L 1959 2747 
L 3244 4666 
L 3922 4666 
L 2272 2222 
L 2272 0 
L 1638 0 
L 1638 2222 
L -13 4666 
z
" transform="scale(0.015625)"/>
      <path id="DejaVuSans-2d" d="M 313 2009 
L 1997 2009 
L 1997 1497 
L 313 1497 
L 313 2009 
z
" transform="scale(0.015625)"/>
      <path id="DejaVuSans-66" d="M 2375 4863 
L 2375 4384 
L 1825 4384 
Q 1516 4384 1395 4259 
Q 1275 4134 1275 3809 
L 1275 3500 
L 2222 3500 
L 2222 3053 
L 1275 3053 
L 1275 0 
L 697 0 
L 697 3053 
L 147 3053 
L 147 3500 
L 697 3500 
L 697 3744 
Q 697 4328 969 4595 
Q 1241 4863 1831 4863 
L 2375 4863 
z
" transform="scale(0.015625)"/>
      <path id="DejaVuSans-6f" d="M 1959 3097 
Q 1497 3097 1228 2736 
Q 959 2375 959 1747 
Q 959 1119 1226 758 
Q 1494 397 1959 397 
Q 2419 397 2687 759 
Q 2956 1122 2956 1747 
Q 2956 2369 2687 2733 
Q 2419 3097 1959 3097 
z
M 1959 3584 
Q 2709 3584 3137 3096 
Q 3566 2609 3566 1747 
Q 3566 888 3137 398 
Q 2709 -91 1959 -91 
Q 1206 -91 779 398 
Q 353 888 353 1747 
Q 353 2609 779 3096 
Q 1206 3584 1959 3584 
z
" transform="scale(0.015625)"/>
      <path id="DejaVuSans-72" d="M 2631 2963 
Q 2534 3019 2420 3045 
Q 2306 3072 2169 3072 
Q 1681 3072 1420 2755 
Q 1159 2438 1159 1844 
L 1159 0 
L 581 0 
L 581 3500 
L 1159 3500 
L 1159 2956 
Q 1341 3275 1631 3429 
Q 1922 3584 2338 3584 
Q 2397 3584 2469 3576 
Q 2541 3569 2628 3553 
L 2631 2963 
z
" transform="scale(0.015625)"/>
      <path id="DejaVuSans-6b" d="M 581 4863 
L 1159 4863 
L 1159 1991 
L 2875 3500 
L 3609 3500 
L 1753 1863 
L 3688 0 
L 2938 0 
L 1159 1709 
L 1159 0 
L 581 0 
L 581 4863 
z
" transform="scale(0.015625)"/>
      <path id="DejaVuSans-20" transform="scale(0.015625)"/>
      <path id="DejaVuSans-53" d="M 3425 4513 
L 3425 3897 
Q 3066 4069 2747 4153 
Q 2428 4238 2131 4238 
Q 1616 4238 1336 4038 
Q 1056 3838 1056 3469 
Q 1056 3159 1242 3001 
Q 1428 2844 1947 2747 
L 2328 2669 
Q 3034 2534 3370 2195 
Q 3706 1856 3706 1288 
Q 3706 609 3251 259 
Q 2797 -91 1919 -91 
Q 1588 -91 1214 -16 
Q 841 59 441 206 
L 441 856 
Q 825 641 1194 531 
Q 1563 422 1919 422 
Q 2459 422 2753 634 
Q 3047 847 3047 1241 
Q 3047 1584 2836 1778 
Q 2625 1972 2144 2069 
L 1759 2144 
Q 1053 2284 737 2584 
Q 422 2884 422 3419 
Q 422 4038 858 4394 
Q 1294 4750 2059 4750 
Q 2388 4750 2728 4690 
Q 3069 4631 3425 4513 
z
" transform="scale(0.015625)"/>
      <path id="DejaVuSans-77" d="M 269 3500 
L 844 3500 
L 1563 769 
L 2278 3500 
L 2956 3500 
L 3675 769 
L 4391 3500 
L 4966 3500 
L 4050 0 
L 3372 0 
L 2619 2869 
L 1863 0 
L 1184 0 
L 269 3500 
z
" transform="scale(0.015625)"/>
      <path id="DejaVuSans-69" d="M 603 3500 
L 1178 3500 
L 1178 0 
L 603 0 
L 603 3500 
z
M 603 4863 
L 1178 4863 
L 1178 4134 
L 603 4134 
L 603 4863 
z
" transform="scale(0.015625)"/>
      <path id="DejaVuSans-73" d="M 2834 3397 
L 2834 2853 
Q 2591 2978 2328 3040 
Q 2066 3103 1784 3103 
Q 1356 3103 1142 2972 
Q 928 2841 928 2578 
Q 928 2378 1081 2264 
Q 1234 2150 1697 2047 
L 1894 2003 
Q 2506 1872 2764 1633 
Q 3022 1394 3022 966 
Q 3022 478 2636 193 
Q 2250 -91 1575 -91 
Q 1294 -91 989 -36 
Q 684 19 347 128 
L 347 722 
Q 666 556 975 473 
Q 1284 391 1588 391 
Q 1994 391 2212 530 
Q 2431 669 2431 922 
Q 2431 1156 2273 1281 
Q 2116 1406 1581 1522 
L 1381 1569 
Q 847 1681 609 1914 
Q 372 2147 372 2553 
Q 372 3047 722 3315 
Q 1072 3584 1716 3584 
Q 2034 3584 2315 3537 
Q 2597 3491 2834 3397 
z
" transform="scale(0.015625)"/>
      <path id="DejaVuSans-6c" d="M 603 4863 
L 1178 4863 
L 1178 0 
L 603 0 
L 603 4863 
z
" transform="scale(0.015625)"/>
     </defs>
     <use xlink:href="#DejaVuSans-59"/>
     <use xlink:href="#DejaVuSans-2d" transform="translate(49.208984 0)"/>
     <use xlink:href="#DejaVuSans-66" transform="translate(85.292969 0)"/>
     <use xlink:href="#DejaVuSans-6f" transform="translate(120.498047 0)"/>
     <use xlink:href="#DejaVuSans-72" transform="translate(181.679688 0)"/>
     <use xlink:href="#DejaVuSans-6b" transform="translate(222.792969 0)"/>
     <use xlink:href="#DejaVuSans-20" transform="translate(280.703125 0)"/>
     <use xlink:href="#DejaVuSans-53" transform="translate(312.490234 0)"/>
     <use xlink:href="#DejaVuSans-77" transform="translate(375.966797 0)"/>
     <use xlink:href="#DejaVuSans-69" transform="translate(457.753906 0)"/>
     <use xlink:href="#DejaVuSans-73" transform="translate(485.537109 0)"/>
     <use xlink:href="#DejaVuSans-73" transform="translate(537.636719 0)"/>
     <use xlink:href="#DejaVuSans-20" transform="translate(589.736328 0)"/>
     <use xlink:href="#DejaVuSans-72" transform="translate(621.523438 0)"/>
     <use xlink:href="#DejaVuSans-6f" transform="translate(660.386719 0)"/>
     <use xlink:href="#DejaVuSans-6c" transform="translate(721.568359 0)"/>
     <use xlink:href="#DejaVuSans-6c" transform="translate(749.351562 0)"/>
    </g>
   </g>
   <g id="patch_4">
    <path d="M 31.115402 156.386969 
Q 31.115402 141.919011 31.115402 128.457284 
" style="fill: none; stroke: #666666; stroke-width: 0.9; stroke-linecap: round"/>
    <path d="M 29.115402 132.457284 
L 31.115402 128.457284 
L 33.115402 132.457284 
" style="fill: none; stroke: #666666; stroke-width: 0.9; stroke-linecap: round"/>
   </g>
   <g id="text_5">
    <!-- z -->
    <g style="fill: #666666" transform="translate(33.211034 144.1267) scale(0.08 -0.08)">
     <defs>
      <path id="DejaVuSans-Oblique-7a" d="M 744 3500 
L 3475 3500 
L 3372 2975 
L 738 459 
L 2913 459 
L 2822 0 
L -19 0 
L 84 525 
L 2719 3041 
L 653 3041 
L 744 3500 
z
" transform="scale(0.015625)"/>
     </defs>
     <use xlink:href="#DejaVuSans-Oblique-7a"/>
    </g>
   </g>
   <g id="text_6">
    <!-- N = 4000   (extruded along z) -->
    <g style="fill: #1f4e79" transform="translate(7.2 178.695394) scale(0.09 -0.09)">
     <defs>
      <path id="DejaVuSans-Oblique-4e" d="M 1081 4666 
L 1931 4666 
L 3219 666 
L 4000 4666 
L 4616 4666 
L 3706 0 
L 2853 0 
L 1569 4025 
L 788 0 
L 172 0 
L 1081 4666 
z
" transform="scale(0.015625)"/>
      <path id="DejaVuSans-Oblique-3d" d="M 678 2906 
L 4684 2906 
L 4684 2381 
L 678 2381 
L 678 2906 
z
M 678 1631 
L 4684 1631 
L 4684 1100 
L 678 1100 
L 678 1631 
z
" transform="scale(0.015625)"/>
      <path id="DejaVuSans-Oblique-34" d="M 2753 4666 
L 3547 4666 
L 2950 1625 
L 3616 1625 
L 3513 1100 
L 2847 1100 
L 2638 0 
L 2009 0 
L 2222 1100 
L 116 1100 
L 238 1709 
L 2753 4666 
z
M 2809 4116 
L 728 1625 
L 2322 1625 
L 2809 4116 
z
" transform="scale(0.015625)"/>
      <path id="DejaVuSans-Oblique-30" d="M 2444 4750 
Q 3078 4750 3414 4328 
Q 3750 3906 3750 3116 
Q 3750 2516 3592 1923 
Q 3434 1331 3150 863 
Q 2859 394 2467 151 
Q 2075 -91 1600 -91 
Q 988 -91 653 334 
Q 319 759 319 1544 
Q 319 2138 480 2733 
Q 641 3328 928 3794 
Q 1216 4263 1602 4506 
Q 1988 4750 2444 4750 
z
M 2406 4250 
Q 2169 4250 1955 4123 
Q 1741 3997 1569 3750 
Q 1281 3338 1111 2720 
Q 941 2103 941 1453 
Q 941 938 1123 673 
Q 1306 409 1663 409 
Q 1913 409 2125 536 
Q 2338 663 2509 909 
Q 2794 1319 2961 1936 
Q 3128 2553 3128 3206 
Q 3128 3722 2945 3986 
Q 2763 4250 2406 4250 
z
" transform="scale(0.015625)"/>
      <path id="DejaVuSans-Oblique-78" d="M 3841 3500 
L 2234 1784 
L 3219 0 
L 2559 0 
L 1819 1388 
L 531 0 
L -166 0 
L 1556 1844 
L 641 3500 
L 1300 3500 
L 1972 2234 
L 3144 3500 
L 3841 3500 
z
" transform="scale(0.015625)"/>
      <path id="DejaVuSans-Oblique-75" d="M 428 1388 
L 838 3500 
L 1416 3500 
L 1006 1409 
Q 975 1256 961 1147 
Q 947 1038 947 966 
Q 947 700 1109 554 
Q 1272 409 1569 409 
Q 2031 409 2368 721 
Q 2706 1034 2809 1563 
L 3194 3500 
L 3769 3500 
L 3091 0 
L 2516 0 
L 2631 550 
Q 2388 244 2052 76 
Q 1716 -91 1338 -91 
Q 878 -91 622 161 
Q 366 413 366 863 
Q 366 956 381 1097 
Q 397 1238 428 1388 
z
" transform="scale(0.015625)"/>
      <path id="DejaVuSans-Oblique-64" d="M 2675 525 
Q 2444 222 2128 65 
Q 1813 -91 1428 -91 
Q 903 -91 598 267 
Q 294 625 294 1247 
Q 294 1766 478 2236 
Q 663 2706 1013 3078 
Q 1244 3325 1534 3454 
Q 1825 3584 2144 3584 
Q 2481 3584 2739 3421 
Q 2997 3259 3138 2956 
L 3513 4863 
L 4091 4863 
L 3144 0 
L 2566 0 
L 2675 525 
z
M 891 1350 
Q 891 897 1095 644 
Q 1300 391 1663 391 
Q 1931 391 2161 520 
Q 2391 650 2566 903 
Q 2750 1166 2856 1509 
Q 2963 1853 2963 2188 
Q 2963 2622 2758 2865 
Q 2553 3109 2194 3109 
Q 1922 3109 1687 2981 
Q 1453 2853 1288 2613 
Q 1106 2353 998 2009 
Q 891 1666 891 1350 
z
" transform="scale(0.015625)"/>
     </defs>
     <use xlink:href="#DejaVuSans-Oblique-4e"/>
     <use xlink:href="#DejaVuSans-Oblique-20" transform="translate(74.804688 0)"/>
     <use xlink:href="#DejaVuSans-Oblique-3d" transform="translate(106.591797 0)"/>
     <use xlink:href="#DejaVuSans-Oblique-20" transform="translate(190.380859 0)"/>
     <use xlink:href="#DejaVuSans-Oblique-34" transform="translate(222.167969 0)"/>
     <use xlink:href="#DejaVuSans-Oblique-30" transform="translate(285.791016 0)"/>
     <use xlink:href="#DejaVuSans-Oblique-30" transform="translate(349.414062 0)"/>
     <use xlink:href="#DejaVuSans-Oblique-30" transform="translate(413.037109 0)"/>
     <use xlink:href="#DejaVuSans-Oblique-20" transform="translate(476.660156 0)"/>
     <use xlink:href="#DejaVuSans-Oblique-20" transform="translate(508.447266 0)"/>
     <use xlink:href="#DejaVuSans-Oblique-20" transform="translate(540.234375 0)"/>
     <use xlink:href="#DejaVuSans-Oblique-28" transform="translate(572.021484 0)"/>
     <use xlink:href="#DejaVuSans-Oblique-65" transform="translate(611.035156 0)"/>
     <use xlink:href="#DejaVuSans-Oblique-78" transform="translate(672.558594 0)"/>
     <use xlink:href="#DejaVuSans-Oblique-74" transform="translate(731.738281 0)"/>
     <use xlink:href="#DejaVuSans-Oblique-72" transform="translate(770.947266 0)"/>
     <use xlink:href="#DejaVuSans-Oblique-75" transform="translate(812.060547 0)"/>
     <use xlink:href="#DejaVuSans-Oblique-64" transform="translate(875.439453 0)"/>
     <use xlink:href="#DejaVuSans-Oblique-65" transform="translate(938.916016 0)"/>
     <use xlink:href="#DejaVuSans-Oblique-64" transform="translate(1000.439453 0)"/>
     <use xlink:href="#DejaVuSans-Oblique-20" transform="translate(1063.916016 0)"/>
     <use xlink:href="#DejaVuSans-Oblique-61" transform="translate(1095.703125 0)"/>
     <use xlink:href="#DejaVuSans-Oblique-6c" transform="translate(1156.982422 0)"/>
     <use xlink:href="#DejaVuSans-Oblique-6f" transform="translate(1184.765625 0)"/>
     <use xlink:href="#DejaVuSans-Oblique-6e" transform="translate(1245.947266 0)"/>
     <use xlink:href="#DejaVuSans-Oblique-67" transform="translate(1309.326172 0)"/>
     <use xlink:href="#DejaVuSans-Oblique-20" transform="translate(1372.802734 0)"/>
     <use xlink:href="#DejaVuSans-Oblique-7a" transform="translate(1404.589844 0)"/>
     <use xlink:href="#DejaVuSans-Oblique-29" transform="translate(1457.080078 0)"/>
    </g>
   </g>
   <g id="text_7">
    <!-- 2D target -->
    <g style="fill: #a85d00" transform="translate(212.51931 93.310104) scale(0.11 -0.11)">
     <defs>
      <path id="DejaVuSans-Bold-32" d="M 1844 884 
L 3897 884 
L 3897 0 
L 506 0 
L 506 884 
L 2209 2388 
Q 2438 2594 2547 2791 
Q 2656 2988 2656 3200 
Q 2656 3528 2436 3728 
Q 2216 3928 1850 3928 
Q 1569 3928 1234 3808 
Q 900 3688 519 3450 
L 519 4475 
Q 925 4609 1322 4679 
Q 1719 4750 2100 4750 
Q 2938 4750 3402 4381 
Q 3866 4013 3866 3353 
Q 3866 2972 3669 2642 
Q 3472 2313 2841 1759 
L 1844 884 
z
" transform="scale(0.015625)"/>
      <path id="DejaVuSans-Bold-61" d="M 2106 1575 
Q 1756 1575 1579 1456 
Q 1403 1338 1403 1106 
Q 1403 894 1545 773 
Q 1688 653 1941 653 
Q 2256 653 2472 879 
Q 2688 1106 2688 1447 
L 2688 1575 
L 2106 1575 
z
M 3816 1997 
L 3816 0 
L 2688 0 
L 2688 519 
Q 2463 200 2181 54 
Q 1900 -91 1497 -91 
Q 953 -91 614 226 
Q 275 544 275 1050 
Q 275 1666 698 1953 
Q 1122 2241 2028 2241 
L 2688 2241 
L 2688 2328 
Q 2688 2594 2478 2717 
Q 2269 2841 1825 2841 
Q 1466 2841 1156 2769 
Q 847 2697 581 2553 
L 581 3406 
Q 941 3494 1303 3539 
Q 1666 3584 2028 3584 
Q 2975 3584 3395 3211 
Q 3816 2838 3816 1997 
z
" transform="scale(0.015625)"/>
     </defs>
     <use xlink:href="#DejaVuSans-Bold-32"/>
     <use xlink:href="#DejaVuSans-Bold-44" transform="translate(69.580078 0)"/>
     <use xlink:href="#DejaVuSans-Bold-20" transform="translate(152.587891 0)"/>
     <use xlink:href="#DejaVuSans-Bold-74" transform="translate(187.402344 0)"/>
     <use xlink:href="#DejaVuSans-Bold-61" transform="translate(235.205078 0)"/>
     <use xlink:href="#DejaVuSans-Bold-72" transform="translate(302.685547 0)"/>
     <use xlink:href="#DejaVuSans-Bold-67" transform="translate(352.001953 0)"/>
     <use xlink:href="#DejaVuSans-Bold-65" transform="translate(423.583984 0)"/>
     <use xlink:href="#DejaVuSans-Bold-74" transform="translate(491.40625 0)"/>
    </g>
   </g>
   <g id="text_8">
    <!-- Y-fork spiral -->
    <g style="fill: #a85d00" transform="translate(215.805482 106.845154) scale(0.09 -0.09)">
     <defs>
      <path id="DejaVuSans-70" d="M 1159 525 
L 1159 -1331 
L 581 -1331 
L 581 3500 
L 1159 3500 
L 1159 2969 
Q 1341 3281 1617 3432 
Q 1894 3584 2278 3584 
Q 2916 3584 3314 3078 
Q 3713 2572 3713 1747 
Q 3713 922 3314 415 
Q 2916 -91 2278 -91 
Q 1894 -91 1617 61 
Q 1341 213 1159 525 
z
M 3116 1747 
Q 3116 2381 2855 2742 
Q 2594 3103 2138 3103 
Q 1681 3103 1420 2742 
Q 1159 2381 1159 1747 
Q 1159 1113 1420 752 
Q 1681 391 2138 391 
Q 2594 391 2855 752 
Q 3116 1113 3116 1747 
z
" transform="scale(0.015625)"/>
      <path id="DejaVuSans-61" d="M 2194 1759 
Q 1497 1759 1228 1600 
Q 959 1441 959 1056 
Q 959 750 1161 570 
Q 1363 391 1709 391 
Q 2188 391 2477 730 
Q 2766 1069 2766 1631 
L 2766 1759 
L 2194 1759 
z
M 3341 1997 
L 3341 0 
L 2766 0 
L 2766 531 
Q 2569 213 2275 61 
Q 1981 -91 1556 -91 
Q 1019 -91 701 211 
Q 384 513 384 1019 
Q 384 1609 779 1909 
Q 1175 2209 1959 2209 
L 2766 2209 
L 2766 2266 
Q 2766 2663 2505 2880 
Q 2244 3097 1772 3097 
Q 1472 3097 1187 3025 
Q 903 2953 641 2809 
L 641 3341 
Q 956 3463 1253 3523 
Q 1550 3584 1831 3584 
Q 2591 3584 2966 3190 
Q 3341 2797 3341 1997 
z
" transform="scale(0.015625)"/>
     </defs>
     <use xlink:href="#DejaVuSans-59"/>
     <use xlink:href="#DejaVuSans-2d" transform="translate(49.208984 0)"/>
     <use xlink:href="#DejaVuSans-66" transform="translate(85.292969 0)"/>
     <use xlink:href="#DejaVuSans-6f" transform="translate(120.498047 0)"/>
     <use xlink:href="#DejaVuSans-72" transform="translate(181.679688 0)"/>
     <use xlink:href="#DejaVuSans-6b" transform="translate(222.792969 0)"/>
     <use xlink:href="#DejaVuSans-20" transform="translate(280.703125 0)"/>
     <use xlink:href="#DejaVuSans-73" transform="translate(312.490234 0)"/>
     <use xlink:href="#DejaVuSans-70" transform="translate(364.589844 0)"/>
     <use xlink:href="#DejaVuSans-69" transform="translate(428.066406 0)"/>
     <use xlink:href="#DejaVuSans-72" transform="translate(455.849609 0)"/>
     <use xlink:href="#DejaVuSans-61" transform="translate(496.962891 0)"/>
     <use xlink:href="#DejaVuSans-6c" transform="translate(558.242188 0)"/>
    </g>
   </g>
   <g id="patch_5">
    <path d="M 197.770113 168.86304 
Q 201.010247 168.86304 203.467757 168.86304 
" style="fill: none; stroke: #888888; stroke-width: 0.7; stroke-linecap: round"/>
    <path d="M 199.467757 166.86304 
L 203.467757 168.86304 
L 199.467757 170.86304 
" style="fill: none; stroke: #888888; stroke-width: 0.7; stroke-linecap: round"/>
   </g>
   <g id="patch_6">
    <path d="M 195.772202 166.865129 
Q 195.772202 163.624995 195.772202 161.167484 
" style="fill: none; stroke: #888888; stroke-width: 0.7; stroke-linecap: round"/>
    <path d="M 193.772202 165.167484 
L 195.772202 161.167484 
L 197.772202 165.167484 
" style="fill: none; stroke: #888888; stroke-width: 0.7; stroke-linecap: round"/>
   </g>
   <g id="text_9">
    <!-- x -->
    <g style="fill: #888888" transform="translate(207.747242 171.258048) scale(0.07 -0.07)">
     <use xlink:href="#DejaVuSans-Oblique-78"/>
    </g>
   </g>
   <g id="text_10">
    <!-- y -->
    <g style="fill: #888888" transform="translate(193.377194 158.38488) scale(0.07 -0.07)">
     <use xlink:href="#DejaVuSans-Oblique-79"/>
    </g>
   </g>
   <g id="text_11">
    <!-- K = 5000   (flat) -->
    <g style="fill: #a85d00" transform="translate(205.982826 178.695394) scale(0.09 -0.09)">
     <defs>
      <path id="DejaVuSans-Oblique-4b" d="M 1081 4666 
L 1716 4666 
L 1331 2700 
L 3781 4666 
L 4622 4666 
L 1850 2438 
L 3878 0 
L 3109 0 
L 1247 2272 
L 806 0 
L 172 0 
L 1081 4666 
z
" transform="scale(0.015625)"/>
      <path id="DejaVuSans-Oblique-35" d="M 3719 4666 
L 3622 4141 
L 1691 4141 
L 1466 2988 
Q 1609 3034 1757 3056 
Q 1906 3078 2059 3078 
Q 2706 3078 3081 2731 
Q 3456 2384 3456 1791 
Q 3456 1375 3264 994 
Q 3072 613 2719 325 
Q 2469 125 2108 17 
Q 1747 -91 1319 -91 
Q 1038 -91 744 -41 
Q 450 9 128 109 
L 244 697 
Q 531 556 820 486 
Q 1109 416 1403 416 
Q 2013 416 2411 781 
Q 2809 1147 2809 1697 
Q 2809 2103 2548 2328 
Q 2288 2553 1819 2553 
Q 1572 2553 1305 2495 
Q 1038 2438 756 2322 
L 1209 4666 
L 3719 4666 
z
" transform="scale(0.015625)"/>
     </defs>
     <use xlink:href="#DejaVuSans-Oblique-4b"/>
     <use xlink:href="#DejaVuSans-Oblique-20" transform="translate(65.576172 0)"/>
     <use xlink:href="#DejaVuSans-Oblique-3d" transform="translate(97.363281 0)"/>
     <use xlink:href="#DejaVuSans-Oblique-20" transform="translate(181.152344 0)"/>
     <use xlink:href="#DejaVuSans-Oblique-35" transform="translate(212.939453 0)"/>
     <use xlink:href="#DejaVuSans-Oblique-30" transform="translate(276.5625 0)"/>
     <use xlink:href="#DejaVuSans-Oblique-30" transform="translate(340.185547 0)"/>
     <use xlink:href="#DejaVuSans-Oblique-30" transform="translate(403.808594 0)"/>
     <use xlink:href="#DejaVuSans-Oblique-20" transform="translate(467.431641 0)"/>
     <use xlink:href="#DejaVuSans-Oblique-20" transform="translate(499.21875 0)"/>
     <use xlink:href="#DejaVuSans-Oblique-20" transform="translate(531.005859 0)"/>
     <use xlink:href="#DejaVuSans-Oblique-28" transform="translate(562.792969 0)"/>
     <use xlink:href="#DejaVuSans-Oblique-66" transform="translate(601.806641 0)"/>
     <use xlink:href="#DejaVuSans-Oblique-6c" transform="translate(637.011719 0)"/>
     <use xlink:href="#DejaVuSans-Oblique-61" transform="translate(664.794922 0)"/>
     <use xlink:href="#DejaVuSans-Oblique-74" transform="translate(726.074219 0)"/>
     <use xlink:href="#DejaVuSans-Oblique-29" transform="translate(765.283203 0)"/>
    </g>
   </g>
   <g id="patch_7">
    <path d="M 130.411609 126.9504 
Q 158.348247 126.9504 184.048816 126.9504 
" style="fill: none; stroke: #222222; stroke-width: 2; stroke-linecap: round"/>
    <path d="M 180.048816 124.9504 
L 184.048816 126.9504 
L 180.048816 128.9504 
" style="fill: none; stroke: #222222; stroke-width: 2; stroke-linecap: round"/>
   </g>
   <g id="text_12">
    <!-- GW / FGW -->
    <g transform="translate(130.389264 108.98784) scale(0.1 -0.1)">
     <defs>
      <path id="DejaVuSans-Bold-47" d="M 4781 347 
Q 4331 128 3847 18 
Q 3363 -91 2847 -91 
Q 1681 -91 1000 561 
Q 319 1213 319 2328 
Q 319 3456 1012 4103 
Q 1706 4750 2913 4750 
Q 3378 4750 3804 4662 
Q 4231 4575 4609 4403 
L 4609 3438 
Q 4219 3659 3833 3768 
Q 3447 3878 3059 3878 
Q 2341 3878 1952 3476 
Q 1563 3075 1563 2328 
Q 1563 1588 1938 1184 
Q 2313 781 3003 781 
Q 3191 781 3352 804 
Q 3513 828 3641 878 
L 3641 1784 
L 2906 1784 
L 2906 2591 
L 4781 2591 
L 4781 347 
z
" transform="scale(0.015625)"/>
      <path id="DejaVuSans-Bold-57" d="M 191 4666 
L 1344 4666 
L 2150 1275 
L 2950 4666 
L 4109 4666 
L 4909 1275 
L 5716 4666 
L 6859 4666 
L 5759 0 
L 4372 0 
L 3525 3547 
L 2688 0 
L 1300 0 
L 191 4666 
z
" transform="scale(0.015625)"/>
      <path id="DejaVuSans-Bold-2f" d="M 1644 4666 
L 2338 4666 
L 691 -594 
L 0 -594 
L 1644 4666 
z
" transform="scale(0.015625)"/>
      <path id="DejaVuSans-Bold-46" d="M 588 4666 
L 3834 4666 
L 3834 3756 
L 1791 3756 
L 1791 2888 
L 3713 2888 
L 3713 1978 
L 1791 1978 
L 1791 0 
L 588 0 
L 588 4666 
z
" transform="scale(0.015625)"/>
     </defs>
     <use xlink:href="#DejaVuSans-Bold-47"/>
     <use xlink:href="#DejaVuSans-Bold-57" transform="translate(82.080078 0)"/>
     <use xlink:href="#DejaVuSans-Bold-20" transform="translate(192.382812 0)"/>
     <use xlink:href="#DejaVuSans-Bold-2f" transform="translate(227.197266 0)"/>
     <use xlink:href="#DejaVuSans-Bold-20" transform="translate(263.720703 0)"/>
     <use xlink:href="#DejaVuSans-Bold-46" transform="translate(298.535156 0)"/>
     <use xlink:href="#DejaVuSans-Bold-47" transform="translate(366.845703 0)"/>
     <use xlink:href="#DejaVuSans-Bold-57" transform="translate(448.925781 0)"/>
    </g>
   </g>
   <g id="text_13">
    <!-- (arclen feature) -->
    <g style="fill: #444444" transform="translate(127.025827 140.42232) scale(0.08 -0.08)">
     <use xlink:href="#DejaVuSans-Oblique-28"/>
     <use xlink:href="#DejaVuSans-Oblique-61" transform="translate(39.013672 0)"/>
     <use xlink:href="#DejaVuSans-Oblique-72" transform="translate(100.292969 0)"/>
     <use xlink:href="#DejaVuSans-Oblique-63" transform="translate(141.40625 0)"/>
     <use xlink:href="#DejaVuSans-Oblique-6c" transform="translate(196.386719 0)"/>
     <use xlink:href="#DejaVuSans-Oblique-65" transform="translate(224.169922 0)"/>
     <use xlink:href="#DejaVuSans-Oblique-6e" transform="translate(285.693359 0)"/>
     <use xlink:href="#DejaVuSans-Oblique-20" transform="translate(349.072266 0)"/>
     <use xlink:href="#DejaVuSans-Oblique-66" transform="translate(380.859375 0)"/>
     <use xlink:href="#DejaVuSans-Oblique-65" transform="translate(416.064453 0)"/>
     <use xlink:href="#DejaVuSans-Oblique-61" transform="translate(477.587891 0)"/>
     <use xlink:href="#DejaVuSans-Oblique-74" transform="translate(538.867188 0)"/>
     <use xlink:href="#DejaVuSans-Oblique-75" transform="translate(578.076172 0)"/>
     <use xlink:href="#DejaVuSans-Oblique-72" transform="translate(641.455078 0)"/>
     <use xlink:href="#DejaVuSans-Oblique-65" transform="translate(682.568359 0)"/>
     <use xlink:href="#DejaVuSans-Oblique-29" transform="translate(744.091797 0)"/>
    </g>
   </g>
   <g id="text_14">
    <!-- Regions (same colour = same region everywhere) -->
    <g transform="translate(17.825983 204.78816) scale(0.1 -0.1)">
     <defs>
      <path id="DejaVuSans-Bold-52" d="M 2297 2597 
Q 2675 2597 2839 2737 
Q 3003 2878 3003 3200 
Q 3003 3519 2839 3656 
Q 2675 3794 2297 3794 
L 1791 3794 
L 1791 2597 
L 2297 2597 
z
M 1791 1766 
L 1791 0 
L 588 0 
L 588 4666 
L 2425 4666 
Q 3347 4666 3776 4356 
Q 4206 4047 4206 3378 
Q 4206 2916 3982 2619 
Q 3759 2322 3309 2181 
Q 3556 2125 3751 1926 
Q 3947 1728 4147 1325 
L 4800 0 
L 3519 0 
L 2950 1159 
Q 2778 1509 2601 1637 
Q 2425 1766 2131 1766 
L 1791 1766 
z
" transform="scale(0.015625)"/>
      <path id="DejaVuSans-Bold-28" d="M 2413 -844 
L 1484 -844 
Q 1006 -72 778 623 
Q 550 1319 550 2003 
Q 550 2688 779 3389 
Q 1009 4091 1484 4856 
L 2413 4856 
Q 2013 4116 1813 3408 
Q 1613 2700 1613 2009 
Q 1613 1319 1811 609 
Q 2009 -100 2413 -844 
z
" transform="scale(0.015625)"/>
      <path id="DejaVuSans-Bold-6c" d="M 538 4863 
L 1656 4863 
L 1656 0 
L 538 0 
L 538 4863 
z
" transform="scale(0.015625)"/>
      <path id="DejaVuSans-Bold-3d" d="M 678 3084 
L 4684 3084 
L 4684 2350 
L 678 2350 
L 678 3084 
z
M 678 1663 
L 4684 1663 
L 4684 922 
L 678 922 
L 678 1663 
z
" transform="scale(0.015625)"/>
      <path id="DejaVuSans-Bold-76" d="M 97 3500 
L 1216 3500 
L 2088 1081 
L 2956 3500 
L 4078 3500 
L 2700 0 
L 1472 0 
L 97 3500 
z
" transform="scale(0.015625)"/>
      <path id="DejaVuSans-Bold-79" d="M 78 3500 
L 1197 3500 
L 2138 1125 
L 2938 3500 
L 4056 3500 
L 2584 -331 
Q 2363 -916 2067 -1148 
Q 1772 -1381 1288 -1381 
L 641 -1381 
L 641 -647 
L 991 -647 
Q 1275 -647 1404 -556 
Q 1534 -466 1606 -231 
L 1638 -134 
L 78 3500 
z
" transform="scale(0.015625)"/>
      <path id="DejaVuSans-Bold-77" d="M 225 3500 
L 1313 3500 
L 1900 1088 
L 2491 3500 
L 3425 3500 
L 4013 1113 
L 4603 3500 
L 5691 3500 
L 4769 0 
L 3547 0 
L 2956 2406 
L 2369 0 
L 1147 0 
L 225 3500 
z
" transform="scale(0.015625)"/>
      <path id="DejaVuSans-Bold-68" d="M 4056 2131 
L 4056 0 
L 2931 0 
L 2931 347 
L 2931 1625 
Q 2931 2084 2911 2256 
Q 2891 2428 2841 2509 
Q 2775 2619 2662 2680 
Q 2550 2741 2406 2741 
Q 2056 2741 1856 2470 
Q 1656 2200 1656 1722 
L 1656 0 
L 538 0 
L 538 4863 
L 1656 4863 
L 1656 2988 
Q 1909 3294 2193 3439 
Q 2478 3584 2822 3584 
Q 3428 3584 3742 3212 
Q 4056 2841 4056 2131 
z
" transform="scale(0.015625)"/>
      <path id="DejaVuSans-Bold-29" d="M 513 -844 
Q 913 -100 1113 609 
Q 1313 1319 1313 2009 
Q 1313 2700 1113 3408 
Q 913 4116 513 4856 
L 1441 4856 
Q 1916 4091 2145 3389 
Q 2375 2688 2375 2003 
Q 2375 1319 2147 623 
Q 1919 -72 1441 -844 
L 513 -844 
z
" transform="scale(0.015625)"/>
     </defs>
     <use xlink:href="#DejaVuSans-Bold-52"/>
     <use xlink:href="#DejaVuSans-Bold-65" transform="translate(77.001953 0)"/>
     <use xlink:href="#DejaVuSans-Bold-67" transform="translate(144.824219 0)"/>
     <use xlink:href="#DejaVuSans-Bold-69" transform="translate(216.40625 0)"/>
     <use xlink:href="#DejaVuSans-Bold-6f" transform="translate(250.683594 0)"/>
     <use xlink:href="#DejaVuSans-Bold-6e" transform="translate(319.384766 0)"/>
     <use xlink:href="#DejaVuSans-Bold-73" transform="translate(390.576172 0)"/>
     <use xlink:href="#DejaVuSans-Bold-20" transform="translate(450.097656 0)"/>
     <use xlink:href="#DejaVuSans-Bold-28" transform="translate(484.912109 0)"/>
     <use xlink:href="#DejaVuSans-Bold-73" transform="translate(530.615234 0)"/>
     <use xlink:href="#DejaVuSans-Bold-61" transform="translate(590.136719 0)"/>
     <use xlink:href="#DejaVuSans-Bold-6d" transform="translate(657.617188 0)"/>
     <use xlink:href="#DejaVuSans-Bold-65" transform="translate(761.816406 0)"/>
     <use xlink:href="#DejaVuSans-Bold-20" transform="translate(829.638672 0)"/>
     <use xlink:href="#DejaVuSans-Bold-63" transform="translate(864.453125 0)"/>
     <use xlink:href="#DejaVuSans-Bold-6f" transform="translate(923.730469 0)"/>
     <use xlink:href="#DejaVuSans-Bold-6c" transform="translate(992.431641 0)"/>
     <use xlink:href="#DejaVuSans-Bold-6f" transform="translate(1026.708984 0)"/>
     <use xlink:href="#DejaVuSans-Bold-75" transform="translate(1095.410156 0)"/>
     <use xlink:href="#DejaVuSans-Bold-72" transform="translate(1166.601562 0)"/>
     <use xlink:href="#DejaVuSans-Bold-20" transform="translate(1215.917969 0)"/>
     <use xlink:href="#DejaVuSans-Bold-3d" transform="translate(1250.732422 0)"/>
     <use xlink:href="#DejaVuSans-Bold-20" transform="translate(1334.521484 0)"/>
     <use xlink:href="#DejaVuSans-Bold-73" transform="translate(1369.335938 0)"/>
     <use xlink:href="#DejaVuSans-Bold-61" transform="translate(1428.857422 0)"/>
     <use xlink:href="#DejaVuSans-Bold-6d" transform="translate(1496.337891 0)"/>
     <use xlink:href="#DejaVuSans-Bold-65" transform="translate(1600.537109 0)"/>
     <use xlink:href="#DejaVuSans-Bold-20" transform="translate(1668.359375 0)"/>
     <use xlink:href="#DejaVuSans-Bold-72" transform="translate(1703.173828 0)"/>
     <use xlink:href="#DejaVuSans-Bold-65" transform="translate(1752.490234 0)"/>
     <use xlink:href="#DejaVuSans-Bold-67" transform="translate(1820.3125 0)"/>
     <use xlink:href="#DejaVuSans-Bold-69" transform="translate(1891.894531 0)"/>
     <use xlink:href="#DejaVuSans-Bold-6f" transform="translate(1926.171875 0)"/>
     <use xlink:href="#DejaVuSans-Bold-6e" transform="translate(1994.873047 0)"/>
     <use xlink:href="#DejaVuSans-Bold-20" transform="translate(2066.064453 0)"/>
     <use xlink:href="#DejaVuSans-Bold-65" transform="translate(2100.878906 0)"/>
     <use xlink:href="#DejaVuSans-Bold-76" transform="translate(2168.701172 0)"/>
     <use xlink:href="#DejaVuSans-Bold-65" transform="translate(2233.886719 0)"/>
     <use xlink:href="#DejaVuSans-Bold-72" transform="translate(2301.708984 0)"/>
     <use xlink:href="#DejaVuSans-Bold-79" transform="translate(2351.025391 0)"/>
     <use xlink:href="#DejaVuSans-Bold-77" transform="translate(2416.210938 0)"/>
     <use xlink:href="#DejaVuSans-Bold-68" transform="translate(2508.59375 0)"/>
     <use xlink:href="#DejaVuSans-Bold-65" transform="translate(2579.785156 0)"/>
     <use xlink:href="#DejaVuSans-Bold-72" transform="translate(2647.607422 0)"/>
     <use xlink:href="#DejaVuSans-Bold-65" transform="translate(2696.923828 0)"/>
     <use xlink:href="#DejaVuSans-Bold-29" transform="translate(2764.746094 0)"/>
    </g>
   </g>
   <g id="text_15">
    <!-- spiral inner / middle / outer  (backbone, label 0) -->
    <g transform="translate(47.581082 228.227917) scale(0.09 -0.09)">
     <defs>
      <path id="DejaVuSans-6e" d="M 3513 2113 
L 3513 0 
L 2938 0 
L 2938 2094 
Q 2938 2591 2744 2837 
Q 2550 3084 2163 3084 
Q 1697 3084 1428 2787 
Q 1159 2491 1159 1978 
L 1159 0 
L 581 0 
L 581 3500 
L 1159 3500 
L 1159 2956 
Q 1366 3272 1645 3428 
Q 1925 3584 2291 3584 
Q 2894 3584 3203 3211 
Q 3513 2838 3513 2113 
z
" transform="scale(0.015625)"/>
      <path id="DejaVuSans-65" d="M 3597 1894 
L 3597 1613 
L 953 1613 
Q 991 1019 1311 708 
Q 1631 397 2203 397 
Q 2534 397 2845 478 
Q 3156 559 3463 722 
L 3463 178 
Q 3153 47 2828 -22 
Q 2503 -91 2169 -91 
Q 1331 -91 842 396 
Q 353 884 353 1716 
Q 353 2575 817 3079 
Q 1281 3584 2069 3584 
Q 2775 3584 3186 3129 
Q 3597 2675 3597 1894 
z
M 3022 2063 
Q 3016 2534 2758 2815 
Q 2500 3097 2075 3097 
Q 1594 3097 1305 2825 
Q 1016 2553 972 2059 
L 3022 2063 
z
" transform="scale(0.015625)"/>
      <path id="DejaVuSans-2f" d="M 1625 4666 
L 2156 4666 
L 531 -594 
L 0 -594 
L 1625 4666 
z
" transform="scale(0.015625)"/>
      <path id="DejaVuSans-6d" d="M 3328 2828 
Q 3544 3216 3844 3400 
Q 4144 3584 4550 3584 
Q 5097 3584 5394 3201 
Q 5691 2819 5691 2113 
L 5691 0 
L 5113 0 
L 5113 2094 
Q 5113 2597 4934 2840 
Q 4756 3084 4391 3084 
Q 3944 3084 3684 2787 
Q 3425 2491 3425 1978 
L 3425 0 
L 2847 0 
L 2847 2094 
Q 2847 2600 2669 2842 
Q 2491 3084 2119 3084 
Q 1678 3084 1418 2786 
Q 1159 2488 1159 1978 
L 1159 0 
L 581 0 
L 581 3500 
L 1159 3500 
L 1159 2956 
Q 1356 3278 1631 3431 
Q 1906 3584 2284 3584 
Q 2666 3584 2933 3390 
Q 3200 3197 3328 2828 
z
" transform="scale(0.015625)"/>
      <path id="DejaVuSans-64" d="M 2906 2969 
L 2906 4863 
L 3481 4863 
L 3481 0 
L 2906 0 
L 2906 525 
Q 2725 213 2448 61 
Q 2172 -91 1784 -91 
Q 1150 -91 751 415 
Q 353 922 353 1747 
Q 353 2572 751 3078 
Q 1150 3584 1784 3584 
Q 2172 3584 2448 3432 
Q 2725 3281 2906 2969 
z
M 947 1747 
Q 947 1113 1208 752 
Q 1469 391 1925 391 
Q 2381 391 2643 752 
Q 2906 1113 2906 1747 
Q 2906 2381 2643 2742 
Q 2381 3103 1925 3103 
Q 1469 3103 1208 2742 
Q 947 2381 947 1747 
z
" transform="scale(0.015625)"/>
      <path id="DejaVuSans-75" d="M 544 1381 
L 544 3500 
L 1119 3500 
L 1119 1403 
Q 1119 906 1312 657 
Q 1506 409 1894 409 
Q 2359 409 2629 706 
Q 2900 1003 2900 1516 
L 2900 3500 
L 3475 3500 
L 3475 0 
L 2900 0 
L 2900 538 
Q 2691 219 2414 64 
Q 2138 -91 1772 -91 
Q 1169 -91 856 284 
Q 544 659 544 1381 
z
M 1991 3584 
L 1991 3584 
z
" transform="scale(0.015625)"/>
      <path id="DejaVuSans-74" d="M 1172 4494 
L 1172 3500 
L 2356 3500 
L 2356 3053 
L 1172 3053 
L 1172 1153 
Q 1172 725 1289 603 
Q 1406 481 1766 481 
L 2356 481 
L 2356 0 
L 1766 0 
Q 1100 0 847 248 
Q 594 497 594 1153 
L 594 3053 
L 172 3053 
L 172 3500 
L 594 3500 
L 594 4494 
L 1172 4494 
z
" transform="scale(0.015625)"/>
      <path id="DejaVuSans-28" d="M 1984 4856 
Q 1566 4138 1362 3434 
Q 1159 2731 1159 2009 
Q 1159 1288 1364 580 
Q 1569 -128 1984 -844 
L 1484 -844 
Q 1016 -109 783 600 
Q 550 1309 550 2009 
Q 550 2706 781 3412 
Q 1013 4119 1484 4856 
L 1984 4856 
z
" transform="scale(0.015625)"/>
      <path id="DejaVuSans-62" d="M 3116 1747 
Q 3116 2381 2855 2742 
Q 2594 3103 2138 3103 
Q 1681 3103 1420 2742 
Q 1159 2381 1159 1747 
Q 1159 1113 1420 752 
Q 1681 391 2138 391 
Q 2594 391 2855 752 
Q 3116 1113 3116 1747 
z
M 1159 2969 
Q 1341 3281 1617 3432 
Q 1894 3584 2278 3584 
Q 2916 3584 3314 3078 
Q 3713 2572 3713 1747 
Q 3713 922 3314 415 
Q 2916 -91 2278 -91 
Q 1894 -91 1617 61 
Q 1341 213 1159 525 
L 1159 0 
L 581 0 
L 581 4863 
L 1159 4863 
L 1159 2969 
z
" transform="scale(0.015625)"/>
      <path id="DejaVuSans-63" d="M 3122 3366 
L 3122 2828 
Q 2878 2963 2633 3030 
Q 2388 3097 2138 3097 
Q 1578 3097 1268 2742 
Q 959 2388 959 1747 
Q 959 1106 1268 751 
Q 1578 397 2138 397 
Q 2388 397 2633 464 
Q 2878 531 3122 666 
L 3122 134 
Q 2881 22 2623 -34 
Q 2366 -91 2075 -91 
Q 1284 -91 818 406 
Q 353 903 353 1747 
Q 353 2603 823 3093 
Q 1294 3584 2113 3584 
Q 2378 3584 2631 3529 
Q 2884 3475 3122 3366 
z
" transform="scale(0.015625)"/>
      <path id="DejaVuSans-2c" d="M 750 794 
L 1409 794 
L 1409 256 
L 897 -744 
L 494 -744 
L 750 256 
L 750 794 
z
" transform="scale(0.015625)"/>
      <path id="DejaVuSans-30" d="M 2034 4250 
Q 1547 4250 1301 3770 
Q 1056 3291 1056 2328 
Q 1056 1369 1301 889 
Q 1547 409 2034 409 
Q 2525 409 2770 889 
Q 3016 1369 3016 2328 
Q 3016 3291 2770 3770 
Q 2525 4250 2034 4250 
z
M 2034 4750 
Q 2819 4750 3233 4129 
Q 3647 3509 3647 2328 
Q 3647 1150 3233 529 
Q 2819 -91 2034 -91 
Q 1250 -91 836 529 
Q 422 1150 422 2328 
Q 422 3509 836 4129 
Q 1250 4750 2034 4750 
z
" transform="scale(0.015625)"/>
      <path id="DejaVuSans-29" d="M 513 4856 
L 1013 4856 
Q 1481 4119 1714 3412 
Q 1947 2706 1947 2009 
Q 1947 1309 1714 600 
Q 1481 -109 1013 -844 
L 513 -844 
Q 928 -128 1133 580 
Q 1338 1288 1338 2009 
Q 1338 2731 1133 3434 
Q 928 4138 513 4856 
z
" transform="scale(0.015625)"/>
     </defs>
     <use xlink:href="#DejaVuSans-73"/>
     <use xlink:href="#DejaVuSans-70" transform="translate(52.099609 0)"/>
     <use xlink:href="#DejaVuSans-69" transform="translate(115.576172 0)"/>
     <use xlink:href="#DejaVuSans-72" transform="translate(143.359375 0)"/>
     <use xlink:href="#DejaVuSans-61" transform="translate(184.472656 0)"/>
     <use xlink:href="#DejaVuSans-6c" transform="translate(245.751953 0)"/>
     <use xlink:href="#DejaVuSans-20" transform="translate(273.535156 0)"/>
     <use xlink:href="#DejaVuSans-69" transform="translate(305.322266 0)"/>
     <use xlink:href="#DejaVuSans-6e" transform="translate(333.105469 0)"/>
     <use xlink:href="#DejaVuSans-6e" transform="translate(396.484375 0)"/>
     <use xlink:href="#DejaVuSans-65" transform="translate(459.863281 0)"/>
     <use xlink:href="#DejaVuSans-72" transform="translate(521.386719 0)"/>
     <use xlink:href="#DejaVuSans-20" transform="translate(562.5 0)"/>
     <use xlink:href="#DejaVuSans-2f" transform="translate(594.287109 0)"/>
     <use xlink:href="#DejaVuSans-20" transform="translate(627.978516 0)"/>
     <use xlink:href="#DejaVuSans-6d" transform="translate(659.765625 0)"/>
     <use xlink:href="#DejaVuSans-69" transform="translate(757.177734 0)"/>
     <use xlink:href="#DejaVuSans-64" transform="translate(784.960938 0)"/>
     <use xlink:href="#DejaVuSans-64" transform="translate(848.4375 0)"/>
     <use xlink:href="#DejaVuSans-6c" transform="translate(911.914062 0)"/>
     <use xlink:href="#DejaVuSans-65" transform="translate(939.697266 0)"/>
     <use xlink:href="#DejaVuSans-20" transform="translate(1001.220703 0)"/>
     <use xlink:href="#DejaVuSans-2f" transform="translate(1033.007812 0)"/>
     <use xlink:href="#DejaVuSans-20" transform="translate(1066.699219 0)"/>
     <use xlink:href="#DejaVuSans-6f" transform="translate(1098.486328 0)"/>
     <use xlink:href="#DejaVuSans-75" transform="translate(1159.667969 0)"/>
     <use xlink:href="#DejaVuSans-74" transform="translate(1223.046875 0)"/>
     <use xlink:href="#DejaVuSans-65" transform="translate(1262.255859 0)"/>
     <use xlink:href="#DejaVuSans-72" transform="translate(1323.779297 0)"/>
     <use xlink:href="#DejaVuSans-20" transform="translate(1364.892578 0)"/>
     <use xlink:href="#DejaVuSans-20" transform="translate(1396.679688 0)"/>
     <use xlink:href="#DejaVuSans-28" transform="translate(1428.466797 0)"/>
     <use xlink:href="#DejaVuSans-62" transform="translate(1467.480469 0)"/>
     <use xlink:href="#DejaVuSans-61" transform="translate(1530.957031 0)"/>
     <use xlink:href="#DejaVuSans-63" transform="translate(1592.236328 0)"/>
     <use xlink:href="#DejaVuSans-6b" transform="translate(1647.216797 0)"/>
     <use xlink:href="#DejaVuSans-62" transform="translate(1705.126953 0)"/>
     <use xlink:href="#DejaVuSans-6f" transform="translate(1768.603516 0)"/>
     <use xlink:href="#DejaVuSans-6e" transform="translate(1829.785156 0)"/>
     <use xlink:href="#DejaVuSans-65" transform="translate(1893.164062 0)"/>
     <use xlink:href="#DejaVuSans-2c" transform="translate(1954.6875 0)"/>
     <use xlink:href="#DejaVuSans-20" transform="translate(1986.474609 0)"/>
     <use xlink:href="#DejaVuSans-6c" transform="translate(2018.261719 0)"/>
     <use xlink:href="#DejaVuSans-61" transform="translate(2046.044922 0)"/>
     <use xlink:href="#DejaVuSans-62" transform="translate(2107.324219 0)"/>
     <use xlink:href="#DejaVuSans-65" transform="translate(2170.800781 0)"/>
     <use xlink:href="#DejaVuSans-6c" transform="translate(2232.324219 0)"/>
     <use xlink:href="#DejaVuSans-20" transform="translate(2260.107422 0)"/>
     <use xlink:href="#DejaVuSans-30" transform="translate(2291.894531 0)"/>
     <use xlink:href="#DejaVuSans-29" transform="translate(2355.517578 0)"/>
    </g>
   </g>
   <g id="text_16">
    <!-- long tail  (tangent extension, label 0) -->
    <g transform="translate(47.581082 249.184237) scale(0.09 -0.09)">
     <defs>
      <path id="DejaVuSans-67" d="M 2906 1791 
Q 2906 2416 2648 2759 
Q 2391 3103 1925 3103 
Q 1463 3103 1205 2759 
Q 947 2416 947 1791 
Q 947 1169 1205 825 
Q 1463 481 1925 481 
Q 2391 481 2648 825 
Q 2906 1169 2906 1791 
z
M 3481 434 
Q 3481 -459 3084 -895 
Q 2688 -1331 1869 -1331 
Q 1566 -1331 1297 -1286 
Q 1028 -1241 775 -1147 
L 775 -588 
Q 1028 -725 1275 -790 
Q 1522 -856 1778 -856 
Q 2344 -856 2625 -561 
Q 2906 -266 2906 331 
L 2906 616 
Q 2728 306 2450 153 
Q 2172 0 1784 0 
Q 1141 0 747 490 
Q 353 981 353 1791 
Q 353 2603 747 3093 
Q 1141 3584 1784 3584 
Q 2172 3584 2450 3431 
Q 2728 3278 2906 2969 
L 2906 3500 
L 3481 3500 
L 3481 434 
z
" transform="scale(0.015625)"/>
      <path id="DejaVuSans-78" d="M 3513 3500 
L 2247 1797 
L 3578 0 
L 2900 0 
L 1881 1375 
L 863 0 
L 184 0 
L 1544 1831 
L 300 3500 
L 978 3500 
L 1906 2253 
L 2834 3500 
L 3513 3500 
z
" transform="scale(0.015625)"/>
     </defs>
     <use xlink:href="#DejaVuSans-6c"/>
     <use xlink:href="#DejaVuSans-6f" transform="translate(27.783203 0)"/>
     <use xlink:href="#DejaVuSans-6e" transform="translate(88.964844 0)"/>
     <use xlink:href="#DejaVuSans-67" transform="translate(152.34375 0)"/>
     <use xlink:href="#DejaVuSans-20" transform="translate(215.820312 0)"/>
     <use xlink:href="#DejaVuSans-74" transform="translate(247.607422 0)"/>
     <use xlink:href="#DejaVuSans-61" transform="translate(286.816406 0)"/>
     <use xlink:href="#DejaVuSans-69" transform="translate(348.095703 0)"/>
     <use xlink:href="#DejaVuSans-6c" transform="translate(375.878906 0)"/>
     <use xlink:href="#DejaVuSans-20" transform="translate(403.662109 0)"/>
     <use xlink:href="#DejaVuSans-20" transform="translate(435.449219 0)"/>
     <use xlink:href="#DejaVuSans-28" transform="translate(467.236328 0)"/>
     <use xlink:href="#DejaVuSans-74" transform="translate(506.25 0)"/>
     <use xlink:href="#DejaVuSans-61" transform="translate(545.458984 0)"/>
     <use xlink:href="#DejaVuSans-6e" transform="translate(606.738281 0)"/>
     <use xlink:href="#DejaVuSans-67" transform="translate(670.117188 0)"/>
     <use xlink:href="#DejaVuSans-65" transform="translate(733.59375 0)"/>
     <use xlink:href="#DejaVuSans-6e" transform="translate(795.117188 0)"/>
     <use xlink:href="#DejaVuSans-74" transform="translate(858.496094 0)"/>
     <use xlink:href="#DejaVuSans-20" transform="translate(897.705078 0)"/>
     <use xlink:href="#DejaVuSans-65" transform="translate(929.492188 0)"/>
     <use xlink:href="#DejaVuSans-78" transform="translate(989.265625 0)"/>
     <use xlink:href="#DejaVuSans-74" transform="translate(1048.445312 0)"/>
     <use xlink:href="#DejaVuSans-65" transform="translate(1087.654297 0)"/>
     <use xlink:href="#DejaVuSans-6e" transform="translate(1149.177734 0)"/>
     <use xlink:href="#DejaVuSans-73" transform="translate(1212.556641 0)"/>
     <use xlink:href="#DejaVuSans-69" transform="translate(1264.65625 0)"/>
     <use xlink:href="#DejaVuSans-6f" transform="translate(1292.439453 0)"/>
     <use xlink:href="#DejaVuSans-6e" transform="translate(1353.621094 0)"/>
     <use xlink:href="#DejaVuSans-2c" transform="translate(1417 0)"/>
     <use xlink:href="#DejaVuSans-20" transform="translate(1448.787109 0)"/>
     <use xlink:href="#DejaVuSans-6c" transform="translate(1480.574219 0)"/>
     <use xlink:href="#DejaVuSans-61" transform="translate(1508.357422 0)"/>
     <use xlink:href="#DejaVuSans-62" transform="translate(1569.636719 0)"/>
     <use xlink:href="#DejaVuSans-65" transform="translate(1633.113281 0)"/>
     <use xlink:href="#DejaVuSans-6c" transform="translate(1694.636719 0)"/>
     <use xlink:href="#DejaVuSans-20" transform="translate(1722.419922 0)"/>
     <use xlink:href="#DejaVuSans-30" transform="translate(1754.207031 0)"/>
     <use xlink:href="#DejaVuSans-29" transform="translate(1817.830078 0)"/>
    </g>
   </g>
   <g id="text_17">
    <!-- short tail  (off-axis branch, label 1) -->
    <g transform="translate(47.581082 270.140557) scale(0.09 -0.09)">
     <defs>
      <path id="DejaVuSans-68" d="M 3513 2113 
L 3513 0 
L 2938 0 
L 2938 2094 
Q 2938 2591 2744 2837 
Q 2550 3084 2163 3084 
Q 1697 3084 1428 2787 
Q 1159 2491 1159 1978 
L 1159 0 
L 581 0 
L 581 4863 
L 1159 4863 
L 1159 2956 
Q 1366 3272 1645 3428 
Q 1925 3584 2291 3584 
Q 2894 3584 3203 3211 
Q 3513 2838 3513 2113 
z
" transform="scale(0.015625)"/>
      <path id="DejaVuSans-31" d="M 794 531 
L 1825 531 
L 1825 4091 
L 703 3866 
L 703 4441 
L 1819 4666 
L 2450 4666 
L 2450 531 
L 3481 531 
L 3481 0 
L 794 0 
L 794 531 
z
" transform="scale(0.015625)"/>
     </defs>
     <use xlink:href="#DejaVuSans-73"/>
     <use xlink:href="#DejaVuSans-68" transform="translate(52.099609 0)"/>
     <use xlink:href="#DejaVuSans-6f" transform="translate(115.478516 0)"/>
     <use xlink:href="#DejaVuSans-72" transform="translate(176.660156 0)"/>
     <use xlink:href="#DejaVuSans-74" transform="translate(217.773438 0)"/>
     <use xlink:href="#DejaVuSans-20" transform="translate(256.982422 0)"/>
     <use xlink:href="#DejaVuSans-74" transform="translate(288.769531 0)"/>
     <use xlink:href="#DejaVuSans-61" transform="translate(327.978516 0)"/>
     <use xlink:href="#DejaVuSans-69" transform="translate(389.257812 0)"/>
     <use xlink:href="#DejaVuSans-6c" transform="translate(417.041016 0)"/>
     <use xlink:href="#DejaVuSans-20" transform="translate(444.824219 0)"/>
     <use xlink:href="#DejaVuSans-20" transform="translate(476.611328 0)"/>
     <use xlink:href="#DejaVuSans-28" transform="translate(508.398438 0)"/>
     <use xlink:href="#DejaVuSans-6f" transform="translate(547.412109 0)"/>
     <use xlink:href="#DejaVuSans-66" transform="translate(608.59375 0)"/>
     <use xlink:href="#DejaVuSans-66" transform="translate(643.798828 0)"/>
     <use xlink:href="#DejaVuSans-2d" transform="translate(673.503906 0)"/>
     <use xlink:href="#DejaVuSans-61" transform="translate(709.587891 0)"/>
     <use xlink:href="#DejaVuSans-78" transform="translate(770.867188 0)"/>
     <use xlink:href="#DejaVuSans-69" transform="translate(830.046875 0)"/>
     <use xlink:href="#DejaVuSans-73" transform="translate(857.830078 0)"/>
     <use xlink:href="#DejaVuSans-20" transform="translate(909.929688 0)"/>
     <use xlink:href="#DejaVuSans-62" transform="translate(941.716797 0)"/>
     <use xlink:href="#DejaVuSans-72" transform="translate(1005.193359 0)"/>
     <use xlink:href="#DejaVuSans-61" transform="translate(1046.306641 0)"/>
     <use xlink:href="#DejaVuSans-6e" transform="translate(1107.585938 0)"/>
     <use xlink:href="#DejaVuSans-63" transform="translate(1170.964844 0)"/>
     <use xlink:href="#DejaVuSans-68" transform="translate(1225.945312 0)"/>
     <use xlink:href="#DejaVuSans-2c" transform="translate(1289.324219 0)"/>
     <use xlink:href="#DejaVuSans-20" transform="translate(1321.111328 0)"/>
     <use xlink:href="#DejaVuSans-6c" transform="translate(1352.898438 0)"/>
     <use xlink:href="#DejaVuSans-61" transform="translate(1380.681641 0)"/>
     <use xlink:href="#DejaVuSans-62" transform="translate(1441.960938 0)"/>
     <use xlink:href="#DejaVuSans-65" transform="translate(1505.4375 0)"/>
     <use xlink:href="#DejaVuSans-6c" transform="translate(1566.960938 0)"/>
     <use xlink:href="#DejaVuSans-20" transform="translate(1594.744141 0)"/>
     <use xlink:href="#DejaVuSans-31" transform="translate(1626.53125 0)"/>
     <use xlink:href="#DejaVuSans-29" transform="translate(1690.154297 0)"/>
    </g>
   </g>
   <g id="text_18">
    <!-- Metric: signed Spearman ρ on geodesic arclen,  per region -->
    <g style="fill: #444444" transform="translate(40.915202 294.60096) scale(0.08 -0.08)">
     <defs>
      <path id="DejaVuSans-Oblique-4d" d="M 1081 4666 
L 2028 4666 
L 2572 1522 
L 4378 4666 
L 5350 4666 
L 4441 0 
L 3828 0 
L 4622 4091 
L 2791 897 
L 2175 897 
L 1581 4103 
L 788 0 
L 172 0 
L 1081 4666 
z
" transform="scale(0.015625)"/>
      <path id="DejaVuSans-Oblique-3a" d="M 978 3309 
L 1638 3309 
L 1484 2516 
L 825 2516 
L 978 3309 
z
M 488 794 
L 1147 794 
L 991 0 
L 331 0 
L 488 794 
z
" transform="scale(0.015625)"/>
      <path id="DejaVuSans-Oblique-53" d="M 3859 4513 
L 3738 3897 
Q 3422 4066 3111 4152 
Q 2800 4238 2509 4238 
Q 1944 4238 1609 3991 
Q 1275 3744 1275 3334 
Q 1275 3109 1398 2989 
Q 1522 2869 2034 2731 
L 2413 2638 
Q 3053 2472 3303 2217 
Q 3553 1963 3553 1503 
Q 3553 797 2998 353 
Q 2444 -91 1538 -91 
Q 1166 -91 791 -17 
Q 416 56 38 206 
L 166 856 
Q 513 641 861 531 
Q 1209 422 1556 422 
Q 2147 422 2503 684 
Q 2859 947 2859 1369 
Q 2859 1650 2717 1795 
Q 2575 1941 2106 2059 
L 1728 2156 
Q 1081 2325 845 2545 
Q 609 2766 609 3163 
Q 609 3859 1145 4304 
Q 1681 4750 2541 4750 
Q 2875 4750 3203 4690 
Q 3531 4631 3859 4513 
z
" transform="scale(0.015625)"/>
      <path id="DejaVuSans-Oblique-70" d="M 3175 2156 
Q 3175 2616 2975 2859 
Q 2775 3103 2400 3103 
Q 2144 3103 1911 2972 
Q 1678 2841 1497 2591 
Q 1319 2344 1212 1994 
Q 1106 1644 1106 1300 
Q 1106 863 1306 627 
Q 1506 391 1875 391 
Q 2147 391 2380 519 
Q 2613 647 2778 891 
Q 2956 1147 3065 1494 
Q 3175 1841 3175 2156 
z
M 1394 2969 
Q 1625 3272 1939 3428 
Q 2253 3584 2638 3584 
Q 3175 3584 3472 3232 
Q 3769 2881 3769 2247 
Q 3769 1728 3584 1258 
Q 3400 788 3053 416 
Q 2822 169 2531 39 
Q 2241 -91 1919 -91 
Q 1547 -91 1294 64 
Q 1041 219 916 525 
L 556 -1331 
L -19 -1331 
L 922 3500 
L 1497 3500 
L 1394 2969 
z
" transform="scale(0.015625)"/>
      <path id="DejaVuSans-Oblique-3c1" d="M 1203 2875 
Q 1453 3194 1981 3475 
Q 2188 3584 2756 3584 
Q 3394 3584 3694 3078 
Q 3994 2572 3834 1747 
Q 3672 922 3175 415 
Q 2678 -91 2041 -91 
Q 1656 -91 1409 63 
Q 1163 213 1044 525 
L 681 -1331 
L 103 -1331 
L 697 1716 
Q 838 2438 1203 2875 
z
M 3238 1747 
Q 3359 2381 3169 2744 
Q 2978 3103 2522 3103 
Q 2066 3103 1734 2744 
Q 1403 2381 1281 1747 
Q 1156 1113 1347 750 
Q 1538 391 1994 391 
Q 2450 391 2781 750 
Q 3113 1113 3238 1747 
z
" transform="scale(0.015625)"/>
      <path id="DejaVuSans-Oblique-2c" d="M 575 794 
L 1234 794 
L 1131 256 
L 422 -744 
L 19 -744 
L 469 256 
L 575 794 
z
" transform="scale(0.015625)"/>
     </defs>
     <use xlink:href="#DejaVuSans-Oblique-4d"/>
     <use xlink:href="#DejaVuSans-Oblique-65" transform="translate(86.279297 0)"/>
     <use xlink:href="#DejaVuSans-Oblique-74" transform="translate(147.802734 0)"/>
     <use xlink:href="#DejaVuSans-Oblique-72" transform="translate(187.011719 0)"/>
     <use xlink:href="#DejaVuSans-Oblique-69" transform="translate(228.125 0)"/>
     <use xlink:href="#DejaVuSans-Oblique-63" transform="translate(255.908203 0)"/>
     <use xlink:href="#DejaVuSans-Oblique-3a" transform="translate(310.888672 0)"/>
     <use xlink:href="#DejaVuSans-Oblique-20" transform="translate(344.580078 0)"/>
     <use xlink:href="#DejaVuSans-Oblique-73" transform="translate(376.367188 0)"/>
     <use xlink:href="#DejaVuSans-Oblique-69" transform="translate(428.466797 0)"/>
     <use xlink:href="#DejaVuSans-Oblique-67" transform="translate(456.25 0)"/>
     <use xlink:href="#DejaVuSans-Oblique-6e" transform="translate(519.726562 0)"/>
     <use xlink:href="#DejaVuSans-Oblique-65" transform="translate(583.105469 0)"/>
     <use xlink:href="#DejaVuSans-Oblique-64" transform="translate(644.628906 0)"/>
     <use xlink:href="#DejaVuSans-Oblique-20" transform="translate(708.105469 0)"/>
     <use xlink:href="#DejaVuSans-Oblique-53" transform="translate(739.892578 0)"/>
     <use xlink:href="#DejaVuSans-Oblique-70" transform="translate(803.369141 0)"/>
     <use xlink:href="#DejaVuSans-Oblique-65" transform="translate(866.845703 0)"/>
     <use xlink:href="#DejaVuSans-Oblique-61" transform="translate(928.369141 0)"/>
     <use xlink:href="#DejaVuSans-Oblique-72" transform="translate(989.648438 0)"/>
     <use xlink:href="#DejaVuSans-Oblique-6d" transform="translate(1030.761719 0)"/>
     <use xlink:href="#DejaVuSans-Oblique-61" transform="translate(1128.173828 0)"/>
     <use xlink:href="#DejaVuSans-Oblique-6e" transform="translate(1189.453125 0)"/>
     <use xlink:href="#DejaVuSans-Oblique-20" transform="translate(1252.832031 0)"/>
     <use xlink:href="#DejaVuSans-Oblique-3c1" transform="translate(1284.619141 0)"/>
     <use xlink:href="#DejaVuSans-Oblique-20" transform="translate(1348.095703 0)"/>
     <use xlink:href="#DejaVuSans-Oblique-6f" transform="translate(1379.882812 0)"/>
     <use xlink:href="#DejaVuSans-Oblique-6e" transform="translate(1441.064453 0)"/>
     <use xlink:href="#DejaVuSans-Oblique-20" transform="translate(1504.443359 0)"/>
     <use xlink:href="#DejaVuSans-Oblique-67" transform="translate(1536.230469 0)"/>
     <use xlink:href="#DejaVuSans-Oblique-65" transform="translate(1599.707031 0)"/>
     <use xlink:href="#DejaVuSans-Oblique-6f" transform="translate(1661.230469 0)"/>
     <use xlink:href="#DejaVuSans-Oblique-64" transform="translate(1722.412109 0)"/>
     <use xlink:href="#DejaVuSans-Oblique-65" transform="translate(1785.888672 0)"/>
     <use xlink:href="#DejaVuSans-Oblique-73" transform="translate(1847.412109 0)"/>
     <use xlink:href="#DejaVuSans-Oblique-69" transform="translate(1899.511719 0)"/>
     <use xlink:href="#DejaVuSans-Oblique-63" transform="translate(1927.294922 0)"/>
     <use xlink:href="#DejaVuSans-Oblique-20" transform="translate(1982.275391 0)"/>
     <use xlink:href="#DejaVuSans-Oblique-61" transform="translate(2014.0625 0)"/>
     <use xlink:href="#DejaVuSans-Oblique-72" transform="translate(2075.341797 0)"/>
     <use xlink:href="#DejaVuSans-Oblique-63" transform="translate(2116.455078 0)"/>
     <use xlink:href="#DejaVuSans-Oblique-6c" transform="translate(2171.435547 0)"/>
     <use xlink:href="#DejaVuSans-Oblique-65" transform="translate(2199.21875 0)"/>
     <use xlink:href="#DejaVuSans-Oblique-6e" transform="translate(2260.742188 0)"/>
     <use xlink:href="#DejaVuSans-Oblique-2c" transform="translate(2324.121094 0)"/>
     <use xlink:href="#DejaVuSans-Oblique-20" transform="translate(2355.908203 0)"/>
     <use xlink:href="#DejaVuSans-Oblique-20" transform="translate(2387.695312 0)"/>
     <use xlink:href="#DejaVuSans-Oblique-70" transform="translate(2419.482422 0)"/>
     <use xlink:href="#DejaVuSans-Oblique-65" transform="translate(2482.958984 0)"/>
     <use xlink:href="#DejaVuSans-Oblique-72" transform="translate(2544.482422 0)"/>
     <use xlink:href="#DejaVuSans-Oblique-20" transform="translate(2585.595703 0)"/>
     <use xlink:href="#DejaVuSans-Oblique-72" transform="translate(2617.382812 0)"/>
     <use xlink:href="#DejaVuSans-Oblique-65" transform="translate(2658.496094 0)"/>
     <use xlink:href="#DejaVuSans-Oblique-67" transform="translate(2720.019531 0)"/>
     <use xlink:href="#DejaVuSans-Oblique-69" transform="translate(2783.496094 0)"/>
     <use xlink:href="#DejaVuSans-Oblique-6f" transform="translate(2811.279297 0)"/>
     <use xlink:href="#DejaVuSans-Oblique-6e" transform="translate(2872.460938 0)"/>
    </g>
   </g>
  </g>
 </g>
 <defs>
  <clipPath id="p9a44731051">
   <rect x="8.662202" y="7.2" width="299.376" height="299.376"/>
  </clipPath>
 </defs>
</svg>
