<?xml version="1.0" encoding="utf-8" standalone="no"?>
<!DOCTYPE svg PUBLIC "-//W3C//DTD SVG 1.1//EN"
  "http://www.w3.org/Graphics/SVG/1.1/DTD/svg11.dtd">
<svg xmlns:xlink="http://www.w3.org/1999/xlink" width="335.955pt" height="313.776pt" viewBox="0 0 335.955 313.776" xmlns="http://www.w3.org/2000/svg" version="1.1">
 <metadata>
  <rdf:RDF xmlns:dc="http://purl.org/dc/elements/1.1/" xmlns:cc="http://creativecommons.org/ns#" xmlns:rdf="http://www.w3.org/1999/02/22-rdf-syntax-ns#">
   <cc:Work>
    <dc:type rdf:resource="http://purl.org/dc/dcmitype/StillImage"/>
    <dc:date>2026-04-13T15:11:46.688566</dc:date>
    <dc:format>image/svg+xml</dc:format>
    <dc:creator>
     <cc:Agent>
      <dc:title>Matplotlib v3.10.8, https://matplotlib.org/</dc:title>
     </cc:Agent>
    </dc:creator>
   </cc:Work>
  </rdf:RDF>
 </metadata>
 <defs>
  <style type="text/css">*{stroke-linejoin: round; stroke-linecap: butt}</style>
 </defs>
 <g id="figure_1">
  <g id="patch_1">
   <path d="M 0 313.776 
L 335.955 313.776 
L 335.955 0 
L 0 0 
z
" style="fill: #ffffff"/>
  </g>
  <g id="axes_1">
   <g id="line2d_1">
    <path d="M 90.13974 132.93792 
L 91.696495 121.262256 
" clip-path="url(#pc5a5c5c70b)" style="fill: none; stroke: #2c5aa0; stroke-opacity: 0.45; stroke-width: 0.4; stroke-linecap: square"/>
   </g>
   <g id="line2d_2">
    <path d="M 82.253282 118.282428 
L 83.810037 106.606764 
" clip-path="url(#pc5a5c5c70b)" style="fill: none; stroke: #2c5aa0; stroke-opacity: 0.45; stroke-width: 0.4; stroke-linecap: square"/>
   </g>
   <g id="line2d_3">
    <path d="M 61.607533 124.406906 
L 63.164288 112.731242 
" clip-path="url(#pc5a5c5c70b)" style="fill: none; stroke: #2c5aa0; stroke-opacity: 0.45; stroke-width: 0.4; stroke-linecap: square"/>
   </g>
   <g id="line2d_4">
    <path d="M 64.317352 150.080019 
L 65.874107 138.404355 
" clip-path="url(#pc5a5c5c70b)" style="fill: none; stroke: #2c5aa0; stroke-opacity: 0.45; stroke-width: 0.4; stroke-linecap: square"/>
   </g>
   <g id="line2d_5">
    <path d="M 94.315704 152.602427 
L 95.872459 140.926763 
" clip-path="url(#pc5a5c5c70b)" style="fill: none; stroke: #2c5aa0; stroke-opacity: 0.45; stroke-width: 0.4; stroke-linecap: square"/>
   </g>
   <g id="patch_2">
    <path d="M 126.06486 132.93792 
Q 164.98374 132.93792 201.666552 132.93792 
" clip-path="url(#pc5a5c5c70b)" style="fill: none; stroke: #1a1a1a; stroke-width: 2; stroke-linecap: round"/>
    <path d="M 192.866552 128.53792 
L 201.666552 132.93792 
L 192.866552 137.33792 
z
" clip-path="url(#pc5a5c5c70b)" style="fill: #1a1a1a; stroke: #1a1a1a; stroke-width: 2; stroke-linecap: round"/>
   </g>
   <g id="line2d_6">
    <path d="M 90.13974 132.93792 
L 90.281908 132.108363 
L 90.365891 131.25944 
L 90.389713 130.395278 
L 90.351695 129.520185 
L 90.250468 128.638625 
L 90.084986 127.755198 
L 89.854542 126.874613 
L 89.558775 126.001668 
L 89.197679 125.141222 
L 88.771609 124.298165 
L 88.281288 123.4774 
L 87.727806 122.683805 
L 87.112624 121.922214 
L 86.437569 121.197385 
L 85.704833 120.513972 
L 84.916966 119.8765 
L 84.07687 119.289333 
L 83.187785 118.756653 
L 82.253282 118.282428 
L 81.277245 117.870393 
L 80.263857 117.524018 
L 79.217584 117.24649 
L 78.14315 117.04069 
L 77.045522 116.90917 
L 75.929883 116.854134 
L 74.801609 116.877424 
L 73.666241 116.980499 
L 72.529463 117.164424 
L 71.397067 117.429856 
L 70.274928 117.777037 
L 69.168975 118.20578 
L 68.085155 118.715469 
L 67.029406 119.305054 
L 66.007623 119.973048 
L 65.025626 120.717529 
L 64.089131 121.536142 
L 63.203714 122.426109 
L 62.374779 123.384232 
L 61.607533 124.406906 
L 60.906947 125.490132 
L 60.277733 126.629531 
L 59.724313 127.820363 
L 59.250789 129.057542 
L 58.860922 130.335664 
L 58.5581 131.649027 
L 58.345324 132.991653 
L 58.225177 134.357324 
L 58.199812 135.739601 
L 58.27093 137.131862 
L 58.439768 138.527329 
L 58.707082 139.919103 
L 59.07314 141.300198 
L 59.537712 142.663575 
L 60.100063 144.002177 
L 60.758952 145.308968 
L 61.512629 146.576968 
L 62.358842 147.799289 
L 63.294832 148.96917 
L 64.317352 150.080019 
L 65.422667 151.125444 
L 66.606572 152.09929 
L 67.864407 152.995675 
L 69.191071 153.809021 
L 70.581048 154.53409 
L 72.028423 155.166012 
L 73.526912 155.700317 
L 75.069889 156.13296 
L 76.65041 156.460351 
L 78.26125 156.679377 
L 79.894934 156.787424 
L 81.543771 156.782396 
L 83.199891 156.662734 
L 84.85528 156.427428 
L 86.501826 156.076033 
L 88.131348 155.608674 
L 89.735646 155.026057 
L 91.306537 154.329467 
L 92.835897 153.520774 
L 94.315704 152.602427 
" clip-path="url(#pc5a5c5c70b)" style="fill: none; stroke: #2c5aa0; stroke-opacity: 0.3; stroke-width: 1.05; stroke-linecap: square"/>
   </g>
   <g id="line2d_7">
    <path d="M 94.315704 152.602427 
L 96.22942 151.321409 
L 98.143135 150.040391 
L 100.05685 148.759374 
L 101.970566 147.478356 
L 103.884281 146.197338 
L 105.797996 144.91632 
L 107.711712 143.635303 
L 109.625427 142.354285 
L 111.539143 141.073267 
L 113.452858 139.792249 
L 115.366573 138.511232 
L 117.280289 137.230214 
L 119.194004 135.949196 
" clip-path="url(#pc5a5c5c70b)" style="fill: none; stroke: #1b8a4c; stroke-opacity: 0.3; stroke-width: 1.3; stroke-linecap: square"/>
   </g>
   <g id="line2d_8">
    <path d="M 94.315704 152.602427 
L 95.259892 150.683765 
L 96.204079 148.765103 
L 97.148267 146.84644 
L 98.092454 144.927778 
L 99.036641 143.009116 
L 99.980829 141.090454 
L 100.925016 139.171792 
" clip-path="url(#pc5a5c5c70b)" style="fill: none; stroke: #c0392b; stroke-opacity: 0.3; stroke-width: 1.3; stroke-linecap: square"/>
   </g>
   <g id="line2d_9">
    <path d="M 90.528929 130.019004 
L 90.671096 129.189447 
L 90.755079 128.340524 
L 90.778902 127.476362 
L 90.740884 126.601269 
L 90.639656 125.719709 
L 90.474175 124.836282 
L 90.243731 123.955697 
L 89.947964 123.082752 
L 89.586867 122.222306 
L 89.160798 121.379249 
L 88.670477 120.558484 
L 88.116995 119.764889 
L 87.501812 119.003298 
L 86.826757 118.278469 
L 86.094021 117.595056 
L 85.306155 116.957584 
L 84.466059 116.370417 
L 83.576974 115.837737 
L 82.642471 115.363512 
L 81.666434 114.951477 
L 80.653046 114.605102 
L 79.606773 114.327574 
L 78.532339 114.121774 
L 77.434711 113.990254 
L 76.319072 113.935218 
L 75.190798 113.958508 
L 74.05543 114.061583 
L 72.918651 114.245508 
L 71.786255 114.51094 
L 70.664117 114.858121 
L 69.558164 115.286864 
L 68.474344 115.796553 
L 67.418595 116.386138 
L 66.396812 117.054132 
L 65.414815 117.798613 
L 64.47832 118.617226 
L 63.592902 119.507193 
L 62.763968 120.465316 
L 61.996721 121.48799 
L 61.296136 122.571216 
L 60.666922 123.710615 
L 60.113502 124.901447 
L 59.639978 126.138626 
L 59.25011 127.416748 
L 58.947289 128.730111 
L 58.734513 130.072737 
L 58.614366 131.438408 
L 58.589001 132.820685 
L 58.660119 134.212946 
L 58.828957 135.608413 
L 59.096271 137.000187 
L 59.462329 138.381282 
L 59.926901 139.744659 
L 60.489252 141.083261 
L 61.14814 142.390052 
L 61.901818 143.658052 
L 62.74803 144.880373 
L 63.684021 146.050254 
L 64.706541 147.161103 
L 65.811856 148.206528 
L 66.995761 149.180374 
L 68.253595 150.076759 
L 69.58026 150.890105 
L 70.970236 151.615174 
L 72.417612 152.247096 
L 73.916101 152.781401 
L 75.459078 153.214044 
L 77.039599 153.541435 
L 78.650439 153.760461 
L 80.284123 153.868508 
L 81.93296 153.86348 
L 83.589079 153.743818 
L 85.244469 153.508512 
L 86.891014 153.157117 
L 88.520537 152.689758 
L 90.124835 152.107141 
L 91.695725 151.410551 
L 93.225086 150.601858 
L 94.704893 149.683511 
" clip-path="url(#pc5a5c5c70b)" style="fill: none; stroke: #2c5aa0; stroke-opacity: 0.45; stroke-width: 1.05; stroke-linecap: square"/>
   </g>
   <g id="line2d_10">
    <path d="M 94.704893 149.683511 
L 96.618608 148.402493 
L 98.532324 147.121475 
L 100.446039 145.840458 
L 102.359754 144.55944 
L 104.27347 143.278422 
L 106.187185 141.997404 
L 108.100901 140.716387 
L 110.014616 139.435369 
L 111.928331 138.154351 
L 113.842047 136.873333 
L 115.755762 135.592316 
L 117.669477 134.311298 
L 119.583193 133.03028 
" clip-path="url(#pc5a5c5c70b)" style="fill: none; stroke: #1b8a4c; stroke-opacity: 0.45; stroke-width: 1.3; stroke-linecap: square"/>
   </g>
   <g id="line2d_11">
    <path d="M 94.704893 149.683511 
L 95.64908 147.764849 
L 96.593268 145.846187 
L 97.537455 143.927524 
L 98.481643 142.008862 
L 99.42583 140.0902 
L 100.370018 138.171538 
L 101.314205 136.252876 
" clip-path="url(#pc5a5c5c70b)" style="fill: none; stroke: #c0392b; stroke-opacity: 0.45; stroke-width: 1.3; stroke-linecap: square"/>
   </g>
   <g id="line2d_12">
    <path d="M 90.918118 127.100088 
L 91.060285 126.270531 
L 91.144268 125.421608 
L 91.168091 124.557446 
L 91.130073 123.682353 
L 91.028845 122.800793 
L 90.863363 121.917366 
L 90.632919 121.036781 
L 90.337152 120.163836 
L 89.976056 119.30339 
L 89.549986 118.460333 
L 89.059665 117.639568 
L 88.506184 116.845973 
L 87.891001 116.084382 
L 87.215946 115.359553 
L 86.48321 114.67614 
L 85.695344 114.038668 
L 84.855247 113.451501 
L 83.966163 112.918821 
L 83.031659 112.444596 
L 82.055622 112.032561 
L 81.042235 111.686186 
L 79.995961 111.408658 
L 78.921528 111.202858 
L 77.8239 111.071338 
L 76.708261 111.016302 
L 75.579986 111.039592 
L 74.444619 111.142667 
L 73.30784 111.326592 
L 72.175444 111.592024 
L 71.053306 111.939205 
L 69.947353 112.367948 
L 68.863533 112.877637 
L 67.807784 113.467222 
L 66.786 114.135216 
L 65.804004 114.879697 
L 64.867509 115.69831 
L 63.982091 116.588277 
L 63.153157 117.5464 
L 62.38591 118.569074 
L 61.685324 119.6523 
L 61.056111 120.791699 
L 60.502691 121.982531 
L 60.029167 123.21971 
L 59.639299 124.497832 
L 59.336478 125.811195 
L 59.123701 127.153821 
L 59.003554 128.519492 
L 58.978189 129.901769 
L 59.049308 131.29403 
L 59.218146 132.689497 
L 59.48546 134.081271 
L 59.851518 135.462366 
L 60.316089 136.825743 
L 60.87844 138.164345 
L 61.537329 139.471136 
L 62.291007 140.739136 
L 63.137219 141.961457 
L 64.07321 143.131338 
L 65.095729 144.242187 
L 66.201044 145.287612 
L 67.38495 146.261458 
L 68.642784 147.157843 
L 69.969449 147.971189 
L 71.359425 148.696258 
L 72.8068 149.32818 
L 74.30529 149.862485 
L 75.848266 150.295128 
L 77.428788 150.622519 
L 79.039628 150.841545 
L 80.673312 150.949592 
L 82.322149 150.944564 
L 83.978268 150.824902 
L 85.633658 150.589596 
L 87.280203 150.238201 
L 88.909725 149.770842 
L 90.514023 149.188225 
L 92.084914 148.491635 
L 93.614274 147.682942 
L 95.094082 146.764595 
" clip-path="url(#pc5a5c5c70b)" style="fill: none; stroke: #2c5aa0; stroke-opacity: 0.6; stroke-width: 1.05; stroke-linecap: square"/>
   </g>
   <g id="line2d_13">
    <path d="M 95.094082 146.764595 
L 97.007797 145.483577 
L 98.921513 144.202559 
L 100.835228 142.921542 
L 102.748943 141.640524 
L 104.662659 140.359506 
L 106.576374 139.078488 
L 108.490089 137.797471 
L 110.403805 136.516453 
L 112.31752 135.235435 
L 114.231235 133.954417 
L 116.144951 132.6734 
L 118.058666 131.392382 
L 119.972382 130.111364 
" clip-path="url(#pc5a5c5c70b)" style="fill: none; stroke: #1b8a4c; stroke-opacity: 0.6; stroke-width: 1.3; stroke-linecap: square"/>
   </g>
   <g id="line2d_14">
    <path d="M 95.094082 146.764595 
L 96.038269 144.845933 
L 96.982457 142.927271 
L 97.926644 141.008608 
L 98.870832 139.089946 
L 99.815019 137.171284 
L 100.759206 135.252622 
L 101.703394 133.33396 
" clip-path="url(#pc5a5c5c70b)" style="fill: none; stroke: #c0392b; stroke-opacity: 0.6; stroke-width: 1.3; stroke-linecap: square"/>
   </g>
   <g id="line2d_15">
    <path d="M 91.307306 124.181172 
L 91.449474 123.351615 
L 91.533457 122.502692 
L 91.55728 121.63853 
L 91.519262 120.763437 
L 91.418034 119.881877 
L 91.252552 118.99845 
L 91.022108 118.117865 
L 90.726341 117.24492 
L 90.365245 116.384474 
L 89.939175 115.541417 
L 89.448854 114.720652 
L 88.895372 113.927057 
L 88.28019 113.165466 
L 87.605135 112.440637 
L 86.872399 111.757224 
L 86.084533 111.119752 
L 85.244436 110.532585 
L 84.355352 109.999905 
L 83.420848 109.52568 
L 82.444811 109.113645 
L 81.431424 108.76727 
L 80.38515 108.489742 
L 79.310717 108.283942 
L 78.213089 108.152422 
L 77.09745 108.097386 
L 75.969175 108.120676 
L 74.833808 108.223751 
L 73.697029 108.407676 
L 72.564633 108.673108 
L 71.442495 109.020289 
L 70.336542 109.449032 
L 69.252722 109.958721 
L 68.196972 110.548306 
L 67.175189 111.2163 
L 66.193193 111.960781 
L 65.256698 112.779394 
L 64.37128 113.669361 
L 63.542346 114.627484 
L 62.775099 115.650158 
L 62.074513 116.733384 
L 61.4453 117.872783 
L 60.891879 119.063615 
L 60.418356 120.300794 
L 60.028488 121.578916 
L 59.725667 122.892279 
L 59.51289 124.234905 
L 59.392743 125.600576 
L 59.367378 126.982853 
L 59.438497 128.375114 
L 59.607334 129.770581 
L 59.874649 131.162355 
L 60.240707 132.54345 
L 60.705278 133.906827 
L 61.267629 135.245429 
L 61.926518 136.55222 
L 62.680196 137.82022 
L 63.526408 139.042541 
L 64.462399 140.212422 
L 65.484918 141.323271 
L 66.590233 142.368696 
L 67.774138 143.342542 
L 69.031973 144.238927 
L 70.358637 145.052273 
L 71.748614 145.777342 
L 73.195989 146.409264 
L 74.694479 146.943569 
L 76.237455 147.376212 
L 77.817976 147.703603 
L 79.428817 147.922629 
L 81.062501 148.030676 
L 82.711338 148.025648 
L 84.367457 147.905986 
L 86.022847 147.67068 
L 87.669392 147.319285 
L 89.298914 146.851926 
L 90.903212 146.269309 
L 92.474103 145.572719 
L 94.003463 144.764026 
L 95.483271 143.845679 
" clip-path="url(#pc5a5c5c70b)" style="fill: none; stroke: #2c5aa0; stroke-opacity: 0.75; stroke-width: 1.05; stroke-linecap: square"/>
   </g>
   <g id="line2d_16">
    <path d="M 95.483271 143.845679 
L 97.396986 142.564661 
L 99.310701 141.283643 
L 101.224417 140.002626 
L 103.138132 138.721608 
L 105.051847 137.44059 
L 106.965563 136.159572 
L 108.879278 134.878555 
L 110.792994 133.597537 
L 112.706709 132.316519 
L 114.620424 131.035501 
L 116.53414 129.754484 
L 118.447855 128.473466 
L 120.36157 127.192448 
" clip-path="url(#pc5a5c5c70b)" style="fill: none; stroke: #1b8a4c; stroke-opacity: 0.75; stroke-width: 1.3; stroke-linecap: square"/>
   </g>
   <g id="line2d_17">
    <path d="M 95.483271 143.845679 
L 96.427458 141.927017 
L 97.371646 140.008355 
L 98.315833 138.089692 
L 99.26002 136.17103 
L 100.204208 134.252368 
L 101.148395 132.333706 
L 102.092583 130.415044 
" clip-path="url(#pc5a5c5c70b)" style="fill: none; stroke: #c0392b; stroke-opacity: 0.75; stroke-width: 1.3; stroke-linecap: square"/>
   </g>
   <g id="line2d_18">
    <path d="M 91.696495 121.262256 
L 91.838663 120.432699 
L 91.922646 119.583776 
L 91.946468 118.719614 
L 91.90845 117.844521 
L 91.807223 116.962961 
L 91.641741 116.079534 
L 91.411297 115.198949 
L 91.11553 114.326004 
L 90.754434 113.465558 
L 90.328364 112.622501 
L 89.838043 111.801736 
L 89.284561 111.008141 
L 88.669379 110.24655 
L 87.994324 109.521721 
L 87.261588 108.838308 
L 86.473721 108.200836 
L 85.633625 107.613669 
L 84.74454 107.080989 
L 83.810037 106.606764 
L 82.834 106.194729 
L 81.820612 105.848354 
L 80.774339 105.570826 
L 79.699905 105.365026 
L 78.602278 105.233506 
L 77.486638 105.17847 
L 76.358364 105.20176 
L 75.222996 105.304835 
L 74.086218 105.48876 
L 72.953822 105.754192 
L 71.831684 106.101373 
L 70.725731 106.530116 
L 69.641911 107.039805 
L 68.586161 107.62939 
L 67.564378 108.297384 
L 66.582382 109.041865 
L 65.645887 109.860478 
L 64.760469 110.750445 
L 63.931534 111.708568 
L 63.164288 112.731242 
L 62.463702 113.814468 
L 61.834488 114.953867 
L 61.281068 116.144699 
L 60.807545 117.381878 
L 60.417677 118.66 
L 60.114856 119.973363 
L 59.902079 121.315989 
L 59.781932 122.68166 
L 59.756567 124.063937 
L 59.827685 125.456198 
L 59.996523 126.851665 
L 60.263837 128.243439 
L 60.629896 129.624534 
L 61.094467 130.987911 
L 61.656818 132.326513 
L 62.315707 133.633304 
L 63.069385 134.901304 
L 63.915597 136.123625 
L 64.851587 137.293506 
L 65.874107 138.404355 
L 66.979422 139.44978 
L 68.163327 140.423626 
L 69.421162 141.320011 
L 70.747826 142.133357 
L 72.137803 142.858426 
L 73.585178 143.490348 
L 75.083668 144.024653 
L 76.626644 144.457296 
L 78.207165 144.784687 
L 79.818005 145.003713 
L 81.45169 145.11176 
L 83.100526 145.106732 
L 84.756646 144.98707 
L 86.412036 144.751764 
L 88.058581 144.400369 
L 89.688103 143.93301 
L 91.292401 143.350393 
L 92.863292 142.653803 
L 94.392652 141.84511 
L 95.872459 140.926763 
" clip-path="url(#pc5a5c5c70b)" style="fill: none; stroke: #2c5aa0; stroke-opacity: 0.9; stroke-width: 1.05; stroke-linecap: square"/>
   </g>
   <g id="line2d_19">
    <path d="M 95.872459 140.926763 
L 97.786175 139.645745 
L 99.69989 138.364727 
L 101.613606 137.08371 
L 103.527321 135.802692 
L 105.441036 134.521674 
L 107.354752 133.240656 
L 109.268467 131.959639 
L 111.182182 130.678621 
L 113.095898 129.397603 
L 115.009613 128.116585 
L 116.923328 126.835568 
L 118.837044 125.55455 
L 120.750759 124.273532 
" clip-path="url(#pc5a5c5c70b)" style="fill: none; stroke: #1b8a4c; stroke-opacity: 0.9; stroke-width: 1.3; stroke-linecap: square"/>
   </g>
   <g id="line2d_20">
    <path d="M 95.872459 140.926763 
L 96.816647 139.008101 
L 97.760834 137.089439 
L 98.705022 135.170776 
L 99.649209 133.252114 
L 100.593397 131.333452 
L 101.537584 129.41479 
L 102.481772 127.496128 
" clip-path="url(#pc5a5c5c70b)" style="fill: none; stroke: #c0392b; stroke-opacity: 0.9; stroke-width: 1.3; stroke-linecap: square"/>
   </g>
   <g id="line2d_21">
    <path d="M 263.77782 132.93792 
L 263.919988 132.108363 
L 264.003971 131.25944 
L 264.027793 130.395278 
L 263.989775 129.520185 
L 263.888548 128.638625 
L 263.723066 127.755198 
L 263.492622 126.874613 
L 263.196855 126.001668 
L 262.835759 125.141222 
L 262.409689 124.298165 
L 261.919368 123.4774 
L 261.365886 122.683805 
L 260.750704 121.922214 
L 260.075649 121.197385 
L 259.342913 120.513972 
L 258.555046 119.8765 
L 257.71495 119.289333 
L 256.825865 118.756653 
L 255.891362 118.282428 
L 254.915325 117.870393 
L 253.901937 117.524018 
L 252.855664 117.24649 
L 251.78123 117.04069 
L 250.683602 116.90917 
L 249.567963 116.854134 
L 248.439689 116.877424 
L 247.304321 116.980499 
L 246.167543 117.164424 
L 245.035147 117.429856 
L 243.913008 117.777037 
L 242.807055 118.20578 
L 241.723235 118.715469 
L 240.667486 119.305054 
L 239.645703 119.973048 
L 238.663706 120.717529 
L 237.727211 121.536142 
L 236.841794 122.426109 
L 236.012859 123.384232 
L 235.245613 124.406906 
L 234.545027 125.490132 
L 233.915813 126.629531 
L 233.362393 127.820363 
L 232.888869 129.057542 
L 232.499002 130.335664 
L 232.19618 131.649027 
L 231.983404 132.991653 
L 231.863257 134.357324 
L 231.837892 135.739601 
L 231.90901 137.131862 
L 232.077848 138.527329 
L 232.345162 139.919103 
L 232.71122 141.300198 
L 233.175792 142.663575 
L 233.738143 144.002177 
L 234.397032 145.308968 
L 235.150709 146.576968 
L 235.996922 147.799289 
L 236.932912 148.96917 
L 237.955432 150.080019 
L 239.060747 151.125444 
L 240.244652 152.09929 
L 241.502487 152.995675 
L 242.829151 153.809021 
L 244.219128 154.53409 
L 245.666503 155.166012 
L 247.164992 155.700317 
L 248.707969 156.13296 
L 250.28849 156.460351 
L 251.89933 156.679377 
L 253.533014 156.787424 
L 255.181851 156.782396 
L 256.837971 156.662734 
L 258.49336 156.427428 
L 260.139906 156.076033 
L 261.769428 155.608674 
L 263.373726 155.026057 
L 264.944617 154.329467 
L 266.473977 153.520774 
L 267.953784 152.602427 
" clip-path="url(#pc5a5c5c70b)" style="fill: none; stroke: #2c5aa0; stroke-width: 1.7; stroke-linecap: square"/>
   </g>
   <g id="line2d_22">
    <path d="M 267.953784 152.602427 
L 269.8675 151.321409 
L 271.781215 150.040391 
L 273.69493 148.759374 
L 275.608646 147.478356 
L 277.522361 146.197338 
L 279.436076 144.91632 
L 281.349792 143.635303 
L 283.263507 142.354285 
L 285.177223 141.073267 
L 287.090938 139.792249 
L 289.004653 138.511232 
L 290.918369 137.230214 
L 292.832084 135.949196 
" clip-path="url(#pc5a5c5c70b)" style="fill: none; stroke: #1b8a4c; stroke-width: 1.9; stroke-linecap: square"/>
   </g>
   <g id="line2d_23">
    <path d="M 267.953784 152.602427 
L 268.897972 150.683765 
L 269.842159 148.765103 
L 270.786347 146.84644 
L 271.730534 144.927778 
L 272.674721 143.009116 
L 273.618909 141.090454 
L 274.563096 139.171792 
" clip-path="url(#pc5a5c5c70b)" style="fill: none; stroke: #c0392b; stroke-width: 1.9; stroke-linecap: square"/>
   </g>
   <g id="text_1">
    <!-- Experiment design -->
    <g style="fill: #1a1a1a" transform="translate(93.944844 28.315972) scale(0.14 -0.14)">
     <defs>
      <path id="DejaVuSans-Bold-45" d="M 588 4666 
L 3834 4666 
L 3834 3756 
L 1791 3756 
L 1791 2888 
L 3713 2888 
L 3713 1978 
L 1791 1978 
L 1791 909 
L 3903 909 
L 3903 0 
L 588 0 
L 588 4666 
z
" transform="scale(0.015625)"/>
      <path id="DejaVuSans-Bold-78" d="M 1422 1791 
L 159 3500 
L 1344 3500 
L 2059 2463 
L 2784 3500 
L 3969 3500 
L 2706 1797 
L 4031 0 
L 2847 0 
L 2059 1106 
L 1281 0 
L 97 0 
L 1422 1791 
z
" transform="scale(0.015625)"/>
      <path id="DejaVuSans-Bold-70" d="M 1656 506 
L 1656 -1331 
L 538 -1331 
L 538 3500 
L 1656 3500 
L 1656 2988 
Q 1888 3294 2169 3439 
Q 2450 3584 2816 3584 
Q 3463 3584 3878 3070 
Q 4294 2556 4294 1747 
Q 4294 938 3878 423 
Q 3463 -91 2816 -91 
Q 2450 -91 2169 54 
Q 1888 200 1656 506 
z
M 2400 2772 
Q 2041 2772 1848 2508 
Q 1656 2244 1656 1747 
Q 1656 1250 1848 986 
Q 2041 722 2400 722 
Q 2759 722 2948 984 
Q 3138 1247 3138 1747 
Q 3138 2247 2948 2509 
Q 2759 2772 2400 2772 
z
" transform="scale(0.015625)"/>
      <path id="DejaVuSans-Bold-65" d="M 4031 1759 
L 4031 1441 
L 1416 1441 
Q 1456 1047 1700 850 
Q 1944 653 2381 653 
Q 2734 653 3104 758 
Q 3475 863 3866 1075 
L 3866 213 
Q 3469 63 3072 -14 
Q 2675 -91 2278 -91 
Q 1328 -91 801 392 
Q 275 875 275 1747 
Q 275 2603 792 3093 
Q 1309 3584 2216 3584 
Q 3041 3584 3536 3087 
Q 4031 2591 4031 1759 
z
M 2881 2131 
Q 2881 2450 2695 2645 
Q 2509 2841 2209 2841 
Q 1884 2841 1681 2658 
Q 1478 2475 1428 2131 
L 2881 2131 
z
" transform="scale(0.015625)"/>
      <path id="DejaVuSans-Bold-72" d="M 3138 2547 
Q 2991 2616 2845 2648 
Q 2700 2681 2553 2681 
Q 2122 2681 1889 2404 
Q 1656 2128 1656 1613 
L 1656 0 
L 538 0 
L 538 3500 
L 1656 3500 
L 1656 2925 
Q 1872 3269 2151 3426 
Q 2431 3584 2822 3584 
Q 2878 3584 2943 3579 
Q 3009 3575 3134 3559 
L 3138 2547 
z
" transform="scale(0.015625)"/>
      <path id="DejaVuSans-Bold-69" d="M 538 3500 
L 1656 3500 
L 1656 0 
L 538 0 
L 538 3500 
z
M 538 4863 
L 1656 4863 
L 1656 3950 
L 538 3950 
L 538 4863 
z
" transform="scale(0.015625)"/>
      <path id="DejaVuSans-Bold-6d" d="M 3781 2919 
Q 3994 3244 4286 3414 
Q 4578 3584 4928 3584 
Q 5531 3584 5847 3212 
Q 6163 2841 6163 2131 
L 6163 0 
L 5038 0 
L 5038 1825 
Q 5041 1866 5042 1909 
Q 5044 1953 5044 2034 
Q 5044 2406 4934 2573 
Q 4825 2741 4581 2741 
Q 4263 2741 4089 2478 
Q 3916 2216 3909 1719 
L 3909 0 
L 2784 0 
L 2784 1825 
Q 2784 2406 2684 2573 
Q 2584 2741 2328 2741 
Q 2006 2741 1831 2477 
Q 1656 2213 1656 1722 
L 1656 0 
L 531 0 
L 531 3500 
L 1656 3500 
L 1656 2988 
Q 1863 3284 2130 3434 
Q 2397 3584 2719 3584 
Q 3081 3584 3359 3409 
Q 3638 3234 3781 2919 
z
" transform="scale(0.015625)"/>
      <path id="DejaVuSans-Bold-6e" d="M 4056 2131 
L 4056 0 
L 2931 0 
L 2931 347 
L 2931 1631 
Q 2931 2084 2911 2256 
Q 2891 2428 2841 2509 
Q 2775 2619 2662 2680 
Q 2550 2741 2406 2741 
Q 2056 2741 1856 2470 
Q 1656 2200 1656 1722 
L 1656 0 
L 538 0 
L 538 3500 
L 1656 3500 
L 1656 2988 
Q 1909 3294 2193 3439 
Q 2478 3584 2822 3584 
Q 3428 3584 3742 3212 
Q 4056 2841 4056 2131 
z
" transform="scale(0.015625)"/>
      <path id="DejaVuSans-Bold-74" d="M 1759 4494 
L 1759 3500 
L 2913 3500 
L 2913 2700 
L 1759 2700 
L 1759 1216 
Q 1759 972 1856 886 
Q 1953 800 2241 800 
L 2816 800 
L 2816 0 
L 1856 0 
Q 1194 0 917 276 
Q 641 553 641 1216 
L 641 2700 
L 84 2700 
L 84 3500 
L 641 3500 
L 641 4494 
L 1759 4494 
z
" transform="scale(0.015625)"/>
      <path id="DejaVuSans-Bold-20" transform="scale(0.015625)"/>
      <path id="DejaVuSans-Bold-64" d="M 2919 2988 
L 2919 4863 
L 4044 4863 
L 4044 0 
L 2919 0 
L 2919 506 
Q 2688 197 2409 53 
Q 2131 -91 1766 -91 
Q 1119 -91 703 423 
Q 288 938 288 1747 
Q 288 2556 703 3070 
Q 1119 3584 1766 3584 
Q 2128 3584 2408 3439 
Q 2688 3294 2919 2988 
z
M 2181 722 
Q 2541 722 2730 984 
Q 2919 1247 2919 1747 
Q 2919 2247 2730 2509 
Q 2541 2772 2181 2772 
Q 1825 2772 1636 2509 
Q 1447 2247 1447 1747 
Q 1447 1247 1636 984 
Q 1825 722 2181 722 
z
" transform="scale(0.015625)"/>
      <path id="DejaVuSans-Bold-73" d="M 3272 3391 
L 3272 2541 
Q 2913 2691 2578 2766 
Q 2244 2841 1947 2841 
Q 1628 2841 1473 2761 
Q 1319 2681 1319 2516 
Q 1319 2381 1436 2309 
Q 1553 2238 1856 2203 
L 2053 2175 
Q 2913 2066 3209 1816 
Q 3506 1566 3506 1031 
Q 3506 472 3093 190 
Q 2681 -91 1863 -91 
Q 1516 -91 1145 -36 
Q 775 19 384 128 
L 384 978 
Q 719 816 1070 734 
Q 1422 653 1784 653 
Q 2113 653 2278 743 
Q 2444 834 2444 1013 
Q 2444 1163 2330 1236 
Q 2216 1309 1875 1350 
L 1678 1375 
Q 931 1469 631 1722 
Q 331 1975 331 2491 
Q 331 3047 712 3315 
Q 1094 3584 1881 3584 
Q 2191 3584 2531 3537 
Q 2872 3491 3272 3391 
z
" transform="scale(0.015625)"/>
      <path id="DejaVuSans-Bold-67" d="M 2919 594 
Q 2688 288 2409 144 
Q 2131 0 1766 0 
Q 1125 0 706 504 
Q 288 1009 288 1791 
Q 288 2575 706 3076 
Q 1125 3578 1766 3578 
Q 2131 3578 2409 3434 
Q 2688 3291 2919 2981 
L 2919 3500 
L 4044 3500 
L 4044 353 
Q 4044 -491 3511 -936 
Q 2978 -1381 1966 -1381 
Q 1638 -1381 1331 -1331 
Q 1025 -1281 716 -1178 
L 716 -306 
Q 1009 -475 1290 -558 
Q 1572 -641 1856 -641 
Q 2406 -641 2662 -400 
Q 2919 -159 2919 353 
L 2919 594 
z
M 2181 2772 
Q 1834 2772 1640 2515 
Q 1447 2259 1447 1791 
Q 1447 1309 1634 1061 
Q 1822 813 2181 813 
Q 2531 813 2725 1069 
Q 2919 1325 2919 1791 
Q 2919 2259 2725 2515 
Q 2531 2772 2181 2772 
z
" transform="scale(0.015625)"/>
     </defs>
     <use xlink:href="#DejaVuSans-Bold-45"/>
     <use xlink:href="#DejaVuSans-Bold-78" transform="translate(68.310547 0)"/>
     <use xlink:href="#DejaVuSans-Bold-70" transform="translate(132.8125 0)"/>
     <use xlink:href="#DejaVuSans-Bold-65" transform="translate(204.394531 0)"/>
     <use xlink:href="#DejaVuSans-Bold-72" transform="translate(272.216797 0)"/>
     <use xlink:href="#DejaVuSans-Bold-69" transform="translate(321.533203 0)"/>
     <use xlink:href="#DejaVuSans-Bold-6d" transform="translate(355.810547 0)"/>
     <use xlink:href="#DejaVuSans-Bold-65" transform="translate(460.009766 0)"/>
     <use xlink:href="#DejaVuSans-Bold-6e" transform="translate(527.832031 0)"/>
     <use xlink:href="#DejaVuSans-Bold-74" transform="translate(599.023438 0)"/>
     <use xlink:href="#DejaVuSans-Bold-20" transform="translate(646.826172 0)"/>
     <use xlink:href="#DejaVuSans-Bold-64" transform="translate(681.640625 0)"/>
     <use xlink:href="#DejaVuSans-Bold-65" transform="translate(753.222656 0)"/>
     <use xlink:href="#DejaVuSans-Bold-73" transform="translate(821.044922 0)"/>
     <use xlink:href="#DejaVuSans-Bold-69" transform="translate(880.566406 0)"/>
     <use xlink:href="#DejaVuSans-Bold-67" transform="translate(914.84375 0)"/>
     <use xlink:href="#DejaVuSans-Bold-6e" transform="translate(986.425781 0)"/>
    </g>
   </g>
   <g id="text_2">
    <!-- Y-fork manifold alignment $\,\,\mathbb{R}^{3} \rightarrow \mathbb{R}^{2}$ -->
    <g style="fill: #666666" transform="translate(77.1525 40.70508) scale(0.105 -0.105)">
     <defs>
      <path id="DejaVuSans-59" d="M -13 4666 
L 666 4666 
L 1959 2747 
L 3244 4666 
L 3922 4666 
L 2272 2222 
L 2272 0 
L 1638 0 
L 1638 2222 
L -13 4666 
z
" transform="scale(0.015625)"/>
      <path id="DejaVuSans-2d" d="M 313 2009 
L 1997 2009 
L 1997 1497 
L 313 1497 
L 313 2009 
z
" transform="scale(0.015625)"/>
      <path id="DejaVuSans-66" d="M 2375 4863 
L 2375 4384 
L 1825 4384 
Q 1516 4384 1395 4259 
Q 1275 4134 1275 3809 
L 1275 3500 
L 2222 3500 
L 2222 3053 
L 1275 3053 
L 1275 0 
L 697 0 
L 697 3053 
L 147 3053 
L 147 3500 
L 697 3500 
L 697 3744 
Q 697 4328 969 4595 
Q 1241 4863 1831 4863 
L 2375 4863 
z
" transform="scale(0.015625)"/>
      <path id="DejaVuSans-6f" d="M 1959 3097 
Q 1497 3097 1228 2736 
Q 959 2375 959 1747 
Q 959 1119 1226 758 
Q 1494 397 1959 397 
Q 2419 397 2687 759 
Q 2956 1122 2956 1747 
Q 2956 2369 2687 2733 
Q 2419 3097 1959 3097 
z
M 1959 3584 
Q 2709 3584 3137 3096 
Q 3566 2609 3566 1747 
Q 3566 888 3137 398 
Q 2709 -91 1959 -91 
Q 1206 -91 779 398 
Q 353 888 353 1747 
Q 353 2609 779 3096 
Q 1206 3584 1959 3584 
z
" transform="scale(0.015625)"/>
      <path id="DejaVuSans-72" d="M 2631 2963 
Q 2534 3019 2420 3045 
Q 2306 3072 2169 3072 
Q 1681 3072 1420 2755 
Q 1159 2438 1159 1844 
L 1159 0 
L 581 0 
L 581 3500 
L 1159 3500 
L 1159 2956 
Q 1341 3275 1631 3429 
Q 1922 3584 2338 3584 
Q 2397 3584 2469 3576 
Q 2541 3569 2628 3553 
L 2631 2963 
z
" transform="scale(0.015625)"/>
      <path id="DejaVuSans-6b" d="M 581 4863 
L 1159 4863 
L 1159 1991 
L 2875 3500 
L 3609 3500 
L 1753 1863 
L 3688 0 
L 2938 0 
L 1159 1709 
L 1159 0 
L 581 0 
L 581 4863 
z
" transform="scale(0.015625)"/>
      <path id="DejaVuSans-20" transform="scale(0.015625)"/>
      <path id="DejaVuSans-6d" d="M 3328 2828 
Q 3544 3216 3844 3400 
Q 4144 3584 4550 3584 
Q 5097 3584 5394 3201 
Q 5691 2819 5691 2113 
L 5691 0 
L 5113 0 
L 5113 2094 
Q 5113 2597 4934 2840 
Q 4756 3084 4391 3084 
Q 3944 3084 3684 2787 
Q 3425 2491 3425 1978 
L 3425 0 
L 2847 0 
L 2847 2094 
Q 2847 2600 2669 2842 
Q 2491 3084 2119 3084 
Q 1678 3084 1418 2786 
Q 1159 2488 1159 1978 
L 1159 0 
L 581 0 
L 581 3500 
L 1159 3500 
L 1159 2956 
Q 1356 3278 1631 3431 
Q 1906 3584 2284 3584 
Q 2666 3584 2933 3390 
Q 3200 3197 3328 2828 
z
" transform="scale(0.015625)"/>
      <path id="DejaVuSans-61" d="M 2194 1759 
Q 1497 1759 1228 1600 
Q 959 1441 959 1056 
Q 959 750 1161 570 
Q 1363 391 1709 391 
Q 2188 391 2477 730 
Q 2766 1069 2766 1631 
L 2766 1759 
L 2194 1759 
z
M 3341 1997 
L 3341 0 
L 2766 0 
L 2766 531 
Q 2569 213 2275 61 
Q 1981 -91 1556 -91 
Q 1019 -91 701 211 
Q 384 513 384 1019 
Q 384 1609 779 1909 
Q 1175 2209 1959 2209 
L 2766 2209 
L 2766 2266 
Q 2766 2663 2505 2880 
Q 2244 3097 1772 3097 
Q 1472 3097 1187 3025 
Q 903 2953 641 2809 
L 641 3341 
Q 956 3463 1253 3523 
Q 1550 3584 1831 3584 
Q 2591 3584 2966 3190 
Q 3341 2797 3341 1997 
z
" transform="scale(0.015625)"/>
      <path id="DejaVuSans-6e" d="M 3513 2113 
L 3513 0 
L 2938 0 
L 2938 2094 
Q 2938 2591 2744 2837 
Q 2550 3084 2163 3084 
Q 1697 3084 1428 2787 
Q 1159 2491 1159 1978 
L 1159 0 
L 581 0 
L 581 3500 
L 1159 3500 
L 1159 2956 
Q 1366 3272 1645 3428 
Q 1925 3584 2291 3584 
Q 2894 3584 3203 3211 
Q 3513 2838 3513 2113 
z
" transform="scale(0.015625)"/>
      <path id="DejaVuSans-69" d="M 603 3500 
L 1178 3500 
L 1178 0 
L 603 0 
L 603 3500 
z
M 603 4863 
L 1178 4863 
L 1178 4134 
L 603 4134 
L 603 4863 
z
" transform="scale(0.015625)"/>
      <path id="DejaVuSans-6c" d="M 603 4863 
L 1178 4863 
L 1178 0 
L 603 0 
L 603 4863 
z
" transform="scale(0.015625)"/>
      <path id="DejaVuSans-64" d="M 2906 2969 
L 2906 4863 
L 3481 4863 
L 3481 0 
L 2906 0 
L 2906 525 
Q 2725 213 2448 61 
Q 2172 -91 1784 -91 
Q 1150 -91 751 415 
Q 353 922 353 1747 
Q 353 2572 751 3078 
Q 1150 3584 1784 3584 
Q 2172 3584 2448 3432 
Q 2725 3281 2906 2969 
z
M 947 1747 
Q 947 1113 1208 752 
Q 1469 391 1925 391 
Q 2381 391 2643 752 
Q 2906 1113 2906 1747 
Q 2906 2381 2643 2742 
Q 2381 3103 1925 3103 
Q 1469 3103 1208 2742 
Q 947 2381 947 1747 
z
" transform="scale(0.015625)"/>
      <path id="DejaVuSans-67" d="M 2906 1791 
Q 2906 2416 2648 2759 
Q 2391 3103 1925 3103 
Q 1463 3103 1205 2759 
Q 947 2416 947 1791 
Q 947 1169 1205 825 
Q 1463 481 1925 481 
Q 2391 481 2648 825 
Q 2906 1169 2906 1791 
z
M 3481 434 
Q 3481 -459 3084 -895 
Q 2688 -1331 1869 -1331 
Q 1566 -1331 1297 -1286 
Q 1028 -1241 775 -1147 
L 775 -588 
Q 1028 -725 1275 -790 
Q 1522 -856 1778 -856 
Q 2344 -856 2625 -561 
Q 2906 -266 2906 331 
L 2906 616 
Q 2728 306 2450 153 
Q 2172 0 1784 0 
Q 1141 0 747 490 
Q 353 981 353 1791 
Q 353 2603 747 3093 
Q 1141 3584 1784 3584 
Q 2172 3584 2450 3431 
Q 2728 3278 2906 2969 
L 2906 3500 
L 3481 3500 
L 3481 434 
z
" transform="scale(0.015625)"/>
      <path id="DejaVuSans-65" d="M 3597 1894 
L 3597 1613 
L 953 1613 
Q 991 1019 1311 708 
Q 1631 397 2203 397 
Q 2534 397 2845 478 
Q 3156 559 3463 722 
L 3463 178 
Q 3153 47 2828 -22 
Q 2503 -91 2169 -91 
Q 1331 -91 842 396 
Q 353 884 353 1716 
Q 353 2575 817 3079 
Q 1281 3584 2069 3584 
Q 2775 3584 3186 3129 
Q 3597 2675 3597 1894 
z
M 3022 2063 
Q 3016 2534 2758 2815 
Q 2500 3097 2075 3097 
Q 1594 3097 1305 2825 
Q 1016 2553 972 2059 
L 3022 2063 
z
" transform="scale(0.015625)"/>
      <path id="DejaVuSans-74" d="M 1172 4494 
L 1172 3500 
L 2356 3500 
L 2356 3053 
L 1172 3053 
L 1172 1153 
Q 1172 725 1289 603 
Q 1406 481 1766 481 
L 2356 481 
L 2356 0 
L 1766 0 
Q 1100 0 847 248 
Q 594 497 594 1153 
L 594 3053 
L 172 3053 
L 172 3500 
L 594 3500 
L 594 4494 
L 1172 4494 
z
" transform="scale(0.015625)"/>
      <path id="STIXGeneral-Italic-211d" d="M 1229 4179 
L 3360 4179 
Q 3827 4179 4108 3894 
Q 4390 3610 4390 3142 
Q 4390 2554 4060 2186 
Q 3731 1818 3149 1715 
L 4026 0 
L 2925 0 
L 2125 1690 
L 1549 1690 
L 1094 0 
L 109 0 
L 1229 4179 
z
M 3866 3821 
L 3392 2022 
Q 3770 2144 3962 2438 
Q 4154 2733 4154 3136 
Q 4154 3584 3866 3821 
z
M 3142 1978 
L 3648 3872 
Q 3450 3942 3296 3942 
L 2150 3942 
L 1613 1926 
L 2630 1926 
Q 2957 1926 3142 1978 
z
M 3629 237 
L 2899 1696 
Q 2829 1683 2682 1683 
Q 2630 1683 2531 1686 
Q 2432 1690 2387 1690 
L 3072 237 
L 3629 237 
z
M 1907 3942 
L 1408 3942 
L 416 237 
L 915 237 
L 1907 3942 
z
" transform="scale(0.015625)"/>
      <path id="DejaVuSans-33" d="M 2597 2516 
Q 3050 2419 3304 2112 
Q 3559 1806 3559 1356 
Q 3559 666 3084 287 
Q 2609 -91 1734 -91 
Q 1441 -91 1130 -33 
Q 819 25 488 141 
L 488 750 
Q 750 597 1062 519 
Q 1375 441 1716 441 
Q 2309 441 2620 675 
Q 2931 909 2931 1356 
Q 2931 1769 2642 2001 
Q 2353 2234 1838 2234 
L 1294 2234 
L 1294 2753 
L 1863 2753 
Q 2328 2753 2575 2939 
Q 2822 3125 2822 3475 
Q 2822 3834 2567 4026 
Q 2313 4219 1838 4219 
Q 1578 4219 1281 4162 
Q 984 4106 628 3988 
L 628 4550 
Q 988 4650 1302 4700 
Q 1616 4750 1894 4750 
Q 2613 4750 3031 4423 
Q 3450 4097 3450 3541 
Q 3450 3153 3228 2886 
Q 3006 2619 2597 2516 
z
" transform="scale(0.015625)"/>
      <path id="DejaVuSans-2192" d="M 5050 2147 
L 5050 1866 
L 3822 638 
L 3447 1013 
L 4175 1741 
L 366 1741 
L 366 2272 
L 4175 2272 
L 3447 3000 
L 3822 3375 
L 5050 2147 
z
" transform="scale(0.015625)"/>
      <path id="DejaVuSans-32" d="M 1228 531 
L 3431 531 
L 3431 0 
L 469 0 
L 469 531 
Q 828 903 1448 1529 
Q 2069 2156 2228 2338 
Q 2531 2678 2651 2914 
Q 2772 3150 2772 3378 
Q 2772 3750 2511 3984 
Q 2250 4219 1831 4219 
Q 1534 4219 1204 4116 
Q 875 4013 500 3803 
L 500 4441 
Q 881 4594 1212 4672 
Q 1544 4750 1819 4750 
Q 2544 4750 2975 4387 
Q 3406 4025 3406 3419 
Q 3406 3131 3298 2873 
Q 3191 2616 2906 2266 
Q 2828 2175 2409 1742 
Q 1991 1309 1228 531 
z
" transform="scale(0.015625)"/>
     </defs>
     <use xlink:href="#DejaVuSans-59" transform="translate(0 0.765625)"/>
     <use xlink:href="#DejaVuSans-2d" transform="translate(61.083984 0.765625)"/>
     <use xlink:href="#DejaVuSans-66" transform="translate(97.167969 0.765625)"/>
     <use xlink:href="#DejaVuSans-6f" transform="translate(132.373047 0.765625)"/>
     <use xlink:href="#DejaVuSans-72" transform="translate(193.554688 0.765625)"/>
     <use xlink:href="#DejaVuSans-6b" transform="translate(234.667969 0.765625)"/>
     <use xlink:href="#DejaVuSans-20" transform="translate(292.578125 0.765625)"/>
     <use xlink:href="#DejaVuSans-6d" transform="translate(324.365234 0.765625)"/>
     <use xlink:href="#DejaVuSans-61" transform="translate(421.777344 0.765625)"/>
     <use xlink:href="#DejaVuSans-6e" transform="translate(483.056641 0.765625)"/>
     <use xlink:href="#DejaVuSans-69" transform="translate(546.435547 0.765625)"/>
     <use xlink:href="#DejaVuSans-66" transform="translate(574.21875 0.765625)"/>
     <use xlink:href="#DejaVuSans-6f" transform="translate(609.423828 0.765625)"/>
     <use xlink:href="#DejaVuSans-6c" transform="translate(670.605469 0.765625)"/>
     <use xlink:href="#DejaVuSans-64" transform="translate(698.388672 0.765625)"/>
     <use xlink:href="#DejaVuSans-20" transform="translate(761.865234 0.765625)"/>
     <use xlink:href="#DejaVuSans-61" transform="translate(793.652344 0.765625)"/>
     <use xlink:href="#DejaVuSans-6c" transform="translate(854.931641 0.765625)"/>
     <use xlink:href="#DejaVuSans-69" transform="translate(882.714844 0.765625)"/>
     <use xlink:href="#DejaVuSans-67" transform="translate(910.498047 0.765625)"/>
     <use xlink:href="#DejaVuSans-6e" transform="translate(973.974609 0.765625)"/>
     <use xlink:href="#DejaVuSans-6d" transform="translate(1037.353516 0.765625)"/>
     <use xlink:href="#DejaVuSans-65" transform="translate(1134.765625 0.765625)"/>
     <use xlink:href="#DejaVuSans-6e" transform="translate(1196.289062 0.765625)"/>
     <use xlink:href="#DejaVuSans-74" transform="translate(1259.667969 0.765625)"/>
     <use xlink:href="#DejaVuSans-20" transform="translate(1298.876953 0.765625)"/>
     <use xlink:href="#STIXGeneral-Italic-211d" transform="translate(1363.135415 0.765625)"/>
     <use xlink:href="#DejaVuSans-33" transform="translate(1437.786855 39.046875) scale(0.7)"/>
     <use xlink:href="#DejaVuSans-2192" transform="translate(1504.539785 0.765625)"/>
     <use xlink:href="#STIXGeneral-Italic-211d" transform="translate(1607.811269 0.765625)"/>
     <use xlink:href="#DejaVuSans-32" transform="translate(1682.462709 39.046875) scale(0.7)"/>
    </g>
   </g>
   <g id="patch_3">
    <path d="M 31.76142 154.885338 
Q 31.76142 132.935274 31.76142 111.991441 
" style="fill: none; stroke: #666666; stroke-width: 0.9; stroke-linecap: round"/>
    <path d="M 30.16142 115.191441 
L 31.76142 111.991441 
L 33.36142 115.191441 
z
" style="fill: #666666; stroke: #666666; stroke-width: 0.9; stroke-linecap: round"/>
   </g>
   <g id="text_3">
    <!-- $z$ -->
    <g style="fill: #666666" transform="translate(34.75518 135.697295) scale(0.1 -0.1)">
     <defs>
      <path id="DejaVuSans-Oblique-7a" d="M 744 3500 
L 3475 3500 
L 3372 2975 
L 738 459 
L 2913 459 
L 2822 0 
L -19 0 
L 84 525 
L 2719 3041 
L 653 3041 
L 744 3500 
z
" transform="scale(0.015625)"/>
     </defs>
     <use xlink:href="#DejaVuSans-Oblique-7a" transform="translate(0 0.3125)"/>
    </g>
   </g>
   <g id="text_4">
    <!-- Source $\,\mathbb{R}^{3}$ -->
    <g style="fill: #1a1a1a" transform="translate(44.4447 58.230765) scale(0.12 -0.12)">
     <defs>
      <path id="DejaVuSans-Bold-53" d="M 3834 4519 
L 3834 3531 
Q 3450 3703 3084 3790 
Q 2719 3878 2394 3878 
Q 1963 3878 1756 3759 
Q 1550 3641 1550 3391 
Q 1550 3203 1689 3098 
Q 1828 2994 2194 2919 
L 2706 2816 
Q 3484 2659 3812 2340 
Q 4141 2022 4141 1434 
Q 4141 663 3683 286 
Q 3225 -91 2284 -91 
Q 1841 -91 1394 -6 
Q 947 78 500 244 
L 500 1259 
Q 947 1022 1364 901 
Q 1781 781 2169 781 
Q 2563 781 2772 912 
Q 2981 1044 2981 1288 
Q 2981 1506 2839 1625 
Q 2697 1744 2272 1838 
L 1806 1941 
Q 1106 2091 782 2419 
Q 459 2747 459 3303 
Q 459 4000 909 4375 
Q 1359 4750 2203 4750 
Q 2588 4750 2994 4692 
Q 3400 4634 3834 4519 
z
" transform="scale(0.015625)"/>
      <path id="DejaVuSans-Bold-6f" d="M 2203 2784 
Q 1831 2784 1636 2517 
Q 1441 2250 1441 1747 
Q 1441 1244 1636 976 
Q 1831 709 2203 709 
Q 2569 709 2762 976 
Q 2956 1244 2956 1747 
Q 2956 2250 2762 2517 
Q 2569 2784 2203 2784 
z
M 2203 3584 
Q 3106 3584 3614 3096 
Q 4122 2609 4122 1747 
Q 4122 884 3614 396 
Q 3106 -91 2203 -91 
Q 1297 -91 786 396 
Q 275 884 275 1747 
Q 275 2609 786 3096 
Q 1297 3584 2203 3584 
z
" transform="scale(0.015625)"/>
      <path id="DejaVuSans-Bold-75" d="M 500 1363 
L 500 3500 
L 1625 3500 
L 1625 3150 
Q 1625 2866 1622 2436 
Q 1619 2006 1619 1863 
Q 1619 1441 1641 1255 
Q 1663 1069 1716 984 
Q 1784 875 1895 815 
Q 2006 756 2150 756 
Q 2500 756 2700 1025 
Q 2900 1294 2900 1772 
L 2900 3500 
L 4019 3500 
L 4019 0 
L 2900 0 
L 2900 506 
Q 2647 200 2364 54 
Q 2081 -91 1741 -91 
Q 1134 -91 817 281 
Q 500 653 500 1363 
z
" transform="scale(0.015625)"/>
      <path id="DejaVuSans-Bold-63" d="M 3366 3391 
L 3366 2478 
Q 3138 2634 2908 2709 
Q 2678 2784 2431 2784 
Q 1963 2784 1702 2511 
Q 1441 2238 1441 1747 
Q 1441 1256 1702 982 
Q 1963 709 2431 709 
Q 2694 709 2930 787 
Q 3166 866 3366 1019 
L 3366 103 
Q 3103 6 2833 -42 
Q 2563 -91 2291 -91 
Q 1344 -91 809 395 
Q 275 881 275 1747 
Q 275 2613 809 3098 
Q 1344 3584 2291 3584 
Q 2566 3584 2833 3536 
Q 3100 3488 3366 3391 
z
" transform="scale(0.015625)"/>
     </defs>
     <use xlink:href="#DejaVuSans-Bold-53" transform="translate(0 0.765625)"/>
     <use xlink:href="#DejaVuSans-Bold-6f" transform="translate(72.021484 0.765625)"/>
     <use xlink:href="#DejaVuSans-Bold-75" transform="translate(140.722656 0.765625)"/>
     <use xlink:href="#DejaVuSans-Bold-72" transform="translate(211.914062 0.765625)"/>
     <use xlink:href="#DejaVuSans-Bold-63" transform="translate(261.230469 0.765625)"/>
     <use xlink:href="#DejaVuSans-Bold-65" transform="translate(320.507812 0.765625)"/>
     <use xlink:href="#DejaVuSans-Bold-20" transform="translate(388.330078 0.765625)"/>
     <use xlink:href="#STIXGeneral-Italic-211d" transform="translate(439.380208 0.765625)"/>
     <use xlink:href="#DejaVuSans-33" transform="translate(514.031648 39.046875) scale(0.7)"/>
    </g>
   </g>
   <g id="text_5">
    <!-- Y-fork Swiss roll  ·  N = 4000 -->
    <g style="fill: #666666" transform="translate(14.594466 69.423154) scale(0.09 -0.09)">
     <defs>
      <path id="DejaVuSans-53" d="M 3425 4513 
L 3425 3897 
Q 3066 4069 2747 4153 
Q 2428 4238 2131 4238 
Q 1616 4238 1336 4038 
Q 1056 3838 1056 3469 
Q 1056 3159 1242 3001 
Q 1428 2844 1947 2747 
L 2328 2669 
Q 3034 2534 3370 2195 
Q 3706 1856 3706 1288 
Q 3706 609 3251 259 
Q 2797 -91 1919 -91 
Q 1588 -91 1214 -16 
Q 841 59 441 206 
L 441 856 
Q 825 641 1194 531 
Q 1563 422 1919 422 
Q 2459 422 2753 634 
Q 3047 847 3047 1241 
Q 3047 1584 2836 1778 
Q 2625 1972 2144 2069 
L 1759 2144 
Q 1053 2284 737 2584 
Q 422 2884 422 3419 
Q 422 4038 858 4394 
Q 1294 4750 2059 4750 
Q 2388 4750 2728 4690 
Q 3069 4631 3425 4513 
z
" transform="scale(0.015625)"/>
      <path id="DejaVuSans-77" d="M 269 3500 
L 844 3500 
L 1563 769 
L 2278 3500 
L 2956 3500 
L 3675 769 
L 4391 3500 
L 4966 3500 
L 4050 0 
L 3372 0 
L 2619 2869 
L 1863 0 
L 1184 0 
L 269 3500 
z
" transform="scale(0.015625)"/>
      <path id="DejaVuSans-73" d="M 2834 3397 
L 2834 2853 
Q 2591 2978 2328 3040 
Q 2066 3103 1784 3103 
Q 1356 3103 1142 2972 
Q 928 2841 928 2578 
Q 928 2378 1081 2264 
Q 1234 2150 1697 2047 
L 1894 2003 
Q 2506 1872 2764 1633 
Q 3022 1394 3022 966 
Q 3022 478 2636 193 
Q 2250 -91 1575 -91 
Q 1294 -91 989 -36 
Q 684 19 347 128 
L 347 722 
Q 666 556 975 473 
Q 1284 391 1588 391 
Q 1994 391 2212 530 
Q 2431 669 2431 922 
Q 2431 1156 2273 1281 
Q 2116 1406 1581 1522 
L 1381 1569 
Q 847 1681 609 1914 
Q 372 2147 372 2553 
Q 372 3047 722 3315 
Q 1072 3584 1716 3584 
Q 2034 3584 2315 3537 
Q 2597 3491 2834 3397 
z
" transform="scale(0.015625)"/>
      <path id="DejaVuSans-b7" d="M 684 2619 
L 1344 2619 
L 1344 1825 
L 684 1825 
L 684 2619 
z
" transform="scale(0.015625)"/>
      <path id="DejaVuSans-4e" d="M 628 4666 
L 1478 4666 
L 3547 763 
L 3547 4666 
L 4159 4666 
L 4159 0 
L 3309 0 
L 1241 3903 
L 1241 0 
L 628 0 
L 628 4666 
z
" transform="scale(0.015625)"/>
      <path id="DejaVuSans-3d" d="M 678 2906 
L 4684 2906 
L 4684 2381 
L 678 2381 
L 678 2906 
z
M 678 1631 
L 4684 1631 
L 4684 1100 
L 678 1100 
L 678 1631 
z
" transform="scale(0.015625)"/>
      <path id="DejaVuSans-34" d="M 2419 4116 
L 825 1625 
L 2419 1625 
L 2419 4116 
z
M 2253 4666 
L 3047 4666 
L 3047 1625 
L 3713 1625 
L 3713 1100 
L 3047 1100 
L 3047 0 
L 2419 0 
L 2419 1100 
L 313 1100 
L 313 1709 
L 2253 4666 
z
" transform="scale(0.015625)"/>
      <path id="DejaVuSans-30" d="M 2034 4250 
Q 1547 4250 1301 3770 
Q 1056 3291 1056 2328 
Q 1056 1369 1301 889 
Q 1547 409 2034 409 
Q 2525 409 2770 889 
Q 3016 1369 3016 2328 
Q 3016 3291 2770 3770 
Q 2525 4250 2034 4250 
z
M 2034 4750 
Q 2819 4750 3233 4129 
Q 3647 3509 3647 2328 
Q 3647 1150 3233 529 
Q 2819 -91 2034 -91 
Q 1250 -91 836 529 
Q 422 1150 422 2328 
Q 422 3509 836 4129 
Q 1250 4750 2034 4750 
z
" transform="scale(0.015625)"/>
     </defs>
     <use xlink:href="#DejaVuSans-59"/>
     <use xlink:href="#DejaVuSans-2d" transform="translate(49.208984 0)"/>
     <use xlink:href="#DejaVuSans-66" transform="translate(85.292969 0)"/>
     <use xlink:href="#DejaVuSans-6f" transform="translate(120.498047 0)"/>
     <use xlink:href="#DejaVuSans-72" transform="translate(181.679688 0)"/>
     <use xlink:href="#DejaVuSans-6b" transform="translate(222.792969 0)"/>
     <use xlink:href="#DejaVuSans-20" transform="translate(280.703125 0)"/>
     <use xlink:href="#DejaVuSans-53" transform="translate(312.490234 0)"/>
     <use xlink:href="#DejaVuSans-77" transform="translate(375.966797 0)"/>
     <use xlink:href="#DejaVuSans-69" transform="translate(457.753906 0)"/>
     <use xlink:href="#DejaVuSans-73" transform="translate(485.537109 0)"/>
     <use xlink:href="#DejaVuSans-73" transform="translate(537.636719 0)"/>
     <use xlink:href="#DejaVuSans-20" transform="translate(589.736328 0)"/>
     <use xlink:href="#DejaVuSans-72" transform="translate(621.523438 0)"/>
     <use xlink:href="#DejaVuSans-6f" transform="translate(660.386719 0)"/>
     <use xlink:href="#DejaVuSans-6c" transform="translate(721.568359 0)"/>
     <use xlink:href="#DejaVuSans-6c" transform="translate(749.351562 0)"/>
     <use xlink:href="#DejaVuSans-20" transform="translate(777.134766 0)"/>
     <use xlink:href="#DejaVuSans-20" transform="translate(808.921875 0)"/>
     <use xlink:href="#DejaVuSans-b7" transform="translate(840.708984 0)"/>
     <use xlink:href="#DejaVuSans-20" transform="translate(872.496094 0)"/>
     <use xlink:href="#DejaVuSans-20" transform="translate(904.283203 0)"/>
     <use xlink:href="#DejaVuSans-4e" transform="translate(936.070312 0)"/>
     <use xlink:href="#DejaVuSans-20" transform="translate(1010.875 0)"/>
     <use xlink:href="#DejaVuSans-3d" transform="translate(1042.662109 0)"/>
     <use xlink:href="#DejaVuSans-20" transform="translate(1126.451172 0)"/>
     <use xlink:href="#DejaVuSans-34" transform="translate(1158.238281 0)"/>
     <use xlink:href="#DejaVuSans-30" transform="translate(1221.861328 0)"/>
     <use xlink:href="#DejaVuSans-30" transform="translate(1285.484375 0)"/>
     <use xlink:href="#DejaVuSans-30" transform="translate(1349.107422 0)"/>
    </g>
   </g>
   <g id="patch_4">
    <path d="M 207.397411 164.3724 
Q 210.637545 164.3724 213.095056 164.3724 
" style="fill: none; stroke: #666666; stroke-width: 0.7; stroke-linecap: round"/>
    <path d="M 210.695056 163.1724 
L 213.095056 164.3724 
L 210.695056 165.5724 
z
" style="fill: #666666; stroke: #666666; stroke-width: 0.7; stroke-linecap: round"/>
   </g>
   <g id="patch_5">
    <path d="M 205.3995 162.374489 
Q 205.3995 159.134355 205.3995 156.676844 
" style="fill: none; stroke: #666666; stroke-width: 0.7; stroke-linecap: round"/>
    <path d="M 204.1995 159.076844 
L 205.3995 156.676844 
L 206.5995 159.076844 
z
" style="fill: #666666; stroke: #666666; stroke-width: 0.7; stroke-linecap: round"/>
   </g>
   <g id="text_6">
    <!-- $x$ -->
    <g style="fill: #666666" transform="translate(218.272668 166.767408) scale(0.08 -0.08)">
     <defs>
      <path id="DejaVuSans-Oblique-78" d="M 3841 3500 
L 2234 1784 
L 3219 0 
L 2559 0 
L 1819 1388 
L 531 0 
L -166 0 
L 1556 1844 
L 641 3500 
L 1300 3500 
L 1972 2234 
L 3144 3500 
L 3841 3500 
z
" transform="scale(0.015625)"/>
     </defs>
     <use xlink:href="#DejaVuSans-Oblique-78" transform="translate(0 0.3125)"/>
    </g>
   </g>
   <g id="text_7">
    <!-- $y$ -->
    <g style="fill: #666666" transform="translate(202.705116 152.39736) scale(0.08 -0.08)">
     <defs>
      <path id="DejaVuSans-Oblique-79" d="M 1588 -325 
Q 1188 -997 936 -1164 
Q 684 -1331 294 -1331 
L -159 -1331 
L -63 -850 
L 269 -850 
Q 509 -850 678 -719 
Q 847 -588 1056 -206 
L 1234 128 
L 459 3500 
L 1069 3500 
L 1650 819 
L 3256 3500 
L 3859 3500 
L 1588 -325 
z
" transform="scale(0.015625)"/>
     </defs>
     <use xlink:href="#DejaVuSans-Oblique-79" transform="translate(0 0.3125)"/>
    </g>
   </g>
   <g id="text_8">
    <!-- Target $\,\mathbb{R}^{2}$ -->
    <g style="fill: #1a1a1a" transform="translate(219.04278 60.03264) scale(0.12 -0.12)">
     <defs>
      <path id="DejaVuSans-Bold-54" d="M 31 4666 
L 4331 4666 
L 4331 3756 
L 2784 3756 
L 2784 0 
L 1581 0 
L 1581 3756 
L 31 3756 
L 31 4666 
z
" transform="scale(0.015625)"/>
      <path id="DejaVuSans-Bold-61" d="M 2106 1575 
Q 1756 1575 1579 1456 
Q 1403 1338 1403 1106 
Q 1403 894 1545 773 
Q 1688 653 1941 653 
Q 2256 653 2472 879 
Q 2688 1106 2688 1447 
L 2688 1575 
L 2106 1575 
z
M 3816 1997 
L 3816 0 
L 2688 0 
L 2688 519 
Q 2463 200 2181 54 
Q 1900 -91 1497 -91 
Q 953 -91 614 226 
Q 275 544 275 1050 
Q 275 1666 698 1953 
Q 1122 2241 2028 2241 
L 2688 2241 
L 2688 2328 
Q 2688 2594 2478 2717 
Q 2269 2841 1825 2841 
Q 1466 2841 1156 2769 
Q 847 2697 581 2553 
L 581 3406 
Q 941 3494 1303 3539 
Q 1666 3584 2028 3584 
Q 2975 3584 3395 3211 
Q 3816 2838 3816 1997 
z
" transform="scale(0.015625)"/>
     </defs>
     <use xlink:href="#DejaVuSans-Bold-54" transform="translate(0 0.765625)"/>
     <use xlink:href="#DejaVuSans-Bold-61" transform="translate(68.212891 0.765625)"/>
     <use xlink:href="#DejaVuSans-Bold-72" transform="translate(135.693359 0.765625)"/>
     <use xlink:href="#DejaVuSans-Bold-67" transform="translate(185.009766 0.765625)"/>
     <use xlink:href="#DejaVuSans-Bold-65" transform="translate(256.591797 0.765625)"/>
     <use xlink:href="#DejaVuSans-Bold-74" transform="translate(324.414062 0.765625)"/>
     <use xlink:href="#DejaVuSans-Bold-20" transform="translate(372.216797 0.765625)"/>
     <use xlink:href="#STIXGeneral-Italic-211d" transform="translate(423.266926 0.765625)"/>
     <use xlink:href="#DejaVuSans-32" transform="translate(497.918366 39.046875) scale(0.7)"/>
    </g>
   </g>
   <g id="text_9">
    <!-- Y-fork spiral  ·  K = 5000 -->
    <g style="fill: #666666" transform="translate(197.247311 69.423154) scale(0.09 -0.09)">
     <defs>
      <path id="DejaVuSans-70" d="M 1159 525 
L 1159 -1331 
L 581 -1331 
L 581 3500 
L 1159 3500 
L 1159 2969 
Q 1341 3281 1617 3432 
Q 1894 3584 2278 3584 
Q 2916 3584 3314 3078 
Q 3713 2572 3713 1747 
Q 3713 922 3314 415 
Q 2916 -91 2278 -91 
Q 1894 -91 1617 61 
Q 1341 213 1159 525 
z
M 3116 1747 
Q 3116 2381 2855 2742 
Q 2594 3103 2138 3103 
Q 1681 3103 1420 2742 
Q 1159 2381 1159 1747 
Q 1159 1113 1420 752 
Q 1681 391 2138 391 
Q 2594 391 2855 752 
Q 3116 1113 3116 1747 
z
" transform="scale(0.015625)"/>
      <path id="DejaVuSans-4b" d="M 628 4666 
L 1259 4666 
L 1259 2694 
L 3353 4666 
L 4166 4666 
L 1850 2491 
L 4331 0 
L 3500 0 
L 1259 2247 
L 1259 0 
L 628 0 
L 628 4666 
z
" transform="scale(0.015625)"/>
      <path id="DejaVuSans-35" d="M 691 4666 
L 3169 4666 
L 3169 4134 
L 1269 4134 
L 1269 2991 
Q 1406 3038 1543 3061 
Q 1681 3084 1819 3084 
Q 2600 3084 3056 2656 
Q 3513 2228 3513 1497 
Q 3513 744 3044 326 
Q 2575 -91 1722 -91 
Q 1428 -91 1123 -41 
Q 819 9 494 109 
L 494 744 
Q 775 591 1075 516 
Q 1375 441 1709 441 
Q 2250 441 2565 725 
Q 2881 1009 2881 1497 
Q 2881 1984 2565 2268 
Q 2250 2553 1709 2553 
Q 1456 2553 1204 2497 
Q 953 2441 691 2322 
L 691 4666 
z
" transform="scale(0.015625)"/>
     </defs>
     <use xlink:href="#DejaVuSans-59"/>
     <use xlink:href="#DejaVuSans-2d" transform="translate(49.208984 0)"/>
     <use xlink:href="#DejaVuSans-66" transform="translate(85.292969 0)"/>
     <use xlink:href="#DejaVuSans-6f" transform="translate(120.498047 0)"/>
     <use xlink:href="#DejaVuSans-72" transform="translate(181.679688 0)"/>
     <use xlink:href="#DejaVuSans-6b" transform="translate(222.792969 0)"/>
     <use xlink:href="#DejaVuSans-20" transform="translate(280.703125 0)"/>
     <use xlink:href="#DejaVuSans-73" transform="translate(312.490234 0)"/>
     <use xlink:href="#DejaVuSans-70" transform="translate(364.589844 0)"/>
     <use xlink:href="#DejaVuSans-69" transform="translate(428.066406 0)"/>
     <use xlink:href="#DejaVuSans-72" transform="translate(455.849609 0)"/>
     <use xlink:href="#DejaVuSans-61" transform="translate(496.962891 0)"/>
     <use xlink:href="#DejaVuSans-6c" transform="translate(558.242188 0)"/>
     <use xlink:href="#DejaVuSans-20" transform="translate(586.025391 0)"/>
     <use xlink:href="#DejaVuSans-20" transform="translate(617.8125 0)"/>
     <use xlink:href="#DejaVuSans-b7" transform="translate(649.599609 0)"/>
     <use xlink:href="#DejaVuSans-20" transform="translate(681.386719 0)"/>
     <use xlink:href="#DejaVuSans-20" transform="translate(713.173828 0)"/>
     <use xlink:href="#DejaVuSans-4b" transform="translate(744.960938 0)"/>
     <use xlink:href="#DejaVuSans-20" transform="translate(810.537109 0)"/>
     <use xlink:href="#DejaVuSans-3d" transform="translate(842.324219 0)"/>
     <use xlink:href="#DejaVuSans-20" transform="translate(926.113281 0)"/>
     <use xlink:href="#DejaVuSans-35" transform="translate(957.900391 0)"/>
     <use xlink:href="#DejaVuSans-30" transform="translate(1021.523438 0)"/>
     <use xlink:href="#DejaVuSans-30" transform="translate(1085.146484 0)"/>
     <use xlink:href="#DejaVuSans-30" transform="translate(1148.769531 0)"/>
    </g>
   </g>
   <g id="text_10">
    <!-- GW / FGW -->
    <g style="fill: #1a1a1a" transform="translate(135.624756 116.47224) scale(0.105 -0.105)">
     <defs>
      <path id="DejaVuSans-Bold-47" d="M 4781 347 
Q 4331 128 3847 18 
Q 3363 -91 2847 -91 
Q 1681 -91 1000 561 
Q 319 1213 319 2328 
Q 319 3456 1012 4103 
Q 1706 4750 2913 4750 
Q 3378 4750 3804 4662 
Q 4231 4575 4609 4403 
L 4609 3438 
Q 4219 3659 3833 3768 
Q 3447 3878 3059 3878 
Q 2341 3878 1952 3476 
Q 1563 3075 1563 2328 
Q 1563 1588 1938 1184 
Q 2313 781 3003 781 
Q 3191 781 3352 804 
Q 3513 828 3641 878 
L 3641 1784 
L 2906 1784 
L 2906 2591 
L 4781 2591 
L 4781 347 
z
" transform="scale(0.015625)"/>
      <path id="DejaVuSans-Bold-57" d="M 191 4666 
L 1344 4666 
L 2150 1275 
L 2950 4666 
L 4109 4666 
L 4909 1275 
L 5716 4666 
L 6859 4666 
L 5759 0 
L 4372 0 
L 3525 3547 
L 2688 0 
L 1300 0 
L 191 4666 
z
" transform="scale(0.015625)"/>
      <path id="DejaVuSans-Bold-2f" d="M 1644 4666 
L 2338 4666 
L 691 -594 
L 0 -594 
L 1644 4666 
z
" transform="scale(0.015625)"/>
      <path id="DejaVuSans-Bold-46" d="M 588 4666 
L 3834 4666 
L 3834 3756 
L 1791 3756 
L 1791 2888 
L 3713 2888 
L 3713 1978 
L 1791 1978 
L 1791 0 
L 588 0 
L 588 4666 
z
" transform="scale(0.015625)"/>
     </defs>
     <use xlink:href="#DejaVuSans-Bold-47"/>
     <use xlink:href="#DejaVuSans-Bold-57" transform="translate(82.080078 0)"/>
     <use xlink:href="#DejaVuSans-Bold-20" transform="translate(192.382812 0)"/>
     <use xlink:href="#DejaVuSans-Bold-2f" transform="translate(227.197266 0)"/>
     <use xlink:href="#DejaVuSans-Bold-20" transform="translate(263.720703 0)"/>
     <use xlink:href="#DejaVuSans-Bold-46" transform="translate(298.535156 0)"/>
     <use xlink:href="#DejaVuSans-Bold-47" transform="translate(366.845703 0)"/>
     <use xlink:href="#DejaVuSans-Bold-57" transform="translate(448.925781 0)"/>
    </g>
   </g>
   <g id="text_11">
    <!-- with arclen feature -->
    <g style="fill: #666666" transform="translate(124.65124 146.40984) scale(0.085 -0.085)">
     <defs>
      <path id="DejaVuSans-Oblique-77" d="M 544 3500 
L 1113 3500 
L 1259 684 
L 2566 3500 
L 3231 3500 
L 3425 684 
L 4666 3500 
L 5241 3500 
L 3641 0 
L 2969 0 
L 2797 2900 
L 1459 0 
L 781 0 
L 544 3500 
z
" transform="scale(0.015625)"/>
      <path id="DejaVuSans-Oblique-69" d="M 1172 4863 
L 1747 4863 
L 1606 4134 
L 1031 4134 
L 1172 4863 
z
M 909 3500 
L 1484 3500 
L 800 0 
L 225 0 
L 909 3500 
z
" transform="scale(0.015625)"/>
      <path id="DejaVuSans-Oblique-74" d="M 2706 3500 
L 2619 3053 
L 1472 3053 
L 1100 1153 
Q 1081 1047 1072 975 
Q 1063 903 1063 863 
Q 1063 663 1183 572 
Q 1303 481 1569 481 
L 2150 481 
L 2053 0 
L 1503 0 
Q 991 0 739 200 
Q 488 400 488 806 
Q 488 878 497 964 
Q 506 1050 525 1153 
L 897 3053 
L 409 3053 
L 500 3500 
L 978 3500 
L 1172 4494 
L 1747 4494 
L 1556 3500 
L 2706 3500 
z
" transform="scale(0.015625)"/>
      <path id="DejaVuSans-Oblique-68" d="M 3566 2113 
L 3156 0 
L 2578 0 
L 2988 2091 
Q 3016 2238 3031 2350 
Q 3047 2463 3047 2528 
Q 3047 2791 2881 2937 
Q 2716 3084 2419 3084 
Q 1956 3084 1617 2771 
Q 1278 2459 1178 1941 
L 800 0 
L 225 0 
L 1172 4863 
L 1747 4863 
L 1375 2950 
Q 1594 3244 1934 3414 
Q 2275 3584 2650 3584 
Q 3113 3584 3367 3334 
Q 3622 3084 3622 2631 
Q 3622 2519 3608 2391 
Q 3594 2263 3566 2113 
z
" transform="scale(0.015625)"/>
      <path id="DejaVuSans-Oblique-20" transform="scale(0.015625)"/>
      <path id="DejaVuSans-Oblique-61" d="M 3438 1997 
L 3047 0 
L 2472 0 
L 2578 531 
Q 2325 219 2001 64 
Q 1678 -91 1281 -91 
Q 834 -91 548 182 
Q 263 456 263 884 
Q 263 1497 752 1853 
Q 1241 2209 2100 2209 
L 2900 2209 
L 2931 2363 
Q 2938 2388 2941 2417 
Q 2944 2447 2944 2509 
Q 2944 2788 2717 2942 
Q 2491 3097 2081 3097 
Q 1800 3097 1504 3025 
Q 1209 2953 897 2809 
L 997 3341 
Q 1322 3463 1633 3523 
Q 1944 3584 2234 3584 
Q 2853 3584 3176 3315 
Q 3500 3047 3500 2534 
Q 3500 2431 3484 2292 
Q 3469 2153 3438 1997 
z
M 2816 1759 
L 2241 1759 
Q 1534 1759 1195 1570 
Q 856 1381 856 984 
Q 856 709 1029 553 
Q 1203 397 1509 397 
Q 1978 397 2328 733 
Q 2678 1069 2791 1631 
L 2816 1759 
z
" transform="scale(0.015625)"/>
      <path id="DejaVuSans-Oblique-72" d="M 2853 2969 
Q 2766 3016 2653 3041 
Q 2541 3066 2413 3066 
Q 1953 3066 1609 2717 
Q 1266 2369 1153 1784 
L 800 0 
L 225 0 
L 909 3500 
L 1484 3500 
L 1375 2956 
Q 1603 3259 1920 3421 
Q 2238 3584 2597 3584 
Q 2691 3584 2781 3573 
Q 2872 3563 2963 3538 
L 2853 2969 
z
" transform="scale(0.015625)"/>
      <path id="DejaVuSans-Oblique-63" d="M 3431 3366 
L 3316 2797 
Q 3109 2947 2876 3022 
Q 2644 3097 2394 3097 
Q 2119 3097 1870 3000 
Q 1622 2903 1453 2725 
Q 1184 2453 1037 2087 
Q 891 1722 891 1331 
Q 891 859 1127 628 
Q 1363 397 1844 397 
Q 2081 397 2348 469 
Q 2616 541 2906 684 
L 2797 116 
Q 2547 13 2283 -39 
Q 2019 -91 1741 -91 
Q 1044 -91 669 257 
Q 294 606 294 1253 
Q 294 1797 489 2255 
Q 684 2713 1069 3078 
Q 1331 3328 1684 3456 
Q 2038 3584 2456 3584 
Q 2700 3584 2940 3529 
Q 3181 3475 3431 3366 
z
" transform="scale(0.015625)"/>
      <path id="DejaVuSans-Oblique-6c" d="M 1172 4863 
L 1747 4863 
L 800 0 
L 225 0 
L 1172 4863 
z
" transform="scale(0.015625)"/>
      <path id="DejaVuSans-Oblique-65" d="M 3078 2063 
Q 3088 2113 3092 2166 
Q 3097 2219 3097 2272 
Q 3097 2653 2873 2875 
Q 2650 3097 2266 3097 
Q 1838 3097 1509 2826 
Q 1181 2556 1013 2059 
L 3078 2063 
z
M 3578 1613 
L 903 1613 
Q 884 1494 878 1425 
Q 872 1356 872 1306 
Q 872 872 1139 634 
Q 1406 397 1894 397 
Q 2269 397 2603 481 
Q 2938 566 3225 728 
L 3116 159 
Q 2806 34 2476 -28 
Q 2147 -91 1806 -91 
Q 1078 -91 686 257 
Q 294 606 294 1247 
Q 294 1794 489 2264 
Q 684 2734 1063 3103 
Q 1306 3334 1642 3459 
Q 1978 3584 2356 3584 
Q 2950 3584 3301 3228 
Q 3653 2872 3653 2272 
Q 3653 2128 3634 1964 
Q 3616 1800 3578 1613 
z
" transform="scale(0.015625)"/>
      <path id="DejaVuSans-Oblique-6e" d="M 3566 2113 
L 3156 0 
L 2578 0 
L 2988 2091 
Q 3016 2238 3031 2350 
Q 3047 2463 3047 2528 
Q 3047 2791 2881 2937 
Q 2716 3084 2419 3084 
Q 1956 3084 1622 2776 
Q 1288 2469 1184 1941 
L 800 0 
L 225 0 
L 903 3500 
L 1478 3500 
L 1363 2950 
Q 1603 3253 1940 3418 
Q 2278 3584 2650 3584 
Q 3113 3584 3367 3334 
Q 3622 3084 3622 2631 
Q 3622 2519 3608 2391 
Q 3594 2263 3566 2113 
z
" transform="scale(0.015625)"/>
      <path id="DejaVuSans-Oblique-66" d="M 3059 4863 
L 2969 4384 
L 2419 4384 
Q 2106 4384 1964 4261 
Q 1822 4138 1753 3809 
L 1691 3500 
L 2638 3500 
L 2553 3053 
L 1606 3053 
L 1013 0 
L 434 0 
L 1031 3053 
L 481 3053 
L 563 3500 
L 1113 3500 
L 1159 3744 
Q 1278 4363 1576 4613 
Q 1875 4863 2516 4863 
L 3059 4863 
z
" transform="scale(0.015625)"/>
      <path id="DejaVuSans-Oblique-75" d="M 428 1388 
L 838 3500 
L 1416 3500 
L 1006 1409 
Q 975 1256 961 1147 
Q 947 1038 947 966 
Q 947 700 1109 554 
Q 1272 409 1569 409 
Q 2031 409 2368 721 
Q 2706 1034 2809 1563 
L 3194 3500 
L 3769 3500 
L 3091 0 
L 2516 0 
L 2631 550 
Q 2388 244 2052 76 
Q 1716 -91 1338 -91 
Q 878 -91 622 161 
Q 366 413 366 863 
Q 366 956 381 1097 
Q 397 1238 428 1388 
z
" transform="scale(0.015625)"/>
     </defs>
     <use xlink:href="#DejaVuSans-Oblique-77"/>
     <use xlink:href="#DejaVuSans-Oblique-69" transform="translate(81.787109 0)"/>
     <use xlink:href="#DejaVuSans-Oblique-74" transform="translate(109.570312 0)"/>
     <use xlink:href="#DejaVuSans-Oblique-68" transform="translate(148.779297 0)"/>
     <use xlink:href="#DejaVuSans-Oblique-20" transform="translate(212.158203 0)"/>
     <use xlink:href="#DejaVuSans-Oblique-61" transform="translate(243.945312 0)"/>
     <use xlink:href="#DejaVuSans-Oblique-72" transform="translate(305.224609 0)"/>
     <use xlink:href="#DejaVuSans-Oblique-63" transform="translate(346.337891 0)"/>
     <use xlink:href="#DejaVuSans-Oblique-6c" transform="translate(401.318359 0)"/>
     <use xlink:href="#DejaVuSans-Oblique-65" transform="translate(429.101562 0)"/>
     <use xlink:href="#DejaVuSans-Oblique-6e" transform="translate(490.625 0)"/>
     <use xlink:href="#DejaVuSans-Oblique-20" transform="translate(554.003906 0)"/>
     <use xlink:href="#DejaVuSans-Oblique-66" transform="translate(585.791016 0)"/>
     <use xlink:href="#DejaVuSans-Oblique-65" transform="translate(620.996094 0)"/>
     <use xlink:href="#DejaVuSans-Oblique-61" transform="translate(682.519531 0)"/>
     <use xlink:href="#DejaVuSans-Oblique-74" transform="translate(743.798828 0)"/>
     <use xlink:href="#DejaVuSans-Oblique-75" transform="translate(783.007812 0)"/>
     <use xlink:href="#DejaVuSans-Oblique-72" transform="translate(846.386719 0)"/>
     <use xlink:href="#DejaVuSans-Oblique-65" transform="translate(887.5 0)"/>
    </g>
   </g>
   <g id="PathCollection_1">
    <defs>
     <path id="m85eb62059c" d="M 0 4.609772 
C 1.222526 4.609772 2.395145 4.124058 3.259601 3.259601 
C 4.124058 2.395145 4.609772 1.222526 4.609772 0 
C 4.609772 -1.222526 4.124058 -2.395145 3.259601 -3.259601 
C 2.395145 -4.124058 1.222526 -4.609772 0 -4.609772 
C -1.222526 -4.609772 -2.395145 -4.124058 -3.259601 -3.259601 
C -4.124058 -2.395145 -4.609772 -1.222526 -4.609772 0 
C -4.609772 1.222526 -4.124058 2.395145 -3.259601 3.259601 
C -2.395145 4.124058 -1.222526 4.609772 0 4.609772 
z
" style="stroke: #000000; stroke-width: 0.7"/>
    </defs>
    <g clip-path="url(#pc5a5c5c70b)">
     <use xlink:href="#m85eb62059c" x="43.73646" y="204.78816" style="fill: #2c5aa0; stroke: #000000; stroke-width: 0.7"/>
    </g>
   </g>
   <g id="text_12">
    <!-- spiral -->
    <g style="fill: #1a1a1a" transform="translate(58.70526 207.547535) scale(0.1 -0.1)">
     <defs>
      <path id="DejaVuSans-Bold-6c" d="M 538 4863 
L 1656 4863 
L 1656 0 
L 538 0 
L 538 4863 
z
" transform="scale(0.015625)"/>
     </defs>
     <use xlink:href="#DejaVuSans-Bold-73"/>
     <use xlink:href="#DejaVuSans-Bold-70" transform="translate(59.521484 0)"/>
     <use xlink:href="#DejaVuSans-Bold-69" transform="translate(131.103516 0)"/>
     <use xlink:href="#DejaVuSans-Bold-72" transform="translate(165.380859 0)"/>
     <use xlink:href="#DejaVuSans-Bold-61" transform="translate(214.697266 0)"/>
     <use xlink:href="#DejaVuSans-Bold-6c" transform="translate(282.177734 0)"/>
    </g>
   </g>
   <g id="text_13">
    <!-- backbone (label 0) -->
    <g style="fill: #666666" transform="translate(111.09606 207.409566) scale(0.095 -0.095)">
     <defs>
      <path id="DejaVuSans-62" d="M 3116 1747 
Q 3116 2381 2855 2742 
Q 2594 3103 2138 3103 
Q 1681 3103 1420 2742 
Q 1159 2381 1159 1747 
Q 1159 1113 1420 752 
Q 1681 391 2138 391 
Q 2594 391 2855 752 
Q 3116 1113 3116 1747 
z
M 1159 2969 
Q 1341 3281 1617 3432 
Q 1894 3584 2278 3584 
Q 2916 3584 3314 3078 
Q 3713 2572 3713 1747 
Q 3713 922 3314 415 
Q 2916 -91 2278 -91 
Q 1894 -91 1617 61 
Q 1341 213 1159 525 
L 1159 0 
L 581 0 
L 581 4863 
L 1159 4863 
L 1159 2969 
z
" transform="scale(0.015625)"/>
      <path id="DejaVuSans-63" d="M 3122 3366 
L 3122 2828 
Q 2878 2963 2633 3030 
Q 2388 3097 2138 3097 
Q 1578 3097 1268 2742 
Q 959 2388 959 1747 
Q 959 1106 1268 751 
Q 1578 397 2138 397 
Q 2388 397 2633 464 
Q 2878 531 3122 666 
L 3122 134 
Q 2881 22 2623 -34 
Q 2366 -91 2075 -91 
Q 1284 -91 818 406 
Q 353 903 353 1747 
Q 353 2603 823 3093 
Q 1294 3584 2113 3584 
Q 2378 3584 2631 3529 
Q 2884 3475 3122 3366 
z
" transform="scale(0.015625)"/>
      <path id="DejaVuSans-28" d="M 1984 4856 
Q 1566 4138 1362 3434 
Q 1159 2731 1159 2009 
Q 1159 1288 1364 580 
Q 1569 -128 1984 -844 
L 1484 -844 
Q 1016 -109 783 600 
Q 550 1309 550 2009 
Q 550 2706 781 3412 
Q 1013 4119 1484 4856 
L 1984 4856 
z
" transform="scale(0.015625)"/>
      <path id="DejaVuSans-29" d="M 513 4856 
L 1013 4856 
Q 1481 4119 1714 3412 
Q 1947 2706 1947 2009 
Q 1947 1309 1714 600 
Q 1481 -109 1013 -844 
L 513 -844 
Q 928 -128 1133 580 
Q 1338 1288 1338 2009 
Q 1338 2731 1133 3434 
Q 928 4138 513 4856 
z
" transform="scale(0.015625)"/>
     </defs>
     <use xlink:href="#DejaVuSans-62"/>
     <use xlink:href="#DejaVuSans-61" transform="translate(63.476562 0)"/>
     <use xlink:href="#DejaVuSans-63" transform="translate(124.755859 0)"/>
     <use xlink:href="#DejaVuSans-6b" transform="translate(179.736328 0)"/>
     <use xlink:href="#DejaVuSans-62" transform="translate(237.646484 0)"/>
     <use xlink:href="#DejaVuSans-6f" transform="translate(301.123047 0)"/>
     <use xlink:href="#DejaVuSans-6e" transform="translate(362.304688 0)"/>
     <use xlink:href="#DejaVuSans-65" transform="translate(425.683594 0)"/>
     <use xlink:href="#DejaVuSans-20" transform="translate(487.207031 0)"/>
     <use xlink:href="#DejaVuSans-28" transform="translate(518.994141 0)"/>
     <use xlink:href="#DejaVuSans-6c" transform="translate(558.007812 0)"/>
     <use xlink:href="#DejaVuSans-61" transform="translate(585.791016 0)"/>
     <use xlink:href="#DejaVuSans-62" transform="translate(647.070312 0)"/>
     <use xlink:href="#DejaVuSans-65" transform="translate(710.546875 0)"/>
     <use xlink:href="#DejaVuSans-6c" transform="translate(772.070312 0)"/>
     <use xlink:href="#DejaVuSans-20" transform="translate(799.853516 0)"/>
     <use xlink:href="#DejaVuSans-30" transform="translate(831.640625 0)"/>
     <use xlink:href="#DejaVuSans-29" transform="translate(895.263672 0)"/>
    </g>
   </g>
   <g id="PathCollection_2">
    <defs>
     <path id="m2b37463124" d="M 0 -4.609772 
L -4.609772 4.609772 
L 4.609772 4.609772 
z
" style="stroke: #000000; stroke-width: 0.7"/>
    </defs>
    <g clip-path="url(#pc5a5c5c70b)">
     <use xlink:href="#m2b37463124" x="43.73646" y="227.24136" style="fill: #1b8a4c; stroke: #000000; stroke-width: 0.7"/>
    </g>
   </g>
   <g id="text_14">
    <!-- long tail -->
    <g style="fill: #1a1a1a" transform="translate(58.70526 229.961672) scale(0.1 -0.1)">
     <use xlink:href="#DejaVuSans-Bold-6c"/>
     <use xlink:href="#DejaVuSans-Bold-6f" transform="translate(34.277344 0)"/>
     <use xlink:href="#DejaVuSans-Bold-6e" transform="translate(102.978516 0)"/>
     <use xlink:href="#DejaVuSans-Bold-67" transform="translate(174.169922 0)"/>
     <use xlink:href="#DejaVuSans-Bold-20" transform="translate(245.751953 0)"/>
     <use xlink:href="#DejaVuSans-Bold-74" transform="translate(280.566406 0)"/>
     <use xlink:href="#DejaVuSans-Bold-61" transform="translate(328.369141 0)"/>
     <use xlink:href="#DejaVuSans-Bold-69" transform="translate(395.849609 0)"/>
     <use xlink:href="#DejaVuSans-Bold-6c" transform="translate(430.126953 0)"/>
    </g>
   </g>
   <g id="text_15">
    <!-- tangent extension (label 0) -->
    <g style="fill: #666666" transform="translate(111.09606 229.862766) scale(0.095 -0.095)">
     <defs>
      <path id="DejaVuSans-78" d="M 3513 3500 
L 2247 1797 
L 3578 0 
L 2900 0 
L 1881 1375 
L 863 0 
L 184 0 
L 1544 1831 
L 300 3500 
L 978 3500 
L 1906 2253 
L 2834 3500 
L 3513 3500 
z
" transform="scale(0.015625)"/>
     </defs>
     <use xlink:href="#DejaVuSans-74"/>
     <use xlink:href="#DejaVuSans-61" transform="translate(39.208984 0)"/>
     <use xlink:href="#DejaVuSans-6e" transform="translate(100.488281 0)"/>
     <use xlink:href="#DejaVuSans-67" transform="translate(163.867188 0)"/>
     <use xlink:href="#DejaVuSans-65" transform="translate(227.34375 0)"/>
     <use xlink:href="#DejaVuSans-6e" transform="translate(288.867188 0)"/>
     <use xlink:href="#DejaVuSans-74" transform="translate(352.246094 0)"/>
     <use xlink:href="#DejaVuSans-20" transform="translate(391.455078 0)"/>
     <use xlink:href="#DejaVuSans-65" transform="translate(423.242188 0)"/>
     <use xlink:href="#DejaVuSans-78" transform="translate(483.015625 0)"/>
     <use xlink:href="#DejaVuSans-74" transform="translate(542.195312 0)"/>
     <use xlink:href="#DejaVuSans-65" transform="translate(581.404297 0)"/>
     <use xlink:href="#DejaVuSans-6e" transform="translate(642.927734 0)"/>
     <use xlink:href="#DejaVuSans-73" transform="translate(706.306641 0)"/>
     <use xlink:href="#DejaVuSans-69" transform="translate(758.40625 0)"/>
     <use xlink:href="#DejaVuSans-6f" transform="translate(786.189453 0)"/>
     <use xlink:href="#DejaVuSans-6e" transform="translate(847.371094 0)"/>
     <use xlink:href="#DejaVuSans-20" transform="translate(910.75 0)"/>
     <use xlink:href="#DejaVuSans-28" transform="translate(942.537109 0)"/>
     <use xlink:href="#DejaVuSans-6c" transform="translate(981.550781 0)"/>
     <use xlink:href="#DejaVuSans-61" transform="translate(1009.333984 0)"/>
     <use xlink:href="#DejaVuSans-62" transform="translate(1070.613281 0)"/>
     <use xlink:href="#DejaVuSans-65" transform="translate(1134.089844 0)"/>
     <use xlink:href="#DejaVuSans-6c" transform="translate(1195.613281 0)"/>
     <use xlink:href="#DejaVuSans-20" transform="translate(1223.396484 0)"/>
     <use xlink:href="#DejaVuSans-30" transform="translate(1255.183594 0)"/>
     <use xlink:href="#DejaVuSans-29" transform="translate(1318.806641 0)"/>
    </g>
   </g>
   <g id="PathCollection_3">
    <defs>
     <path id="m86ff728efc" d="M -4.609772 4.609772 
L 4.609772 4.609772 
L 4.609772 -4.609772 
L -4.609772 -4.609772 
z
" style="stroke: #000000; stroke-width: 0.7"/>
    </defs>
    <g clip-path="url(#pc5a5c5c70b)">
     <use xlink:href="#m86ff728efc" x="43.73646" y="249.69456" style="fill: #c0392b; stroke: #000000; stroke-width: 0.7"/>
    </g>
   </g>
   <g id="text_16">
    <!-- short tail -->
    <g style="fill: #1a1a1a" transform="translate(58.70526 252.453935) scale(0.1 -0.1)">
     <defs>
      <path id="DejaVuSans-Bold-68" d="M 4056 2131 
L 4056 0 
L 2931 0 
L 2931 347 
L 2931 1625 
Q 2931 2084 2911 2256 
Q 2891 2428 2841 2509 
Q 2775 2619 2662 2680 
Q 2550 2741 2406 2741 
Q 2056 2741 1856 2470 
Q 1656 2200 1656 1722 
L 1656 0 
L 538 0 
L 538 4863 
L 1656 4863 
L 1656 2988 
Q 1909 3294 2193 3439 
Q 2478 3584 2822 3584 
Q 3428 3584 3742 3212 
Q 4056 2841 4056 2131 
z
" transform="scale(0.015625)"/>
     </defs>
     <use xlink:href="#DejaVuSans-Bold-73"/>
     <use xlink:href="#DejaVuSans-Bold-68" transform="translate(59.521484 0)"/>
     <use xlink:href="#DejaVuSans-Bold-6f" transform="translate(130.712891 0)"/>
     <use xlink:href="#DejaVuSans-Bold-72" transform="translate(199.414062 0)"/>
     <use xlink:href="#DejaVuSans-Bold-74" transform="translate(248.730469 0)"/>
     <use xlink:href="#DejaVuSans-Bold-20" transform="translate(296.533203 0)"/>
     <use xlink:href="#DejaVuSans-Bold-74" transform="translate(331.347656 0)"/>
     <use xlink:href="#DejaVuSans-Bold-61" transform="translate(379.150391 0)"/>
     <use xlink:href="#DejaVuSans-Bold-69" transform="translate(446.630859 0)"/>
     <use xlink:href="#DejaVuSans-Bold-6c" transform="translate(480.908203 0)"/>
    </g>
   </g>
   <g id="text_17">
    <!-- off-axis branch (label 1) -->
    <g style="fill: #666666" transform="translate(111.09606 252.315966) scale(0.095 -0.095)">
     <defs>
      <path id="DejaVuSans-68" d="M 3513 2113 
L 3513 0 
L 2938 0 
L 2938 2094 
Q 2938 2591 2744 2837 
Q 2550 3084 2163 3084 
Q 1697 3084 1428 2787 
Q 1159 2491 1159 1978 
L 1159 0 
L 581 0 
L 581 4863 
L 1159 4863 
L 1159 2956 
Q 1366 3272 1645 3428 
Q 1925 3584 2291 3584 
Q 2894 3584 3203 3211 
Q 3513 2838 3513 2113 
z
" transform="scale(0.015625)"/>
      <path id="DejaVuSans-31" d="M 794 531 
L 1825 531 
L 1825 4091 
L 703 3866 
L 703 4441 
L 1819 4666 
L 2450 4666 
L 2450 531 
L 3481 531 
L 3481 0 
L 794 0 
L 794 531 
z
" transform="scale(0.015625)"/>
     </defs>
     <use xlink:href="#DejaVuSans-6f"/>
     <use xlink:href="#DejaVuSans-66" transform="translate(61.181641 0)"/>
     <use xlink:href="#DejaVuSans-66" transform="translate(96.386719 0)"/>
     <use xlink:href="#DejaVuSans-2d" transform="translate(126.091797 0)"/>
     <use xlink:href="#DejaVuSans-61" transform="translate(162.175781 0)"/>
     <use xlink:href="#DejaVuSans-78" transform="translate(223.455078 0)"/>
     <use xlink:href="#DejaVuSans-69" transform="translate(282.634766 0)"/>
     <use xlink:href="#DejaVuSans-73" transform="translate(310.417969 0)"/>
     <use xlink:href="#DejaVuSans-20" transform="translate(362.517578 0)"/>
     <use xlink:href="#DejaVuSans-62" transform="translate(394.304688 0)"/>
     <use xlink:href="#DejaVuSans-72" transform="translate(457.78125 0)"/>
     <use xlink:href="#DejaVuSans-61" transform="translate(498.894531 0)"/>
     <use xlink:href="#DejaVuSans-6e" transform="translate(560.173828 0)"/>
     <use xlink:href="#DejaVuSans-63" transform="translate(623.552734 0)"/>
     <use xlink:href="#DejaVuSans-68" transform="translate(678.533203 0)"/>
     <use xlink:href="#DejaVuSans-20" transform="translate(741.912109 0)"/>
     <use xlink:href="#DejaVuSans-28" transform="translate(773.699219 0)"/>
     <use xlink:href="#DejaVuSans-6c" transform="translate(812.712891 0)"/>
     <use xlink:href="#DejaVuSans-61" transform="translate(840.496094 0)"/>
     <use xlink:href="#DejaVuSans-62" transform="translate(901.775391 0)"/>
     <use xlink:href="#DejaVuSans-65" transform="translate(965.251953 0)"/>
     <use xlink:href="#DejaVuSans-6c" transform="translate(1026.775391 0)"/>
     <use xlink:href="#DejaVuSans-20" transform="translate(1054.558594 0)"/>
     <use xlink:href="#DejaVuSans-31" transform="translate(1086.345703 0)"/>
     <use xlink:href="#DejaVuSans-29" transform="translate(1149.96875 0)"/>
    </g>
   </g>
   <g id="text_18">
    <!-- Match metric: signed Spearman $\rho$ on geodesic arclen, evaluated per region -->
    <g style="fill: #666666" transform="translate(7.2 293.10408) scale(0.085 -0.085)">
     <defs>
      <path id="DejaVuSans-Oblique-4d" d="M 1081 4666 
L 2028 4666 
L 2572 1522 
L 4378 4666 
L 5350 4666 
L 4441 0 
L 3828 0 
L 4622 4091 
L 2791 897 
L 2175 897 
L 1581 4103 
L 788 0 
L 172 0 
L 1081 4666 
z
" transform="scale(0.015625)"/>
      <path id="DejaVuSans-Oblique-6d" d="M 5747 2113 
L 5338 0 
L 4763 0 
L 5166 2094 
Q 5191 2228 5203 2325 
Q 5216 2422 5216 2491 
Q 5216 2772 5059 2928 
Q 4903 3084 4622 3084 
Q 4203 3084 3875 2770 
Q 3547 2456 3450 1953 
L 3066 0 
L 2491 0 
L 2900 2094 
Q 2925 2209 2937 2307 
Q 2950 2406 2950 2484 
Q 2950 2769 2794 2926 
Q 2638 3084 2363 3084 
Q 1938 3084 1609 2770 
Q 1281 2456 1184 1953 
L 800 0 
L 225 0 
L 909 3500 
L 1484 3500 
L 1375 2956 
Q 1609 3263 1923 3423 
Q 2238 3584 2597 3584 
Q 2978 3584 3223 3384 
Q 3469 3184 3519 2828 
Q 3781 3197 4126 3390 
Q 4472 3584 4856 3584 
Q 5306 3584 5551 3325 
Q 5797 3066 5797 2591 
Q 5797 2488 5784 2364 
Q 5772 2241 5747 2113 
z
" transform="scale(0.015625)"/>
      <path id="DejaVuSans-Oblique-3a" d="M 978 3309 
L 1638 3309 
L 1484 2516 
L 825 2516 
L 978 3309 
z
M 488 794 
L 1147 794 
L 991 0 
L 331 0 
L 488 794 
z
" transform="scale(0.015625)"/>
      <path id="DejaVuSans-Oblique-73" d="M 3200 3397 
L 3091 2853 
Q 2863 2978 2609 3040 
Q 2356 3103 2088 3103 
Q 1634 3103 1373 2948 
Q 1113 2794 1113 2528 
Q 1113 2219 1719 2053 
Q 1766 2041 1788 2034 
L 1972 1978 
Q 2547 1819 2739 1644 
Q 2931 1469 2931 1166 
Q 2931 609 2489 259 
Q 2047 -91 1331 -91 
Q 1053 -91 747 -37 
Q 441 16 72 128 
L 184 722 
Q 500 559 806 475 
Q 1113 391 1394 391 
Q 1816 391 2080 572 
Q 2344 753 2344 1031 
Q 2344 1331 1650 1516 
L 1591 1531 
L 1394 1581 
Q 956 1697 753 1886 
Q 550 2075 550 2369 
Q 550 2928 970 3256 
Q 1391 3584 2113 3584 
Q 2397 3584 2667 3537 
Q 2938 3491 3200 3397 
z
" transform="scale(0.015625)"/>
      <path id="DejaVuSans-Oblique-67" d="M 3816 3500 
L 3219 434 
Q 3047 -456 2561 -893 
Q 2075 -1331 1253 -1331 
Q 950 -1331 690 -1286 
Q 431 -1241 206 -1147 
L 313 -588 
Q 525 -725 762 -790 
Q 1000 -856 1269 -856 
Q 1816 -856 2167 -557 
Q 2519 -259 2631 300 
L 2681 563 
Q 2441 288 2122 144 
Q 1803 0 1434 0 
Q 903 0 598 351 
Q 294 703 294 1319 
Q 294 1803 478 2267 
Q 663 2731 997 3091 
Q 1219 3328 1514 3456 
Q 1809 3584 2131 3584 
Q 2484 3584 2746 3420 
Q 3009 3256 3138 2956 
L 3238 3500 
L 3816 3500 
z
M 2950 2216 
Q 2950 2641 2750 2872 
Q 2550 3103 2181 3103 
Q 1953 3103 1747 3012 
Q 1541 2922 1394 2759 
Q 1156 2491 1023 2127 
Q 891 1763 891 1375 
Q 891 944 1092 712 
Q 1294 481 1672 481 
Q 2219 481 2584 976 
Q 2950 1472 2950 2216 
z
" transform="scale(0.015625)"/>
      <path id="DejaVuSans-Oblique-64" d="M 2675 525 
Q 2444 222 2128 65 
Q 1813 -91 1428 -91 
Q 903 -91 598 267 
Q 294 625 294 1247 
Q 294 1766 478 2236 
Q 663 2706 1013 3078 
Q 1244 3325 1534 3454 
Q 1825 3584 2144 3584 
Q 2481 3584 2739 3421 
Q 2997 3259 3138 2956 
L 3513 4863 
L 4091 4863 
L 3144 0 
L 2566 0 
L 2675 525 
z
M 891 1350 
Q 891 897 1095 644 
Q 1300 391 1663 391 
Q 1931 391 2161 520 
Q 2391 650 2566 903 
Q 2750 1166 2856 1509 
Q 2963 1853 2963 2188 
Q 2963 2622 2758 2865 
Q 2553 3109 2194 3109 
Q 1922 3109 1687 2981 
Q 1453 2853 1288 2613 
Q 1106 2353 998 2009 
Q 891 1666 891 1350 
z
" transform="scale(0.015625)"/>
      <path id="DejaVuSans-Oblique-53" d="M 3859 4513 
L 3738 3897 
Q 3422 4066 3111 4152 
Q 2800 4238 2509 4238 
Q 1944 4238 1609 3991 
Q 1275 3744 1275 3334 
Q 1275 3109 1398 2989 
Q 1522 2869 2034 2731 
L 2413 2638 
Q 3053 2472 3303 2217 
Q 3553 1963 3553 1503 
Q 3553 797 2998 353 
Q 2444 -91 1538 -91 
Q 1166 -91 791 -17 
Q 416 56 38 206 
L 166 856 
Q 513 641 861 531 
Q 1209 422 1556 422 
Q 2147 422 2503 684 
Q 2859 947 2859 1369 
Q 2859 1650 2717 1795 
Q 2575 1941 2106 2059 
L 1728 2156 
Q 1081 2325 845 2545 
Q 609 2766 609 3163 
Q 609 3859 1145 4304 
Q 1681 4750 2541 4750 
Q 2875 4750 3203 4690 
Q 3531 4631 3859 4513 
z
" transform="scale(0.015625)"/>
      <path id="DejaVuSans-Oblique-70" d="M 3175 2156 
Q 3175 2616 2975 2859 
Q 2775 3103 2400 3103 
Q 2144 3103 1911 2972 
Q 1678 2841 1497 2591 
Q 1319 2344 1212 1994 
Q 1106 1644 1106 1300 
Q 1106 863 1306 627 
Q 1506 391 1875 391 
Q 2147 391 2380 519 
Q 2613 647 2778 891 
Q 2956 1147 3065 1494 
Q 3175 1841 3175 2156 
z
M 1394 2969 
Q 1625 3272 1939 3428 
Q 2253 3584 2638 3584 
Q 3175 3584 3472 3232 
Q 3769 2881 3769 2247 
Q 3769 1728 3584 1258 
Q 3400 788 3053 416 
Q 2822 169 2531 39 
Q 2241 -91 1919 -91 
Q 1547 -91 1294 64 
Q 1041 219 916 525 
L 556 -1331 
L -19 -1331 
L 922 3500 
L 1497 3500 
L 1394 2969 
z
" transform="scale(0.015625)"/>
      <path id="DejaVuSans-Oblique-3c1" d="M 1203 2875 
Q 1453 3194 1981 3475 
Q 2188 3584 2756 3584 
Q 3394 3584 3694 3078 
Q 3994 2572 3834 1747 
Q 3672 922 3175 415 
Q 2678 -91 2041 -91 
Q 1656 -91 1409 63 
Q 1163 213 1044 525 
L 681 -1331 
L 103 -1331 
L 697 1716 
Q 838 2438 1203 2875 
z
M 3238 1747 
Q 3359 2381 3169 2744 
Q 2978 3103 2522 3103 
Q 2066 3103 1734 2744 
Q 1403 2381 1281 1747 
Q 1156 1113 1347 750 
Q 1538 391 1994 391 
Q 2450 391 2781 750 
Q 3113 1113 3238 1747 
z
" transform="scale(0.015625)"/>
      <path id="DejaVuSans-Oblique-6f" d="M 1625 -91 
Q 1009 -91 651 289 
Q 294 669 294 1325 
Q 294 1706 417 2101 
Q 541 2497 738 2766 
Q 1047 3184 1428 3384 
Q 1809 3584 2291 3584 
Q 2888 3584 3255 3212 
Q 3622 2841 3622 2241 
Q 3622 1825 3500 1412 
Q 3378 1000 3181 728 
Q 2875 309 2494 109 
Q 2113 -91 1625 -91 
z
M 891 1344 
Q 891 869 1089 633 
Q 1288 397 1691 397 
Q 2269 397 2648 901 
Q 3028 1406 3028 2181 
Q 3028 2634 2825 2865 
Q 2622 3097 2228 3097 
Q 1903 3097 1650 2945 
Q 1397 2794 1197 2484 
Q 1050 2253 970 1956 
Q 891 1659 891 1344 
z
" transform="scale(0.015625)"/>
      <path id="DejaVuSans-Oblique-2c" d="M 575 794 
L 1234 794 
L 1131 256 
L 422 -744 
L 19 -744 
L 469 256 
L 575 794 
z
" transform="scale(0.015625)"/>
      <path id="DejaVuSans-Oblique-76" d="M 459 3500 
L 1069 3500 
L 1581 525 
L 3256 3500 
L 3866 3500 
L 1875 0 
L 1100 0 
L 459 3500 
z
" transform="scale(0.015625)"/>
     </defs>
     <use xlink:href="#DejaVuSans-Oblique-4d" transform="translate(0 0.015625)"/>
     <use xlink:href="#DejaVuSans-Oblique-61" transform="translate(86.279297 0.015625)"/>
     <use xlink:href="#DejaVuSans-Oblique-74" transform="translate(147.558594 0.015625)"/>
     <use xlink:href="#DejaVuSans-Oblique-63" transform="translate(186.767578 0.015625)"/>
     <use xlink:href="#DejaVuSans-Oblique-68" transform="translate(241.748047 0.015625)"/>
     <use xlink:href="#DejaVuSans-Oblique-20" transform="translate(305.126953 0.015625)"/>
     <use xlink:href="#DejaVuSans-Oblique-6d" transform="translate(336.914062 0.015625)"/>
     <use xlink:href="#DejaVuSans-Oblique-65" transform="translate(434.326172 0.015625)"/>
     <use xlink:href="#DejaVuSans-Oblique-74" transform="translate(495.849609 0.015625)"/>
     <use xlink:href="#DejaVuSans-Oblique-72" transform="translate(535.058594 0.015625)"/>
     <use xlink:href="#DejaVuSans-Oblique-69" transform="translate(576.171875 0.015625)"/>
     <use xlink:href="#DejaVuSans-Oblique-63" transform="translate(603.955078 0.015625)"/>
     <use xlink:href="#DejaVuSans-Oblique-3a" transform="translate(658.935547 0.015625)"/>
     <use xlink:href="#DejaVuSans-Oblique-20" transform="translate(692.626953 0.015625)"/>
     <use xlink:href="#DejaVuSans-Oblique-73" transform="translate(724.414062 0.015625)"/>
     <use xlink:href="#DejaVuSans-Oblique-69" transform="translate(776.513672 0.015625)"/>
     <use xlink:href="#DejaVuSans-Oblique-67" transform="translate(804.296875 0.015625)"/>
     <use xlink:href="#DejaVuSans-Oblique-6e" transform="translate(867.773438 0.015625)"/>
     <use xlink:href="#DejaVuSans-Oblique-65" transform="translate(931.152344 0.015625)"/>
     <use xlink:href="#DejaVuSans-Oblique-64" transform="translate(992.675781 0.015625)"/>
     <use xlink:href="#DejaVuSans-Oblique-20" transform="translate(1056.152344 0.015625)"/>
     <use xlink:href="#DejaVuSans-Oblique-53" transform="translate(1087.939453 0.015625)"/>
     <use xlink:href="#DejaVuSans-Oblique-70" transform="translate(1151.416016 0.015625)"/>
     <use xlink:href="#DejaVuSans-Oblique-65" transform="translate(1214.892578 0.015625)"/>
     <use xlink:href="#DejaVuSans-Oblique-61" transform="translate(1276.416016 0.015625)"/>
     <use xlink:href="#DejaVuSans-Oblique-72" transform="translate(1337.695312 0.015625)"/>
     <use xlink:href="#DejaVuSans-Oblique-6d" transform="translate(1378.808594 0.015625)"/>
     <use xlink:href="#DejaVuSans-Oblique-61" transform="translate(1476.220703 0.015625)"/>
     <use xlink:href="#DejaVuSans-Oblique-6e" transform="translate(1537.5 0.015625)"/>
     <use xlink:href="#DejaVuSans-Oblique-20" transform="translate(1600.878906 0.015625)"/>
     <use xlink:href="#DejaVuSans-Oblique-3c1" transform="translate(1632.666016 0.015625)"/>
     <use xlink:href="#DejaVuSans-Oblique-20" transform="translate(1696.142578 0.015625)"/>
     <use xlink:href="#DejaVuSans-Oblique-6f" transform="translate(1727.929688 0.015625)"/>
     <use xlink:href="#DejaVuSans-Oblique-6e" transform="translate(1789.111328 0.015625)"/>
     <use xlink:href="#DejaVuSans-Oblique-20" transform="translate(1852.490234 0.015625)"/>
     <use xlink:href="#DejaVuSans-Oblique-67" transform="translate(1884.277344 0.015625)"/>
     <use xlink:href="#DejaVuSans-Oblique-65" transform="translate(1947.753906 0.015625)"/>
     <use xlink:href="#DejaVuSans-Oblique-6f" transform="translate(2009.277344 0.015625)"/>
     <use xlink:href="#DejaVuSans-Oblique-64" transform="translate(2070.458984 0.015625)"/>
     <use xlink:href="#DejaVuSans-Oblique-65" transform="translate(2133.935547 0.015625)"/>
     <use xlink:href="#DejaVuSans-Oblique-73" transform="translate(2195.458984 0.015625)"/>
     <use xlink:href="#DejaVuSans-Oblique-69" transform="translate(2247.558594 0.015625)"/>
     <use xlink:href="#DejaVuSans-Oblique-63" transform="translate(2275.341797 0.015625)"/>
     <use xlink:href="#DejaVuSans-Oblique-20" transform="translate(2330.322266 0.015625)"/>
     <use xlink:href="#DejaVuSans-Oblique-61" transform="translate(2362.109375 0.015625)"/>
     <use xlink:href="#DejaVuSans-Oblique-72" transform="translate(2423.388672 0.015625)"/>
     <use xlink:href="#DejaVuSans-Oblique-63" transform="translate(2464.501953 0.015625)"/>
     <use xlink:href="#DejaVuSans-Oblique-6c" transform="translate(2519.482422 0.015625)"/>
     <use xlink:href="#DejaVuSans-Oblique-65" transform="translate(2547.265625 0.015625)"/>
     <use xlink:href="#DejaVuSans-Oblique-6e" transform="translate(2608.789062 0.015625)"/>
     <use xlink:href="#DejaVuSans-Oblique-2c" transform="translate(2672.167969 0.015625)"/>
     <use xlink:href="#DejaVuSans-Oblique-20" transform="translate(2703.955078 0.015625)"/>
     <use xlink:href="#DejaVuSans-Oblique-65" transform="translate(2735.742188 0.015625)"/>
     <use xlink:href="#DejaVuSans-Oblique-76" transform="translate(2797.265625 0.015625)"/>
     <use xlink:href="#DejaVuSans-Oblique-61" transform="translate(2856.445312 0.015625)"/>
     <use xlink:href="#DejaVuSans-Oblique-6c" transform="translate(2917.724609 0.015625)"/>
     <use xlink:href="#DejaVuSans-Oblique-75" transform="translate(2945.507812 0.015625)"/>
     <use xlink:href="#DejaVuSans-Oblique-61" transform="translate(3008.886719 0.015625)"/>
     <use xlink:href="#DejaVuSans-Oblique-74" transform="translate(3070.166016 0.015625)"/>
     <use xlink:href="#DejaVuSans-Oblique-65" transform="translate(3109.375 0.015625)"/>
     <use xlink:href="#DejaVuSans-Oblique-64" transform="translate(3170.898438 0.015625)"/>
     <use xlink:href="#DejaVuSans-Oblique-20" transform="translate(3234.375 0.015625)"/>
     <use xlink:href="#DejaVuSans-Oblique-70" transform="translate(3266.162109 0.015625)"/>
     <use xlink:href="#DejaVuSans-Oblique-65" transform="translate(3329.638672 0.015625)"/>
     <use xlink:href="#DejaVuSans-Oblique-72" transform="translate(3391.162109 0.015625)"/>
     <use xlink:href="#DejaVuSans-Oblique-20" transform="translate(3432.275391 0.015625)"/>
     <use xlink:href="#DejaVuSans-Oblique-72" transform="translate(3464.0625 0.015625)"/>
     <use xlink:href="#DejaVuSans-Oblique-65" transform="translate(3505.175781 0.015625)"/>
     <use xlink:href="#DejaVuSans-Oblique-67" transform="translate(3566.699219 0.015625)"/>
     <use xlink:href="#DejaVuSans-Oblique-69" transform="translate(3630.175781 0.015625)"/>
     <use xlink:href="#DejaVuSans-Oblique-6f" transform="translate(3657.958984 0.015625)"/>
     <use xlink:href="#DejaVuSans-Oblique-6e" transform="translate(3719.140625 0.015625)"/>
    </g>
   </g>
  </g>
 </g>
 <defs>
  <clipPath id="pc5a5c5c70b">
   <rect x="18.2895" y="7.2" width="299.376" height="299.376"/>
  </clipPath>
 </defs>
</svg>
